<svg version="1.2" baseProfile="tiny" xmlns="http://www.w3.org/2000/svg" viewBox="0 0 60 85" overflow="visible"><g id="фоны"><linearGradient id="_x32_gis_2_" gradientUnits="userSpaceOnUse" x1="4.127" y1="23.32" x2="52.327" y2="59.051"><stop offset="0" stop-color="#fff"/><stop offset="1" stop-color="#d1d1d1"/></linearGradient><path id="_x32_gis" fill-rule="evenodd" fill="url(#_x32_gis_2_)" d="M0 0h60v85H0z"/></g><g id="лого"><g id="_x32_gis_1_"><g id="g20" transform="translate(486.806 62.337)"><path id="path22" fill="#AFCA0B" d="M-459.841-20.084a7.81 7.81 0 00-.542-2.843c-.092 2.916-3.18 5.174-4.994 6.668h4.54a7.841 7.841 0 00.996-3.825m-3.281-6.421a8.66 8.66 0 00-5.202-1.72c-4.684 0-8.482 3.645-8.482 8.14s3.798 8.14 8.482 8.14c2.146 0 4.1-.77 5.593-2.03h-6.142l-.018-1.731c3.7-3.087 5.969-5.174 5.969-7.19 0-.75-.298-1.696-1.636-1.696-1.06 0-2.083.59-1.897 3.051h-2.157c-.54-2.854 1.078-5.121 4.165-5.121.478 0 .921.055 1.325.157"/></g><g id="g24" transform="translate(502.722 67.422)"><path id="path26" fill="#3C3C3B" d="M-467.889-27.683h2.007c.068-1.465-.446-3.785-3.756-3.785-2.435 0-4.202 1.399-4.202 4.311 0 .395.017 2.436.017 3.703 0 3.16 2.281 3.851 4.202 3.851 1.15 0 2.812-.247 3.585-1.053v-5.036h-3.773v1.827h1.68v2.221c-1.269.412-3.584.577-3.584-2.22v-3.293c0-1.958.943-2.633 1.989-2.633 1.08 0 1.835.527 1.835 2.107m14.924 4.888c.087-4.51-5.298-3.012-5.247-5.53.017-.889.618-1.465 1.595-1.465 1.045 0 1.663.593 1.646 2.14H-453c.052-1.4-.29-3.786-3.549-3.786-2.024 0-3.688.955-3.722 3.078-.086 4.328 5.333 2.913 5.247 5.53-.034 1.07-.84 1.546-1.749 1.546-1.063 0-1.92-.592-1.749-2.37h-1.99c-.222 2.354.859 4.033 3.722 4.033 2.418 0 3.79-1.284 3.824-3.176m-9.059 3.027h-2.024v-11.52h2.024v11.52zm0 0h-2.024v-11.52h2.024v11.52z"/></g></g></g></svg>