<svg version="1.0" id="Направляющие" xmlns="http://www.w3.org/2000/svg" xmlns:xlink="http://www.w3.org/1999/xlink" x="0" y="0" viewBox="0 0 60 85" xml:space="preserve"><symbol id="_x35__star" viewBox="-29.9 -29.3 59.9 58.7"><path fill="#FFF" d="M.6 29l2.9-5.9c.1-.2.2-.3.4-.3l6.5-1c.5-.1.7-.6.3-1L6 16.2c-.1-.1-.2-.3-.2-.5l1.1-6.5c.1-.5-.4-.8-.8-.6L.2 11.7c-.2.1-.4.1-.5 0l-5.9-3.1c-.4-.2-.9.1-.8.6l1.1 6.5c0 .2 0 .4-.2.5l-4.7 4.6c-.3.3-.2.9.3 1l6.5 1c.2 0 .3.1.4.3L-.7 29c.4.4 1.1.4 1.3 0zm19-14.9l2.9-5.9c.1-.2.2-.3.4-.3l6.5-1c.5-.1.7-.6.3-1L25 1.3c-.1-.1-.2-.3-.2-.5l1.1-6.5c.1-.5-.4-.8-.8-.6l-5.9 3.1c-.2.1-.4.1-.5 0l-5.9-3.1c-.4-.2-.9.1-.8.6L13.1.8c0 .2 0 .4-.2.5L8.2 5.9c-.3.3-.2.9.3 1l6.5 1c.2 0 .3.1.4.3l2.9 5.9c.4.5 1.1.5 1.3 0zm-38 0l2.9-5.9c.1-.2.2-.3.4-.3l6.5-1c.5-.1.7-.6.3-1L-13 1.3c-.1-.1-.2-.3-.2-.5l1.1-6.5c.1-.5-.4-.8-.8-.6l-5.9 3.1c-.2.1-.4.1-.5 0l-5.9-3.1c-.4-.2-.9.1-.8.6l1.1 6.5c0 .2 0 .4-.2.5l-4.7 4.6c-.3.3-.2.9.3 1l6.5 1c.2 0 .3.1.4.3l2.9 5.9c.4.5 1.1.5 1.3 0zm6.9-23l2.9-5.9c.1-.2.2-.3.4-.3l6.5-1c.5-.1.7-.6.3-1l-4.7-4.6c-.1-.1-.2-.3-.2-.5l1.1-6.5c.1-.5-.4-.8-.8-.6l-5.9 3.1c-.2.1-.4.1-.5 0l-5.9-3.1c-.4-.2-.9.1-.8.6l1.1 6.5c0 .2 0 .4-.2.5l-4.7 4.6c-.3.3-.2.9.3 1l6.5 1c.2 0 .3.1.4.3l2.9 5.9c.5.5 1.1.5 1.3 0zm24.2 0l2.9-5.9c.1-.2.2-.3.4-.3l6.5-1c.5-.1.7-.6.3-1l-4.7-4.6c-.1-.1-.2-.3-.2-.5l1.1-6.5c.1-.5-.4-.8-.8-.6l-5.9 3.1c-.2.1-.4.1-.5 0l-5.9-3.1c-.4-.2-.9.1-.8.6l1.1 6.5c0 .2 0 .4-.2.5l-4.7 4.6c-.3.3-.2.9.3 1l6.5 1c.2 0 .3.1.4.3l2.9 5.9c.5.5 1.1.5 1.3 0z"/></symbol><path id="facebook" fill="#3A5BA2" d="M0 0h60v85H0z"/><use xlink:href="#_x35__star" width="59.9" height="58.7" x="-29.9" y="-29.3" transform="matrix(.5482 0 0 -.5482 30 42.5)" overflow="visible"/></svg>