<svg version="1.0" xmlns="http://www.w3.org/2000/svg" viewBox="0 0 60 85"><g id="фоны"><linearGradient id="Apple_1_" gradientUnits="userSpaceOnUse" x1="4.127" y1="23.32" x2="52.327" y2="59.051"><stop offset="0" stop-color="#fff"/><stop offset="1" stop-color="#d1d1d1"/></linearGradient><path id="Apple" fill-rule="evenodd" clip-rule="evenodd" fill="url(#Apple_1_)" d="M0 0h60v85H0z"/></g><g id="иконки"><g id="apple_AppStore"><linearGradient id="SVGID_1_" gradientUnits="userSpaceOnUse" x1="-536.784" y1="358.15" x2="-536.784" y2="368.599" gradientTransform="matrix(2.4414 0 0 -2.4414 1340.508 926.34)"><stop offset="0" stop-color="#1d76f2"/><stop offset="1" stop-color="#1ac2fb"/></linearGradient><path fill="url(#SVGID_1_)" d="M17.245 26.44h25.51v25.51h-25.51V26.44z"/><path fill="#FFF" d="M25.54 45.012h.003l-.86 1.491a1.138 1.138 0 01-1.97-1.137l.633-1.099.061-.105c.109-.156.377-.426.913-.375 0 0 1.262.137 1.354.793 0 0 .012.216-.133.432zm12.207-3.808h-2.683c-.183-.012-.263-.077-.294-.115l-.002-.003-2.873-4.976-.004.002-.172-.247c-.282-.432-.73.673-.73.673-.536 1.23.075 2.63.288 3.052l3.99 6.912a1.138 1.138 0 101.971-1.138l-.998-1.728c-.02-.042-.053-.156.152-.156h1.355a1.138 1.138 0 000-2.276zm-5.212 1.547s.143.729-.411.729h-9.921a1.138 1.138 0 010-2.276h2.55c.412-.023.51-.261.51-.261l.002.001 3.33-5.767h-.002a.254.254 0 00.002-.233l-1.1-1.905a1.138 1.138 0 111.97-1.137l.51.883.51-.882a1.138 1.138 0 111.97 1.138l-4.633 8.024c-.02.05-.026.126.124.14h2.77v.026s1.6.025 1.819 1.52z"/></g></g></svg>