<svg version="1.0" xmlns="http://www.w3.org/2000/svg" viewBox="0 0 60 85"><g id="фоны"><linearGradient id="Apple_2_" gradientUnits="userSpaceOnUse" x1="4.127" y1="23.32" x2="52.327" y2="59.051"><stop offset="0" stop-color="#fff"/><stop offset="1" stop-color="#d1d1d1"/></linearGradient><path id="Apple" fill-rule="evenodd" clip-rule="evenodd" fill="url(#Apple_2_)" d="M0 0h60v85H0z"/></g><g id="лого"><path id="Apple_1_" fill="#999" d="M31.367 28.945c2.13-2.806 5.09-2.82 5.09-2.82s.44 2.639-1.675 5.18c-2.259 2.714-4.826 2.27-4.826 2.27s-.482-2.134 1.411-4.63zm-1.14 6.478c1.095 0 3.128-1.505 5.774-1.505 4.555 0 6.347 3.24 6.347 3.24s-3.504 1.793-3.504 6.14c0 4.906 4.366 6.596 4.366 6.596s-3.052 8.59-7.175 8.59c-1.893 0-3.365-1.276-5.36-1.276-2.033 0-4.05 1.324-5.365 1.324-3.764 0-8.52-8.149-8.52-14.699 0-6.444 4.026-9.825 7.801-9.825 2.455 0 4.36 1.415 5.636 1.415z"/></g></svg>