<svg version="1.0" id="Направляющие" xmlns="http://www.w3.org/2000/svg" x="0" y="0" viewBox="0 0 60 85" xml:space="preserve"><path id="canvas_background" fill="#FF664A" d="M0 0h60v85H0z"/><g id="svg_10" fill="#FFF"><path id="svg_6" d="M17.3 45.6c-.5.8-1.2 1.2-2 1.4-1.8.4-3.5-.3-4.5-1.9-1.3-2.1-1-5.1.7-6.7 1.2-1.2 2.6-1.5 4.2-1 .7.2 1 .5 1.5 1.2 0-.2.1-.4.1-.6.1-.5.4-.8.9-.9.3-.1.7-.1 1 0 .5.1.8.5.9.9.1.3.1.6.1.8v6.8c0 1.3-.7 1.9-2 1.6-.5-.1-.8-.4-.9-.9v-.7zm-.6-3.3c-.1-.4-.1-.7-.2-1-.2-.8-.7-1.1-1.5-1.2-.8 0-1.4.3-1.7 1-.3.8-.3 1.7 0 2.5.3.7.9 1 1.7 1 .7 0 1.2-.5 1.4-1.1.1-.5.2-.9.3-1.2z"/><path id="svg_7" d="M25.3 36.8c1 0 2.1.2 3 .9.4.3.6.7.9 1.1.2.4.1.8-.4 1.1-.6.4-1.2.4-1.8-.1-.6-.5-1.2-.7-2-.6-.3.1-.7.2-.7.6 0 .4.3.6.6.7.6.2 1.3.4 1.9.7.7.3 1.3.5 1.9 1 1.4 1.2 1.3 3.1-.2 4.2-1.7 1.2-4.7 1.2-6.4.1-.5-.3-.9-.7-1.1-1.2-.2-.5-.1-1.1.3-1.4.6-.4 1.2-.4 1.6.1.5.5 1 .9 1.7 1H26c.3 0 .5-.2.6-.6 0-.3-.2-.6-.5-.7-.7-.2-1.3-.4-2-.7-.6-.3-1.3-.5-1.8-.9-1.5-.9-1.6-3.2 0-4.3.9-.7 1.8-.9 3-1z"/><path id="svg_8" d="M33.3 39.9c.5-.6 1.1-1.2 1.6-1.8.2-.2.4-.5.7-.7.6-.5 1.3-.4 1.9.2.5.5.5 1.1-.1 1.7-.6.7-1.2 1.3-1.8 2-.2.2-.2.3 0 .5.8 1.1 1.6 2.3 2.4 3.4.6.9.1 1.9-.9 2-.6.1-1-.3-1.4-.7-.7-1-1.4-2-2-3l-.3-.3v.4c0 .8 0 1.7-.1 2.5s-.6 1.1-1.4 1.2c-.8 0-1.3-.4-1.4-1.1 0-.3-.1-.6-.1-.9V39c0-.3 0-.6.1-.9.1-.7.6-1.1 1.4-1.1.9 0 1.3.3 1.4 1.1.1.5 0 1 0 1.4v.5c-.1-.1-.1-.1 0-.1z"/><path id="svg_9" d="M42.2 42.1c-1.1-.2-1.1-.2-1.3.8-.2 1.4-.4 2.8-.7 4.1-.1.5-.3.9-.6 1.3-.4.5-.9.7-1.6.8-.3 0-.6-.1-.7-.5-.1-.3 0-.6.3-.7.8-.3 1.1-.9 1.2-1.7.2-1.2.4-2.5.5-3.7v-.3h-.2c-.2 0-.6.1-.6-.3 0-.5.2-.7.7-.8.2 0 .3-.1.3-.3.3-1.7 1.8-2.1 3-1.9.3 0 .3.3.3.5s0 .6-.4.6h-.5c-.7 0-1 .3-1 1.1h1.8c.4 0 .6.1.7.4.5-.2 1-.4 1.6-.5.6-.1 1.1.2 1.4.7.2-.1.3-.2.4-.3.4-.3.9-.5 1.5-.5.8 0 1.3.5 1.2 1.2 0 .9-.2 1.7-.3 2.6l-.3 2.1c0 .3-.2.5-.5.5-.9 0-1 0-.9-.9.2-1 .3-2.1.5-3.1v-.5c0-.5-.3-.8-.8-.6-.4.1-.7.4-.8.9-.1 1.2-.3 2.5-.5 3.7-.1.5-.2.6-.7.6h-.3c-.4 0-.5-.1-.5-.5.1-1.1.3-2.2.5-3.3 0-.3.1-.6.1-.9 0-.3-.2-.5-.5-.5-.5 0-1 .4-1.1.9-.2 1.2-.3 2.4-.5 3.6-.1.6-.9.9-1.4.6-.1-.1-.1-.3-.1-.5.1-.8.2-1.7.4-2.5s.3-1.5.4-2.2z"/></g></svg>