<svg version="1.0" id="Направляющие" xmlns="http://www.w3.org/2000/svg" x="0" y="0" viewBox="0 0 60 85" xml:space="preserve"><linearGradient id="cian_1_" gradientUnits="userSpaceOnUse" x1="30" y1="6.962" x2="30" y2="77.674"><stop offset="0" stop-color="#eaeaea"/><stop offset="1" stop-color="#f9f9f9"/></linearGradient><path id="cian" fill="url(#cian_1_)" d="M0 0h60v85H0z"/><g id="logo_cian"><path d="M39.9 41.8l-3.3 6.1h1.7l.4-.9h2.5l.4.9h1.7c-1.1-2.1-2.2-4.2-3.4-6.1zm-.7 4l.7-1.5.7 1.5h-1.4zm-10.3 3.5h-1.4v-1.5h-5.1v-5.9H24v4.6h2.4v-4.6h1.5v4.6h1zm6.7-1.5h-1.5v-3.2L30.2 48v-6.1h1.5v3.2l3.8-3.3h.1zm12.5 0v-2.2h-2.4v2.2h-1.5v-5.9h1.5v2.4h2.4v-2.4h1.5v5.9z" fill="#13334B"/><linearGradient id="SVGID_1_" gradientUnits="userSpaceOnUse" x1="17.024" y1="48.717" x2="17.024" y2="36.156" gradientTransform="matrix(1 0 0 -1 0 84.11)"><stop offset="0" stop-color="#72cbdc"/><stop offset="1" stop-color="#5594cb"/></linearGradient><path fill="url(#SVGID_1_)" d="M15.2 38.2l1.8 3.2 1.8-3.2c.1-.3.2-.6.2-1 0-1.2-.9-2.1-2.1-2.1s-2.1.9-2.1 2.1c.1.3.2.7.4 1zm1.8-1.9c.5 0 .9.4.9.9s-.4.9-.9.9-.9-.4-.9-.9.4-.9.9-.9z"/><linearGradient id="SVGID_2_" gradientUnits="userSpaceOnUse" x1="14.578" y1="48.717" x2="14.578" y2="36.156" gradientTransform="matrix(1 0 0 -1 0 84.11)"><stop offset="0" stop-color="#72cbdc"/><stop offset="1" stop-color="#5594cb"/></linearGradient><path fill="url(#SVGID_2_)" d="M17.8 45v-3.1h-1.6v1.5l-1.6-1.6-4.6 4.5 1.6 1.7 3-3 2.9 3 1.7-1.7z"/></g></svg>