<svg version="1.2" baseProfile="tiny" xmlns="http://www.w3.org/2000/svg" viewBox="0 0 60 85" overflow="visible"><g id="фоны"><linearGradient id="clubhouse_2_" gradientUnits="userSpaceOnUse" x1="4.127" y1="23.32" x2="52.327" y2="59.051"><stop offset="0" stop-color="#b8b8b8"/><stop offset="1" stop-color="#696969"/></linearGradient><path id="clubhouse" fill-rule="evenodd" fill="url(#clubhouse_2_)" d="M0 0h60v85H0z"/></g><g id="лого"><g id="clubhouse_1_"><path d="M165.627 5117.4c-2.246-2.907-6.937-12.487-8.457-17.244-2.246-6.806-4.03-17.245-4.36-25.306-.265-6.541-.067-8.92 1.056-13.875 2.445-10.176 7.4-18.963 16.056-28.346 1.454-1.586 1.52-3.04.198-4.757-1.321-1.718-1.321-3.37-.066-2.247.529.397 1.652.662 2.511.53 1.19-.133 1.52-.595 1.52-2.181s.396-2.115 1.982-2.71c1.52-.528 2.048-1.188 2.18-2.774.132-1.19.463-2.115.727-2.115 1.321 0 6.673 6.74 9.25 11.695l2.907 5.352 7.07 3.37c3.898 1.85 7.334 3.37 7.665 3.37s1.123.594 1.784 1.32c1.321 1.587 3.171 1.653 9.316.331 2.51-.528 4.823-.792 5.153-.594 1.124.727 3.833-.397 3.833-1.586 0-2.313 1.057-2.907 5.748-3.105 3.766-.132 5.154-.529 7.929-2.247 3.568-2.18 4.89-4.559 3.105-5.55-.727-.397-.925-1.123-.66-2.18.33-1.19 0-1.784-1.256-2.643-1.255-.86-1.652-1.652-1.652-3.568s-.33-2.643-1.255-2.973c-.727-.199-1.454-.793-1.652-1.322-.198-.528-.793-.99-1.321-.99-1.256 0-5.088-3.239-4.692-3.965.199-.33.463-2.048.661-3.899l.264-3.37-1.784.397c-1.651.463-4.823 2.445-8.787 5.616-.925.727-2.841 1.454-4.163 1.52-2.18.198-2.444.066-2.18-.991.198-.727.066-1.123-.198-.925-.33.198-.925-.198-1.256-.925-.99-1.784-.925-2.048.595-2.048.727 0 1.321-.198 1.321-.463 0-.33.661-1.321 1.52-2.246 1.057-1.322 2.379-1.85 5.088-2.247 2.84-.396 4.096-.99 5.748-2.643 1.19-1.19 2.18-2.576 2.18-3.039.066-.529 1.586-1.652 3.502-2.511 1.916-.925 4.163-2.313 5.088-3.171s1.784-1.52 2.048-1.52c.198 0 .793-1.19 1.255-2.643s1.256-2.973 1.784-3.37c.463-.396.86-1.057.86-1.453 0-.992 2.973-3.568 3.832-3.238.396.132 1.32-.132 2.114-.528 1.321-.727 1.321-.86.396-2.313-.594-.925-1.057-2.312-1.057-3.105 0-1.982-1.453-6.013-2.577-7.4-.462-.595-.66-1.057-.396-1.057s-.595-1.454-1.916-3.238c-1.322-1.784-2.379-3.568-2.379-3.965s-.264-.726-.66-.726c-2.181 0-4.692-2.577-4.494-4.626.133-1.057-.132-1.585-.66-1.453-.397.066-.86-.132-.86-.529-.33-1.85-.197-2.312.595-2.312 1.917 0 .595-1.255-1.387-1.255-1.652-.066-2.18-.397-2.313-1.52-.132-.925-.528-1.322-1.189-1.058-.727.265-.925-.396-.925-2.973 0-1.85-.396-3.766-.793-4.228-.462-.463-.925-1.718-1.057-2.775-.132-1.124-.727-2.71-1.388-3.634a24.966 24.966 0 01-1.651-2.71c-.199-.528-.265-.33-.132.53.198.99 0 1.453-.463 1.255-.463-.133-.859-.926-.991-1.718-.198-1.058.132-1.586 1.123-1.85.793-.198 1.388-.727 1.388-1.19 0-1.123 2.048-1.85 3.568-1.255.99.397 1.057-.066.66-4.427-.198-2.709-.528-5.286-.66-5.814-.463-1.52-2.049.396-2.842 3.568-.726 3.04-2.048 4.03-2.048 1.652 0-.727-.396-1.322-.859-1.322s-1.585-1.453-2.51-3.303c-.86-1.785-1.983-3.304-2.445-3.304s-.991-.529-1.19-1.124c-.726-2.246-1.387-3.832-2.708-6.805-1.124-2.445-1.917-5.947-2.313-10.902-.066-.396-.859-.66-1.784-.66-1.057 0-1.652-.33-1.586-.86.265-.99-.594-1.057-1.652 0-.396.397-.99.595-1.189.33-.793-.792.991-2.18 3.766-3.039 3.04-.924 3.172-2.378.199-2.378-2.115 0-6.872-2.114-6.872-3.04 0-.33-.463-.396-1.057-.131-.86.33-.925 0-.595-1.85.397-2.181.397-2.247-2.048-2.445-2.907-.199-3.04-.265-3.238-2.379-.33-2.709-.726-2.973-3.766-2.312-1.784.462-2.973.396-3.436-.067-.462-.462-.462-.66.066-.66.397 0 .727-.727.727-1.652 0-1.322-.264-1.586-1.189-1.322-.859.265-1.321-.065-1.652-.99-.198-.727-.66-1.322-.99-1.322-.331 0-.794-.66-1.058-1.454-.397-1.321-.463-1.387-1.322-.264-.462.66-.66 1.586-.528 2.048.528 1.255-1.784 1.52-3.568.397-1.321-.793-1.652-.793-2.18 0-.463.727-.595.727-.595-.265 0-.66-.66-1.387-1.454-1.717-.859-.331-1.52-1.124-1.52-1.785 0-.726-.66-1.52-1.453-1.916-.859-.33-1.52-.99-1.52-1.453s-.264-.86-.66-.86c-.33 0-.661.331-.661.662 0 .396-.529.66-1.19.66-.66 0-1.915.727-2.708 1.586-1.19 1.256-1.454 2.18-1.256 4.295.132 1.916 0 2.709-.594 2.709-1.124 0-1.058-4.824.066-7.93.594-1.585 1.255-2.245 1.982-2.113.99.198 1.057 0 .396-1.256-1.123-2.114.33-4.36 3.965-6.21 2.444-1.256 4.955-1.718 12.223-2.313 5.022-.396 9.382-.86 9.647-1.057.264-.132 3.568-.86 7.334-1.586 7.598-1.387 12.884-3.238 16.518-5.682 2.18-1.52 3.568-3.965 5.418-9.647.33-1.189 1.718-1.652 1.718-.66 0 .792 3.303 2.18 4.03 1.717.33-.198 1.784-.396 3.238-.396s2.643-.264 2.643-.594c0-.265.925-.463 1.982-.463 2.709.066 5.154-2.379 3.898-3.832-.528-.661-.595-1.19-.198-1.454.859-.529.198-3.502-.727-3.502-.33 0-.66-.595-.66-1.454 0-.99-.661-1.783-2.049-2.51-1.718-.793-1.982-1.256-1.453-2.18.462-.86.33-1.388-.463-1.983-.991-.726-1.057-.99-.264-2.247.925-1.519 2.84-1.916 3.568-.858.198.33 1.255.594 2.378.594 1.916-.066 1.982-.198 1.784-2.775-.132-1.717-.528-2.643-.99-2.576-.662.132-.662-.198-.133-1.388.595-1.19.529-1.916-.396-3.238-.86-1.387-1.454-1.652-3.172-1.321-3.171.462-5.418-1.52-4.757-4.295l.462-2.114h215.265v48.1c0 50.15-.066 51.67-2.775 51.67-.595 0-1.19.595-1.321 1.453-.133.925-.793 1.586-1.85 1.85-1.058.265-1.718.925-1.85 1.85-.199 1.256-.661 1.454-3.106 1.454-1.916 0-2.973.33-3.238.991-.198.529-.925.991-1.651.991-.727 0-1.52.33-1.718.66-.198.397-1.718.661-3.37.661-2.643 0-2.907.133-2.907 1.652s-.198 1.652-3.304 1.652-3.303.133-3.303 1.652-.199 1.652-3.304 1.652c-1.784 0-3.304.33-3.304.66 0 .397-.726.661-1.651.661s-1.652-.264-1.652-.66c0-.331-.727-.661-1.586-.661-1.52 0-1.652.33-1.85 3.171-.198 2.577-.396 3.106-1.586 3.304-2.444.33-2.643 4.89-.528 10.77 2.775 7.664 4.294 23.852 3.766 39.379-.33 7.466-.198 10.572.462 12.091.463 1.19.86 3.833.86 6.013-.067 3.436-.595 4.955-4.097 12.091-2.247 4.493-4.493 8.524-4.956 8.92-.528.463-1.123 1.916-1.387 3.37-.265 1.387-.991 3.04-1.652 3.634-.859.793-1.123 1.784-.925 4.162.198 3.833-1.322 8.325-4.89 14.008-1.52 2.378-4.426 7.598-6.475 11.562-4.294 8.392-6.937 12.092-13.214 18.501-7.268 7.4-9.25 8.655-18.104 11.497-10.506 3.435-14.536 3.37-13.611-.331.396-1.387.198-1.454-2.114-1.123-2.511.33-2.907.198-9.713-3.568-.793-.462-2.775-2.048-4.36-3.502-2.181-1.982-2.71-2.775-2.049-3.171 1.255-.86 3.832-.199 5.088 1.189.594.66 1.453 1.123 1.916.925.462-.198 1.52.462 2.378 1.321 1.322 1.454 1.652 1.586 2.247.66.99-1.386 3.237-.527 2.709 1.058-.463 1.52 1.123 2.115 3.237 1.124 2.841-1.322 2.643-6.938-.264-9.912-1.123-1.123-1.982-2.576-1.982-3.303 0-.66-.33-1.784-.66-2.445-.397-.66-.794-2.048-.926-3.105-.396-3.37-1.19-5.352-2.114-5.749-1.52-.594-3.568 1.058-3.568 2.776 0 1.255-.264 1.453-1.322 1.123-1.651-.529-3.964.198-3.964 1.19 0 .462-.33 1.915-.727 3.237-.727 2.84-3.568 4.757-5.352 3.766-1.453-.793-3.171-.066-3.171 1.387 0 .727-.264 1.454-.66 1.652-1.058.66-.728 2.643.726 4.56 1.52 1.915 1.387 3.038-.198 1.519-.529-.529-1.85-1.454-2.974-1.982-3.501-1.85-7.07.198-12.62 7.334-1.255 1.718-1.783 3.237-2.048 6.607l-.396 4.427-2.577.198c-2.246.198-2.51.066-2.048-.99.264-.662.594-2.974.793-5.089l.396-3.898-5.021.397c-4.824.33-7.136 1.057-8.854 2.84-.727.661-.595.86.594 1.058 1.256.132.926.594-2.312 2.709-2.114 1.387-4.56 3.238-5.55 4.162-2.51 2.313-9.25 2.247-13.083-.066-1.453-.925-3.501-1.651-4.625-1.651-1.057 0-2.51-.463-3.171-.925-.86-.661-1.784-.727-3.964-.265-4.427 1.057-20.02 8.854-27.42 13.81-3.7 2.51-9.053 5.748-11.894 7.135-2.775 1.454-7.73 4.295-11.034 6.41-18.434 11.694-21.87 13.676-24.513 14.007-2.444.264-2.907.066-4.427-1.917zm120.913-56.227c4.295-1.85 8.524-4.097 9.515-4.956 2.048-1.916 3.04-1.916 3.634-.066.396 1.388.462 1.322 1.255-.528.991-2.313.595-2.577-4.295-3.238-1.982-.264-4.294-.859-5.087-1.387-.793-.529-2.048-.925-2.71-.925-1.519 0-4.955 3.039-4.426 3.898.198.33-.33.727-1.123.859-1.123.132-1.52.594-1.454 1.718 0 .925-.33 1.453-1.057 1.453-1.255 0-7.268 5.022-7.268 6.013 0 1.652 5.682.396 13.016-2.841zm60.985-11.761c0-.86.463-1.322 1.256-1.322 1.255 0 2.312-1.652 1.718-2.643-.199-.33-.066-.726.198-.925 1.057-.594.066-3.7-1.388-4.493-1.52-.792-12.091.463-12.752 1.52-.198.33-.925.595-1.652.595-.99 0-1.255.462-1.255 2.18 0 1.123.33 2.577.66 3.106.595.859.794.859 1.653-.264.462-.661 1.189-.992 1.585-.728.397.199.727-.065.727-.594 0-1.652.793-1.256 4.295 1.916 3.634 3.238 4.955 3.634 4.955 1.652zm-48.365-8.391c.397-1.058.925-2.974 1.19-4.361.198-1.322.66-2.643.99-2.841.33-.198.595-1.322.595-2.445 0-1.19.595-3.304 1.322-4.757.726-1.388 1.52-3.568 1.718-4.758.264-1.32.925-2.312 1.651-2.51 1.85-.595 4.56-5.22 4.56-7.797 0-1.52.528-2.709 1.651-3.766 2.973-2.775 5.616-9.911 3.634-9.911-1.057 0-11.893 18.302-11.893 20.218 0 .463-.33 1.057-.66 1.256-.397.264-1.719 1.982-2.908 3.964-2.246 3.436-3.964 5.22-9.514 9.977-3.172 2.709-3.172 3.436-.132 2.313l2.048-.661-.397 2.907c-.462 2.775-.396 2.841 1.058 2.51 1.123-.33 1.387-.197 1.057.596-.463 1.32.066 1.85 1.85 1.85.99 0 1.718-.595 2.18-1.784zm36.67-66.536c1.19-.462 4.23-3.105 6.872-5.88 4.956-5.22 5.748-7.07 5.682-12.686-.066-5.022-3.303-15.527-4.757-15.527-.991 0-.925 3.37.33 10.043.992 5.616.992 5.946-.33 10.241-1.321 4.493-3.171 6.938-7.334 9.647-3.502 2.379-8.92.925-12.686-3.436-1.255-1.453-2.445-2.709-2.643-2.709-.925 0-1.057 2.247-.264 4.163 1.19 2.907 3.105 4.427 7.136 5.814 4.228 1.454 5.22 1.52 7.994.33zm2.842-10.637c1.784-2.71 1.85-6.806.264-11.563-.793-2.312-1.85-6.607-2.379-9.514-1.057-6.08-2.444-9.119-6.54-14.603-3.833-5.087-3.833-5.682 0-5.153 2.378.33 2.906.198 2.642-.529-.991-2.643-9.118-5.946-11.43-4.625-.727.397-1.718.264-2.974-.396-1.85-.925-2.048-.859-3.37.396l-1.321 1.388h3.766c3.568 0 7.73 1.387 7.73 2.51 0 .265-.924 1.322-2.048 2.247-1.651 1.52-1.85 1.982-1.255 3.171.396.727 1.123 1.322 1.652 1.322 1.718 0 4.757 3.304 6.21 6.673l1.52 3.37-1.52 3.964c-.924 2.445-2.576 5.22-4.36 7.004-3.106 3.37-3.568 4.757-1.52 4.757 3.304 0 6.607 2.841 7.929 6.74 1.321 4.36 5.021 5.814 7.004 2.84zm-29.469-19.227c-.727-1.322-1.321-3.04-1.321-3.965 0-.859-.595-2.114-1.388-2.709-.727-.66-2.709-2.445-4.295-3.964-1.585-1.586-3.039-2.841-3.237-2.841-.793 0-.264 1.982 1.321 4.89.925 1.717 1.652 3.964 1.652 5.02 0 2.511 2.445 5.286 5.286 5.881 3.238.727 3.568.264 1.982-2.312zm8.92-14.14c.198-.397-.66-1.982-1.916-3.568-1.322-1.52-2.379-3.171-2.379-3.568 0-1.057-3.634-3.435-5.352-3.435-1.982 0-7.796 2.775-7.862 3.766 0 1.123 3.237 3.501 4.89 3.501.726 0 3.303.926 5.681 1.917 4.692 2.114 6.277 2.378 6.938 1.387zm-82.789-23.654c-1.057-.33 1.057-3.436 2.313-3.436.66 0 .792-.396.528-1.454-.396-1.057-.264-1.32.595-.99 1.52.594 3.171-1.388 2.643-3.106-.925-3.04-2.841-3.766-6.475-2.379-1.454.53-1.718 1.058-1.718 3.106v2.51l-1.19-1.519-1.189-1.52.264 2.313c.199 1.454 0 2.378-.462 2.378-.397 0-.727.595-.727 1.322 0 .727.33 1.322.66 1.322.397 0 .661.396.661.858 0 .53.86.86 2.445.86 1.322 0 2.048-.133 1.652-.265zm53.519-69.64c-.198-.86-.66-1.718-1.057-2.049-.463-.264-.132-.595.793-.859 2.048-.594 1.85-1.784-.86-4.691-1.255-1.387-2.312-2.775-2.312-3.04s.925-.924 2.114-1.387c2.049-.925 2.049-.925.661-1.784-.793-.528-1.454-1.255-1.454-1.651s-.462-1.124-.99-1.586c-1.388-1.19-1.256-2.643.33-2.643 2.444 0 .859-2.577-1.586-2.709-1.123-.066-1.19-.132-.198-.396 1.982-.53 1.321-2.181-.925-2.181-1.388 0-2.775-.727-4.427-2.313-1.322-1.255-2.775-2.312-3.238-2.312-.462 0-1.057-.529-1.453-1.123-.595-1.057-.86-1.057-2.115-.265-1.321.793-1.585.727-2.378-.33-.529-.727-1.256-1.322-1.718-1.322-.463-.066-1.057-.131-1.454-.198-.33-.066-.198-.396.33-.792.728-.53.595-.595-.66-.199-1.982.529-3.37 1.586-2.973 2.18.396.661.396 4.89 0 10.44-.198 2.841-.066 4.89.33 5.154.991.595 2.71 4.955 2.247 5.682-.199.33-.067.595.33.595.33 0 .727.66.859 1.52l.198 1.453 1.52-1.454c1.52-1.585 2.775-1.982 2.775-.859 0 .397-.463.661-.991.661-.529 0-.991.198-.991.396 0 .86 3.501 4.89 4.294 4.89.463 0 1.52.528 2.379 1.256.859.66 2.048 1.057 2.577.858.859-.33.859-.198.066.727-.727.991-.727 1.123.132 1.123.595 0 1.784-.264 2.775-.66 1.322-.529 1.784-.463 2.048.33.265.66 1.322.991 2.907.991 2.313 0 2.511-.132 2.115-1.453z" transform="matrix(.1 0 0 -.1 0 538)"/><path d="M193.047 5007.984c-2.048-.396-3.303-3.502-1.85-4.559.595-.396 1.058-1.057 1.058-1.52 0-.396.396-.792.859-.792 3.237-.33 5.351-.33 9.712.264 3.568.462 5.815.396 8.127-.198 2.445-.595 3.37-.595 4.097 0 1.52 1.255 1.189 1.982-1.256 2.973-2.246.991-4.36.727-4.36-.396 0-.33-.33-.595-.727-.595s-.529.727-.265 1.916c.397 1.784.265 1.916-2.576 2.643-2.842.727-9.713.86-12.819.264zm9.449-13.479c-1.057-.33-2.577-1.057-3.238-1.585-1.189-.86-1.189-1.057-.264-2.115.529-.66 1.321-2.048 1.652-3.171.462-1.387 1.057-1.982 2.048-1.916 2.313.066 2.379-2.973 0-5.154-1.85-1.718-1.916-1.85-.595-1.85.793 0 1.586.463 1.85 1.057.265.793.925.925 2.313.661 1.321-.265 2.246 0 3.172.925 1.783 1.784 1.651 2.643-.33 2.643-.992 0-1.653.396-1.653.925 0 1.387 1.19 1.982 2.247 1.123.99-.859 1.718-.33 1.718 1.388 0 .66.33 1.189.726 1.189 1.256 0 .067.991-2.973 2.577-3.303 1.586-3.7 2.246-1.85 3.303.925.595.793.661-.859.661-1.057-.066-2.84-.33-3.964-.66zm-22.134-47.638c-1.058-2.18-1.652-4.493-1.652-6.607 0-1.718-.132-3.172-.33-3.172-.199 0-1.058.463-1.917 1.058-1.19.858-2.577.99-6.54.792-6.476-.462-8.723-1.453-8.723-3.898 0-1.586.463-2.048 3.04-3.171 2.709-1.256 3.237-1.256 5.748-.397 5.22 1.718 8.722 2.51 10.968 2.445 4.427-.198 7.995 2.775 7.995 6.475 0 1.916-1.982 7.466-3.172 8.788-1.85 2.114-3.633 1.387-5.417-2.313zm12.223-28.081c-1.321-.33-2.313-1.321-2.313-2.445 0-.264.463-.33 1.058-.132.66.265.925.066.792-.396-.396-1.057-2.709-1.718-6.805-1.784-3.634-.132-9.25-2.313-8.59-3.37.199-.33 2.115-.66 4.163-.66 4.097 0 8.457-.992 9.052-2.049.264-.33.132-1.057-.264-1.52s-.529-1.056-.265-1.255c.53-.594-1.123-2.51-1.85-2.114-.264.198-1.52-.265-2.709-.991-1.189-.727-2.576-1.321-3.039-1.321-.727 0-11.827-4.956-14.866-6.674-.66-.33-1.454-.463-1.784-.264-.86.528-.86-1.256.066-3.238.991-2.114 2.643-2.775 3.634-1.453.396.594 1.123 1.057 1.586 1.057.859 0 7.994 3.832 8.59 4.625.197.264 2.444 1.255 5.087 2.246 5.814 2.18 8.127 3.899 8.127 6.079 0 .859-.265 1.586-.661 1.586-.33 0-.66.264-.66.595 0 .66 3.435 1.982 8.456 3.37 3.436.858 4.758 2.972 3.568 5.615-.462.925-1.453 1.916-2.312 2.247-.793.33-1.916 1.057-2.379 1.651-.859 1.058-2.973 1.256-5.682.595z" transform="matrix(.1 0 0 -.1 0 538)"/></g></g></svg>