<svg version="1.0" id="Направляющие" xmlns="http://www.w3.org/2000/svg" x="0" y="0" viewBox="0 0 60 85" xml:space="preserve"><path d="M0 0h60v85H0z"/><path fill="#FAFAFA" d="M46.3 41.7s-.2.9.4.9c.6 0 .7-.9.7-.9s.9-2.1 1.1-2.3c.2-.2.8-.9.8-.9s.8-1.2-.8-.5c-1.5.6-2.8 1.6-3.8 1.9-1 .3-1.4 1.3-1.2 2 .2.7.8 2 .8 2s-3.7.9-4.1.9l-.6-2.5s-.5-1.3.8-1.8C41.6 40 42 40 42 40s-1.3 2.1-1.2 2.9c.1.8.1.8.5.9.5.1.8-.2 1-1.1.2-.9 1.1-2.8 2-3.7.9-.9.5-1.3-.8-.8s-4 1.8-4.9 1.8-1.1 1.4-.9 2.1c.2.7 1.1 3 1.1 3s-1.3.2-1.5.2c0 0 .2 1.5 2.1 1.2l.8 1.8s1 1.3.7-.6l-.4-1.5 4-1.2.8 1.8s.9 1.7.7-.4l-.4-1.8 1.6-.6s1.3-.8-.2-.5l-1.5.3s-1-2.3-.1-2.8 1.6-.8 1.6-.8-.7.9-.7 1.5zm-15.9 8.7s2.5.1 1.7-1.9-1.3-3.2-1.3-3.2 4.1-1.4 4.6-4.2c0 0 .3.3.8-.1.4-.4 1.8-2 1.8-2s.3-.1-.1-.6-.6-.5-1.1 0l-.7.7s.9-3.7-1.3-4.7-4.5 2.9-4.6 3.6c0 0 1.1-3.7.3-3.4-.8.2-2 1.1-2 1.1s-1.3.7-.5 7.1l-1.3.4s-.2-4.7 0-5.2c0 0-2.1-1.9-2.3.2-.2 2.1.4 5.5.4 5.5l-1.9.5s2.5-3.9-.9-4.2c-3.4-.3-5.6 1.5-5.6 1.5s.4-3.8-.6-4.8-2 1-2 1l.2 2.1s-.9-1-2.6.4-1.8 2.6-1.7 5.1c.2 2.5 2.8 2.9 2.8 2.9s2.1-.5 2.4-2v-.1c.4 2.5 2.2 1.4 2.2 1.4s-1.1-1.1-1-4.4c0 0 2-1.7 4.2-1.7s1.4 2.1 1.1 2.2c0 0-2.9-2.1-3.8-.5-.9 1.6-.6 3.3.6 4.4s2.4 1.8 3.5 1.3c1.1-.4 1.2-1.6 1-3.2l2-.8.5 2.5s.2 1.1.7 1.3c.5.3 1.3.8.9-1.5-.4-2.2-.3-2-.3-3l1.3-.4c.2.2 1.8 6.2 2.6 6.7z"/><path fill="#000105" d="M13.3 43s-.1-2.3-1-2.1c-.9.2-1 2.1-1 2.1s-.1 3.3 1.2 3.5 2-2.6 2-2.6l-.3-1.7c.2-.1-.6.7-.9.8zm7.7 4.8s.1-3.8-1.9-4 .9 4.5 1.9 4zm11.8-11.5s.8-1.6 1.1 1.2-2.4 5.9-3.3 6.4c0 0 .1-4.8 2.2-7.6z"/><path fill="#FAFAFA" d="M36.7 43.1v.1c-.9 2.5.6 4.4.6 4.4-1 1.8-2.3.1-2.7-2.3-.1.1-.2-3.8 2.1-2.2z"/></svg>