<svg version="1.2" baseProfile="tiny" xmlns="http://www.w3.org/2000/svg" viewBox="0 0 60 85" overflow="visible"><g id="фоны"><path fill="#7289DA" d="M0 0h60v85H0z" id="Discord"/></g><g id="лого"><g id="discord" fill="#FFF"><path d="M26.99 39.864c-.934 0-1.671.818-1.671 1.817s.753 1.818 1.67 1.818c.934 0 1.67-.819 1.67-1.818.017-.999-.736-1.817-1.67-1.817zm5.976 0c-.933 0-1.67.818-1.67 1.817s.753 1.818 1.67 1.818c.934 0 1.67-.819 1.67-1.818s-.736-1.817-1.67-1.817z"/><path d="M40.924 26.125H18.982a3.365 3.365 0 00-3.357 3.373v22.14a3.365 3.365 0 003.357 3.373h18.57l-.869-3.03 2.096 1.949 1.982 1.834 3.52 3.111V29.498a3.365 3.365 0 00-3.357-3.373zm-6.32 21.386s-.59-.704-1.081-1.327c2.145-.605 2.964-1.948 2.964-1.948a9.37 9.37 0 01-1.883.966c-.82.344-1.605.573-2.375.704a11.471 11.471 0 01-4.24-.016 13.746 13.746 0 01-2.408-.704 9.596 9.596 0 01-1.195-.557c-.05-.033-.099-.05-.148-.082a.226.226 0 01-.065-.05c-.295-.163-.459-.278-.459-.278s.786 1.31 2.866 1.933c-.491.622-1.097 1.359-1.097 1.359-3.62-.115-4.995-2.49-4.995-2.49 0-5.272 2.358-9.546 2.358-9.546 2.358-1.768 4.602-1.72 4.602-1.72l.163.197c-2.947.852-4.306 2.145-4.306 2.145s.36-.196.966-.474c1.752-.77 3.144-.983 3.717-1.032.098-.016.18-.033.279-.033a13.855 13.855 0 013.307-.033c1.556.18 3.226.639 4.93 1.572 0 0-1.294-1.228-4.078-2.08l.229-.261s2.243-.05 4.601 1.72c0 0 2.358 4.273 2.358 9.546 0 0-1.392 2.374-5.01 2.489z"/></g></g></svg>