<svg version="1.0" id="Направляющие" xmlns="http://www.w3.org/2000/svg" x="0" y="0" viewBox="0 0 60 85" xml:space="preserve"><path fill="#FF4E38" d="M0 0h60v85H0z"/><circle fill="#FFF" cx="30.2" cy="42.4" r="16.4"/><path fill="#FF4E38" d="M26.7 46.1v-6.8s-.3-2.5 2.7-.9 5.6 3.2 5.6 3.2 2.3.7 0 2-6.4 3.4-6.4 3.4-1.9 0-1.9-.9zm-4.1-10.2l2.8-2.2-2.6-3.2-2.6 2.1zm1.1-5.8l.7-.3-.9-1.6-.7.4zm1.7-.8l.8 3.9 3.5-.7-.8-4.1zm5.3 2.9l3.2 1.2 1.2-3.8-3.3-1.2zm5.3-2.5l.3.2 1-1.3-.6-.4-.9 1.4zm-19.3 8.1l1.8-3 3.5 1.9-1.7 3.2zm18.2-4.3l2.7-3.1 2.8 2.4-2.6 3.1zm3.4 3l1.6 3.1 3.6-1.6-1.4-3.4zm5.5 2.2v.9h1.9v-1zm-3.7 1.8v3.7l4.1-.1v-3.6zM38.3 48l1.8-3.1 3.6 1.8-1.6 3.2zm2.7 3.4l.5-.7 1.5 1.1-.6.6zm-3.2-2.5L35 51.1l2.5 3.3 3-2.3zm-7.1 3.2l3.6-.5.9 4-3.6.8zm-.9 4.3h.9v1.9h-.9zm-3.4-5l-1.3 4 3.9 1.1 1-4.1zm-3.6 3l2.8-3.1-2.8-2.4-2.8 3.2zm-5.2-2.3l.5.6 1.4-1.3-.7-.6zm-.9-5l3.9-2 1.6 3.2-3.7 1.9zm-.5-6.4v3.5l4.2.2v-3.7zm-1.4-1.9h1.7v.8h-1.7z"/></svg>