<svg version="1.0" id="Направляющие" xmlns="http://www.w3.org/2000/svg" x="0" y="0" viewBox="0 0 60 85" xml:space="preserve"><path fill="#1C212E" d="M0 0h60v85H0z" id="Слой_2"/><path fill="#FF2D42" d="M27.4 29.6l6-2.9s3.6-1.8 5.9 2.4c2.4 4.2-2.2 6.6-2.2 6.6l-4.6 2.4 3 1.7s3.5 2.9 3.7 5.4c.2 2.5-.2 6.8-3.2 8.5-3 1.7-9 4.6-9 4.6s-4.7 2-6.6-2.5 2.9-6.7 2.9-6.7l4.2-2.1-3.5-2s-3.1-2.2-3.3-5.3c-.2-3.1 1-6.4 2.3-7.4 1.3-1 4.4-2.7 4.4-2.7z"/><path fill="#1C212E" d="M28.8 46.3l5-2.7s2.8-2.6-.3-4c-3.1-1.4-2-.8-2-.8l-4.1 1.9s-5.9 3.4 1.4 5.6z"/></svg>