<svg version="1.0" xmlns="http://www.w3.org/2000/svg" viewBox="0 0 60 85"><g id="фоны"><path id="Google" fill="#FFF" d="M0 0h60v85H0z"/></g><g id="лого"><g id="Google_1_"><path fill="#4285F4" d="M45.961 42.862c0-1.34-.108-2.316-.344-3.33H30.326v6.044h8.976c-.181 1.502-1.159 3.765-3.33 5.285l-.03.202 4.834 3.745.335.034c3.077-2.841 4.85-7.022 4.85-11.98"/><path fill="#34A853" d="M30.326 58.787c4.397 0 8.089-1.448 10.785-3.945l-5.14-3.981c-1.374.959-3.22 1.628-5.645 1.628-4.307 0-7.963-2.84-9.266-6.768l-.19.016-5.028 3.891-.066.183c2.678 5.32 8.18 8.976 14.55 8.976"/><path fill="#FBBC05" d="M21.06 45.721a10.027 10.027 0 01-.543-3.221c0-1.122.2-2.208.525-3.221l-.009-.216-5.09-3.953-.167.079a16.3 16.3 0 00-1.737 7.311 16.3 16.3 0 001.737 7.311l5.284-4.09"/><path fill="#EB4335" d="M30.326 32.51c3.058 0 5.121 1.322 6.297 2.426l4.597-4.488c-2.823-2.624-6.497-4.235-10.894-4.235-6.37 0-11.872 3.656-14.55 8.976l5.266 4.09c1.321-3.927 4.977-6.768 9.284-6.768"/></g></g></svg>