<svg version="1.0" id="Направляющие" xmlns="http://www.w3.org/2000/svg" x="0" y="0" viewBox="0 0 60 85" xml:space="preserve"><g id="instagram"><linearGradient id="canvas_background_1_" gradientUnits="userSpaceOnUse" x1="30" y1="85" x2="30" y2="0" gradientTransform="matrix(1 0 0 -1 0 85)"><stop offset=".162" stop-color="#a137a1"/><stop offset=".405" stop-color="#d10869"/><stop offset=".862" stop-color="#f68136"/></linearGradient><path id="canvas_background" fill="url(#canvas_background_1_)" d="M0 0h60v85H0z"/></g><g id="TV"><path fill="none" d="M14.1 28h32.4v32.4H14.1z"/><path fill="none" stroke="#FFF" stroke-width="2" stroke-linecap="round" stroke-miterlimit="10" d="M14.7 33.2h31.1v19.4H14.7zM38.8 57H20.7"/><path fill="#FFF" d="M34.8 42.9l-7.1-4.1c-.1-.1-.3-.1-.4 0-.2.1-.3.2-.3.4v8.2c0 .1.1.3.2.4.1 0 .1.1.2.1s.1 0 .2-.1l7.1-4.1c.1-.1.2-.2.2-.4.1-.2 0-.3-.1-.4z"/><path fill="none" stroke="#FFF" stroke-width="2" stroke-linecap="round" stroke-miterlimit="10" d="M29.7 57v-4.4m0-19.4l-7-5.2m14.7.6l-7.7 4.6"/></g></svg>