<svg version="1.0" id="Направляющие" xmlns="http://www.w3.org/2000/svg" x="0" y="0" viewBox="0 0 60 85" xml:space="preserve"><path id="canvas_background" fill="#E5B922" d="M0 0h60v85H0z"/><g fill="#010101"><path id="svg_6" d="M10.3 37.6h4.1v15.9h-4.1z"/><path id="svg_7" d="M23.2 37.6l-1 7.5-.6-4c-.2-1.3-.3-2.4-.5-3.4h-5.3v15.9h3.6V43.1l1.5 10.5h2.6L25 42.8v10.8h3.6v-16h-5.4z"/><path id="svg_8" d="M34.8 53.5c1 0 1.7-.1 2.2-.2.5-.1.9-.3 1.2-.6.3-.3.6-.7.7-1.1.1-.5.2-1.4.2-2.9v-5.6c0-1.5-.1-2.5-.2-3s-.3-1-.7-1.4c-.4-.4-.9-.7-1.6-.9-.7-.2-1.8-.3-3.8-.3h-3.1v15.9l5.1.1zm0-13c.2.1.3.2.3.4.1.2.1.7.1 1.4v6.2c0 1.1-.1 1.7-.2 1.9-.1.3-.5.4-1.1.4V40.3c.5 0 .8 0 .9.2z"/><path id="svg_9" d="M40.5 37.6v15.9h3.7l.3-1c.3.4.7.7 1.1.9.4.2 1 .3 1.5.3.7 0 1.2-.2 1.7-.5s.8-.7.9-1.2c.1-.5.2-1.2.2-2.1v-4.5c0-1 0-1.6-.1-1.9 0-.3-.2-.6-.4-.9-.2-.3-.5-.5-.9-.7-.4-.2-.9-.3-1.4-.3-.5 0-1.1.1-1.5.3-.4.2-.8.5-1.1.9v-5.2h-4zm5.4 12c0 .8 0 1.2-.1 1.4-.1.2-.4.3-.7.3-.2 0-.4-.1-.5-.3-.1-.2-.1-.7-.1-1.3v-4.2c0-.7 0-1.2.1-1.3.1-.2.2-.3.5-.3s.6.1.7.3c.1.2.1.7.1 1.3v4.1z"/></g></svg>