<svg version="1.2" baseProfile="tiny" xmlns="http://www.w3.org/2000/svg" viewBox="0 0 60 85" overflow="visible"><g id="фоны"><linearGradient id="irecommend_2_" gradientUnits="userSpaceOnUse" x1="4.127" y1="23.32" x2="52.327" y2="59.051"><stop offset="0" stop-color="#fff"/><stop offset="1" stop-color="#d1d1d1"/></linearGradient><path id="irecommend" fill-rule="evenodd" fill="url(#irecommend_2_)" d="M0 0h60v85H0z"/></g><g id="лого"><g id="irecommend_1_"><path fill="#FF6643" d="M18.561 53.345c1.17 1.038 2.763 1.867 4.897 1.962l-.68 3.568L30 55.171l5.833-.092c2.398-.038 4.764-.81 6.597-2.359 1.001-.846 1.866-4.19 1.917-5.313.101-2.222.005-8.12-.027-12.22-.017-2.194-.585-4.366-1.773-6.21-.963-1.494-5.052-2.852-6.83-2.852H24.848c-3.037 0-6 1.265-7.9 3.634-.74.922-1.268 4.965-1.268 6.07v10.76c0 2.55.974 5.062 2.881 6.756z"/><path fill="#FFF" d="M24.82 47.407h8.719l.544-2.997h-2.588l1.226-7.356h2.316l.681-3.27h-8.31l-.817 3.27 1.907.136-.817 7.084-1.907-.136z"/></g></g></svg>