<svg version="1.0" xmlns="http://www.w3.org/2000/svg" viewBox="0 0 60 85"><g id="фоны"><path id="likee" fill-rule="evenodd" clip-rule="evenodd" fill="#4F535B" d="M0 0h60v85H0z"/></g><g id="лого"><g id="Layer1000" fill-rule="evenodd" clip-rule="evenodd"><g id="Layer1001" stroke-width=".567"><path id="path4" fill="#FF8434" stroke="#FF8434" d="M22.8 43.4L39.1 27c1.7.9 2.9 2.2 3.6 3.7L26.4 47l-3.6-3.6z"/><path id="path6" fill="#FFCB3A" stroke="#FFCB3A" d="M26.4 47l16.3-16.3c1.4 2.8.8 6.3-1.9 9L30 50.6 26.4 47h0z"/><path id="path8" fill="#FF474C" stroke="#FF474C" d="M19.1 39.7l11.4-11.4c2.5-2.2 5.3-2.7 8.5-1.4h.1L22.8 43.3l-3.7-3.6z"/><path id="path10" fill="#9330FD" stroke="#9330FD" d="M19 39.6l-.7-.7c-1.9-2.2-2.4-5.6-1.1-8.4l5.5 5.5-3.6 3.6H19h0z"/><path id="path12" fill="#C43FF8" stroke="#C43FF8" d="M22.7 36.1l-5.5-5.5c.7-1.5 1.9-2.7 3.6-3.6h0l5.5 5.5-3.6 3.6z"/><path id="path14" fill="#DD48E2" stroke="#DD48E2" d="M26.3 32.5L20.8 27c3.3-1.5 6.3-.8 8.9 1.6l.3.3-3.7 3.6z"/></g><g id="Layer1002" fill="#FFF" stroke="#FFF" stroke-width=".216"><path id="path17" d="M17.8 50.5h1.1v6.4c0 .5.2.8.7.8h3.3v1.2h-3.4c-1 0-1.7-.8-1.7-1.6v-6.8z"/><path id="path19" d="M23.8 53.5h1.1v5.4h-1.1v-5.4z"/><path id="path21" d="M26.1 50.5h1.1v4.7l2.4-2.9H31l-2.5 3.2 2.6 3.4h-1.5l-2.5-3.2v3.2H26l.1-8.4z"/><path id="path23" d="M24.4 50.5c-.4 0-.7.3-.7.7 0 .4.3.7.7.7.4 0 .7-.3.7-.7 0-.4-.4-.7-.7-.7z"/><path id="path25" d="M33.3 52c1.7.1 2.6 1.2 3 2.9l-4.7 1.4c.3 1.8 2.8 2 3.5.1l1 .2c-1.5 3.5-5.5 2.6-5.7-1.2 0-1.6 1.1-3.3 2.9-3.4h0zm1.8 2.4l-3.6 1c-.4-2.3 2.5-3.4 3.6-1z"/><path id="path27" d="M39.2 52c1.7.1 2.6 1.2 3 2.9l-4.7 1.4c.3 1.8 2.8 2 3.5.1l1 .2c-1.5 3.5-5.5 2.6-5.7-1.2 0-1.6 1.1-3.3 2.9-3.4h0zm1.8 2.4l-3.6 1c-.3-2.3 2.5-3.4 3.6-1z"/></g></g></g></svg>