<svg version="1.0" id="Направляющие" xmlns="http://www.w3.org/2000/svg" x="0" y="0" viewBox="0 0 60 85" xml:space="preserve"><path fill="#FFF" d="M0 0h60v85H0z"/><path id="path5" fill="#007FB1" d="M39.4 38c0-.4.3-.8.8-.8H49c.4 0 .8.3.8.8v9c0 .4-.3.8-.8.8h-8.9c-.4 0-.8-.3-.8-.8v-9h.1z"/><path id="polygon7" fill="#231F20" d="M14.5 44.6h-2.7v-5.3h-1.6V46h4.3z"/><path id="path9" fill="#231F20" d="M16.7 46v-4.7h-1.6V46h1.6zm-.7-5.3c.5 0 .9-.4.9-.8 0-.5-.3-.8-.9-.8-.5 0-.9.4-.9.8s.3.8.9.8z"/><path id="path11" fill="#231F20" d="M17.5 46h1.6v-2.6c0-.1 0-.3.1-.4.1-.3.4-.6.8-.6.6 0 .8.4.8 1.1V46h1.6v-2.7c0-1.5-.8-2.1-1.8-2.1-.8 0-1.2.5-1.4.8v-.7h-1.6c-.1.4-.1 4.7-.1 4.7z"/><path id="path13" fill="#231F20" d="M24.5 39.3h-1.6V46h1.6v-1.5l.4-.5 1.2 2H28l-2-2.9 1.8-2h-1.9s-1.3 1.8-1.4 2v-3.8z"/><path id="path15" fill="#231F20" d="M32.3 44.1c0-.1.1-.4.1-.6 0-1.2-.6-2.5-2.3-2.5-1.8 0-2.6 1.4-2.6 2.6 0 1.6 1 2.5 2.7 2.5.7 0 1.3-.1 1.8-.3l-.2-1c-.4.1-.8.2-1.4.2-.7 0-1.4-.3-1.4-.9h3.3zM29 43c0-.4.3-1 1-1s.9.6.9 1H29z"/><path id="path17" fill="#231F20" d="M36.2 39.3v2.2c-.2-.3-.7-.5-1.3-.5-1.2 0-2.3 1-2.3 2.6 0 1.5 1 2.5 2.2 2.5.7 0 1.3-.3 1.6-.8l.1.7h1.4v-6.8l-1.7.1zm0 4.6v.3c-.1.4-.5.7-.9.7-.7 0-1.1-.5-1.1-1.4 0-.8.4-1.4 1.1-1.4.5 0 .8.3.9.7v1.1z"/><path id="path19" fill="#FFF" d="M42.5 46v-4.7H41V46h1.5zm-.7-5.3c.5 0 .9-.4.9-.8 0-.5-.3-.8-.9-.8-.5 0-.9.4-.9.8s.3.8.9.8z"/><path id="path21" fill="#FFF" d="M43.4 46H45v-2.6c0-.1 0-.3.1-.4.1-.3.4-.6.8-.6.6 0 .8.4.8 1.1V46h1.6v-2.7c0-1.5-.8-2.1-1.8-2.1-.8 0-1.2.5-1.4.8v-.7h-1.6c-.1.4-.1 4.7-.1 4.7z"/></svg>