<svg version="1.0" xmlns="http://www.w3.org/2000/svg" viewBox="0 0 60 85"><g id="фоны"><path id="medium" stroke="#000" stroke-width=".094" d="M0 0h60v85H0z"/></g><path d="M32.098 42.29c0 5.136-4.136 9.3-9.237 9.3s-9.236-4.164-9.236-9.3 4.135-9.3 9.236-9.3 9.237 4.164 9.237 9.3m10.132 0c0 4.835-2.067 8.754-4.618 8.754-2.55 0-4.618-3.92-4.618-8.754s2.068-8.754 4.618-8.754c2.55 0 4.618 3.92 4.618 8.754m4.145 0c0 4.332-.727 7.843-1.624 7.843-.897 0-1.624-3.511-1.624-7.843s.727-7.843 1.624-7.843c.897 0 1.624 3.511 1.624 7.843" fill="#FFF" id="лого"/></svg>