<svg version="1.2" baseProfile="tiny" xmlns="http://www.w3.org/2000/svg" viewBox="0 0 60 85" overflow="visible"><g id="фоны"><path id="metacritic" d="M0 0h60v85H0z"/></g><g id="лого"><path id="Fill-1" fill="#FFCC34" d="M46.39 42.452c0 9.046-7.392 16.438-16.438 16.438s-16.327-7.392-16.327-16.438c0-8.936 7.281-16.327 16.327-16.327S46.39 33.516 46.39 42.452"/><path id="Fill-4" fill="#333" d="M43.19 42.452c0 7.281-5.847 13.128-13.128 13.128s-13.127-5.847-13.127-13.128 5.846-13.128 13.127-13.128c7.171 0 13.128 5.847 13.128 13.128"/><path id="Fill-6" fill="#FEFEFE" d="M21.458 46.975c-1.104-1.103-2.096-2.096-2.979-2.868l2.427-2.427 1.324 1.103.11-.11c-.22-.883-.33-2.538 1.214-4.082 1.213-1.214 2.758-1.544 4.081-.883-.11-.882-.11-1.654.11-2.316a5.146 5.146 0 011.325-2.207c1.765-1.765 4.302-1.875 7.06.883l5.406 5.406-2.758 2.757-4.965-4.964c-1.324-1.324-2.537-1.655-3.42-.772-.662.662-.662 1.544-.33 2.317.11.22.44.551.661.772l5.406 5.405-2.758 2.758-5.075-5.074c-1.103-1.103-2.316-1.545-3.31-.552-.771.772-.55 1.765-.33 2.317.11.33.33.551.662.882l5.295 5.296-2.758 2.758-6.398-6.399z"/></g></svg>