<svg version="1.0" id="Направляющие" xmlns="http://www.w3.org/2000/svg" x="0" y="0" viewBox="0 0 60 85" xml:space="preserve"><path d="M0 0h60v85H0z"/><path fill="#FFF" d="M43.8 50.4c4.9-5.3 0-10 0-10l-1.4 1.4s3.4 3.6 0 7.1l1.4 1.5zm-20.9-9.6l1.3-1.6s-1.3-1.3-3.4-1.5c-.8-.1-1.7 0-2.7.3-3.6 1.3-4.4 4.6-4.4 4.6s-.8 3.8 1.6 6c2.4 2.2 4.5 1.9 4.5 1.9h17.6s3.6-.1 4.4-4.4c.8-4.4-3.7-5.6-3.7-5.6l-1.5-.1s.8-3.3-2.9-6.5c-3.8-3.2-8.1-1.3-8.1-1.3s-4.1 1.5-4.7 5.7c-.6 4.2.9 3.3.9 3.3l1.1-.8z"/><path d="M19.6 48.4h17.7s2.7-.4 2.5-3.5c0 0-.7-2.6-2.7-2.5h-.6s-.3.7-.7 1.6-.2.2-.2.2l-1.7-1s1.3-2.4.8-4.4c0 0-.9-4.4-5.5-4.8s-6.3 4.1-6.3 4.1-.4-.5 1 .8.3.3.3.3l-1.3 1.6s-2.4-2.5-5.6 0-1.1 7.2 2.3 7.6z"/><path fill="#FFF" d="M46.4 53.1s7.2-7.4 0-15.2l-1.3 1.4c5.7 6.8 0 12.3 0 12.3l1.3 1.5z"/></svg>