<svg version="1.0" xmlns="http://www.w3.org/2000/svg" viewBox="0 0 60 85"><g id="фоны"><radialGradient id="MRPOPULAR_3_" cx="30" cy="42.5" r="36.785" gradientUnits="userSpaceOnUse"><stop offset=".559"/><stop offset=".562" stop-color="#080808"/><stop offset=".568" stop-color="#151515"/></radialGradient><path id="MRPOPULAR_2_" fill="url(#MRPOPULAR_3_)" stroke="#000" stroke-width=".094" d="M0 0h60v85H0z"/></g><g id="лого"><g id="MRPOPULAR_1_"><g id="_x31_"><linearGradient id="SVGID_1_" gradientUnits="userSpaceOnUse" x1="14.053" y1="26.008" x2="46.337" y2="58.292"><stop offset="0" stop-color="#30000f"/><stop offset="1" stop-color="#9b0e27"/></linearGradient><path fill="url(#SVGID_1_)" d="M15.807 27.763l3.275 1.637 3.275-1.637v-1.638h1.638v9.825h-1.638V29.4l-3.275 1.638-3.275-1.638v6.55H14.17v-9.825h1.637z"/><linearGradient id="SVGID_2_" gradientUnits="userSpaceOnUse" x1="25.515" y1="14.545" x2="57.799" y2="46.829"><stop offset="0" stop-color="#30000f"/><stop offset="1" stop-color="#9b0e27"/></linearGradient><path fill="url(#SVGID_2_)" d="M37.095 26.125v9.825h1.637v-3.275h8.188v-6.55h-1.638v4.913h-6.55v-3.275h6.55v-1.638h-8.187"/><linearGradient id="SVGID_3_" gradientUnits="userSpaceOnUse" x1="8.321" y1="31.739" x2="40.605" y2="64.023"><stop offset="0" stop-color="#30000f"/><stop offset="1" stop-color="#9b0e27"/></linearGradient><path fill="url(#SVGID_3_)" d="M14.17 37.588v9.824h9.825v-9.824h-1.638v8.187h-6.55v-6.55h6.55v-1.637z"/><linearGradient id="SVGID_4_" gradientUnits="userSpaceOnUse" x1="14.053" y1="26.008" x2="46.337" y2="58.292"><stop offset="0" stop-color="#30000f"/><stop offset="1" stop-color="#9b0e27"/></linearGradient><path fill="url(#SVGID_4_)" d="M25.632 37.588v9.824h1.638v-3.274h8.187v-6.55H33.82V42.5h-6.55v-3.275h6.55v-1.637z"/><linearGradient id="SVGID_5_" gradientUnits="userSpaceOnUse" x1="19.784" y1="20.277" x2="52.068" y2="52.56"><stop offset="0" stop-color="#30000f"/><stop offset="1" stop-color="#9b0e27"/></linearGradient><path fill="url(#SVGID_5_)" d="M37.095 37.588v9.824h9.825v-9.824h-1.638v8.187h-6.55v-8.187z"/><linearGradient id="SVGID_6_" gradientUnits="userSpaceOnUse" x1=".543" y1="39.517" x2="32.827" y2="71.801"><stop offset="0" stop-color="#30000f"/><stop offset="1" stop-color="#9b0e27"/></linearGradient><path fill="url(#SVGID_6_)" d="M14.17 49.05v9.825h9.825v-1.638h-8.188V49.05z"/><linearGradient id="SVGID_7_" gradientUnits="userSpaceOnUse" x1="8.321" y1="31.739" x2="40.605" y2="64.023"><stop offset="0" stop-color="#30000f"/><stop offset="1" stop-color="#9b0e27"/></linearGradient><path fill="url(#SVGID_7_)" d="M25.632 58.875V49.05h9.825v9.825H33.82v-8.188h-6.55v3.276h6.55V55.6h-6.55v3.275z"/><linearGradient id="SVGID_8_" gradientUnits="userSpaceOnUse" x1="14.053" y1="26.008" x2="46.337" y2="58.292"><stop offset="0" stop-color="#30000f"/><stop offset="1" stop-color="#9b0e27"/></linearGradient><path fill="url(#SVGID_8_)" d="M37.095 58.875V49.05h9.825v4.913h-1.638v-3.276h-6.55v3.276h6.55V55.6h1.638v3.275h-1.638V55.6h-6.55v3.275z"/><linearGradient id="SVGID_9_" gradientUnits="userSpaceOnUse" x1="19.784" y1="20.277" x2="52.068" y2="52.56"><stop offset="0" stop-color="#30000f"/><stop offset="1" stop-color="#9b0e27"/></linearGradient><path fill="url(#SVGID_9_)" d="M25.632 35.95v-9.825h9.825v4.913H33.82v-3.275h-6.55v3.275h6.55v1.637h1.637v3.275H33.82v-3.275h-6.55v3.275z"/></g><g id="_x32_"><linearGradient id="SVGID_10_" gradientUnits="userSpaceOnUse" x1="34.942" y1="14.494" x2="2.795" y2="46.914"><stop offset="0" stop-color="#30000f"/><stop offset="1" stop-color="#9b0e27"/></linearGradient><path fill="url(#SVGID_10_)" d="M15.262 27.763l3.276 1.637 3.274-1.637v-1.638h1.638v9.825h-1.637V29.4l-3.275 1.638-3.276-1.638v6.55h-1.637v-9.825h1.637z"/><linearGradient id="SVGID_11_" gradientUnits="userSpaceOnUse" x1="45.683" y1="25.144" x2="13.535" y2="57.564"><stop offset="0" stop-color="#30000f"/><stop offset="1" stop-color="#9b0e27"/></linearGradient><path fill="url(#SVGID_11_)" d="M36.55 26.125v9.825h1.638v-3.275h8.187v-6.55h-1.638v4.913h-6.55v-3.275h6.55v-1.638H36.55"/><linearGradient id="SVGID_12_" gradientUnits="userSpaceOnUse" x1="40.673" y1="20.176" x2="8.526" y2="52.597"><stop offset="0" stop-color="#30000f"/><stop offset="1" stop-color="#9b0e27"/></linearGradient><path fill="url(#SVGID_12_)" d="M13.625 37.588v9.824h9.825v-9.824h-1.637v8.187h-6.55v-6.55h6.55v-1.637z"/><linearGradient id="SVGID_13_" gradientUnits="userSpaceOnUse" x1="45.634" y1="25.096" x2="13.487" y2="57.516"><stop offset="0" stop-color="#30000f"/><stop offset="1" stop-color="#9b0e27"/></linearGradient><path fill="url(#SVGID_13_)" d="M25.087 37.588v9.824h1.638v-3.274h8.187v-6.55h-1.637V42.5h-6.55v-3.275h6.55v-1.637z"/><linearGradient id="SVGID_14_" gradientUnits="userSpaceOnUse" x1="52.233" y1="31.639" x2="20.085" y2="64.059"><stop offset="0" stop-color="#30000f"/><stop offset="1" stop-color="#9b0e27"/></linearGradient><path fill="url(#SVGID_14_)" d="M36.55 37.588v9.824h9.825v-9.824h-1.638v8.187h-6.55v-8.187z"/><linearGradient id="SVGID_15_" gradientUnits="userSpaceOnUse" x1="46.405" y1="25.859" x2="14.257" y2="58.279"><stop offset="0" stop-color="#30000f"/><stop offset="1" stop-color="#9b0e27"/></linearGradient><path fill="url(#SVGID_15_)" d="M13.625 49.05v9.825h9.825v-1.638h-8.188V49.05z"/><linearGradient id="SVGID_16_" gradientUnits="userSpaceOnUse" x1="52.184" y1="31.59" x2="20.036" y2="64.01"><stop offset="0" stop-color="#30000f"/><stop offset="1" stop-color="#9b0e27"/></linearGradient><path fill="url(#SVGID_16_)" d="M25.087 58.875V49.05h9.825v9.825h-1.637v-8.188h-6.55v3.276h6.55V55.6h-6.55v3.275z"/><linearGradient id="SVGID_17_" gradientUnits="userSpaceOnUse" x1="57.964" y1="37.321" x2="25.816" y2="69.742"><stop offset="0" stop-color="#30000f"/><stop offset="1" stop-color="#9b0e27"/></linearGradient><path fill="url(#SVGID_17_)" d="M36.55 58.875V49.05h9.825v4.913h-1.638v-3.276h-6.55v3.276h6.55V55.6h1.638v3.275h-1.638V55.6h-6.55v3.275z"/><linearGradient id="SVGID_18_" gradientUnits="userSpaceOnUse" x1="40.722" y1="20.225" x2="8.574" y2="52.645"><stop offset="0" stop-color="#30000f"/><stop offset="1" stop-color="#9b0e27"/></linearGradient><path fill="url(#SVGID_18_)" d="M25.087 35.95v-9.825h9.825v4.913h-1.637v-3.275h-6.55v3.275h6.55v1.637h1.637v3.275h-1.637v-3.275h-6.55v3.275z"/></g></g></g></svg>