<svg version="1.0" xmlns="http://www.w3.org/2000/svg" viewBox="0 0 60 85"><g id="фоны"><linearGradient id="Apple_1_" gradientUnits="userSpaceOnUse" x1="4.127" y1="23.32" x2="52.327" y2="59.051"><stop offset="0" stop-color="#fff"/><stop offset="1" stop-color="#d1d1d1"/></linearGradient><path id="Apple" fill-rule="evenodd" clip-rule="evenodd" fill="url(#Apple_1_)" d="M0 0h60v85H0z"/></g><g id="иконки"><path id="apple_music" fill-rule="evenodd" clip-rule="evenodd" d="M25.171 45.924v-5.95h-.038l-2.394 5.95h-.913l-2.4-5.95h-.038v5.95h-1.122V37.84h1.425l2.57 6.443h.043l2.564-6.443H26.3v8.085h-1.128zm7.335 0h-1.14v-.997h-.027c-.319.706-.908 1.104-1.793 1.104-1.26 0-2.031-.835-2.031-2.185V40.03h1.188v3.58c0 .897.419 1.378 1.238 1.378.86 0 1.376-.605 1.376-1.523V40.03h1.189v5.894zm3.257-6c1.348 0 2.223.762 2.262 1.849h-1.117c-.066-.571-.48-.93-1.145-.93-.644 0-1.073.319-1.073.79 0 .37.264.621.891.767l.941.219c1.184.28 1.635.75 1.635 1.602 0 1.076-.985 1.815-2.35 1.815-1.447 0-2.317-.722-2.427-1.843h1.178c.11.616.523.919 1.25.919.714 0 1.155-.303 1.155-.784 0-.382-.215-.606-.848-.751l-.94-.224c-1.101-.258-1.646-.796-1.646-1.653 0-1.053.903-1.776 2.234-1.776zm3.218-1.451a.686.686 0 111.37 0c0 .38-.302.695-.682.695a.668.668 0 01-.487-.206.668.668 0 01-.2-.489zm.094 1.557h1.188v5.894h-1.188V40.03zm6.207 2.029c-.122-.628-.584-1.127-1.36-1.127-.918 0-1.524.779-1.524 2.045 0 1.295.61 2.045 1.535 2.045.732 0 1.211-.409 1.348-1.092h1.145c-.126 1.255-1.111 2.106-2.503 2.106-1.657 0-2.735-1.154-2.735-3.059 0-1.871 1.078-3.053 2.724-3.053 1.491 0 2.4.975 2.503 2.135h-1.133zm-30.652-3.43c-.307.367-.795.659-1.283.616-.064-.497.18-1.027.456-1.351.307-.379.838-.649 1.273-.67.053.518-.148 1.026-.445 1.405zm.44.713c.275.022 1.069.108 1.577.873-.043.032-.942.56-.931 1.67.01 1.326 1.142 1.767 1.153 1.778-.011.033-.18.626-.592 1.24-.36.539-.73 1.067-1.323 1.078-.571.01-.762-.345-1.418-.345-.656 0-.867.334-1.407.355-.571.022-1.004-.571-1.364-1.11-.741-1.088-1.301-3.071-.54-4.408.37-.668 1.047-1.088 1.777-1.1.561-.01 1.08.378 1.418.378.339 0 .942-.452 1.65-.41v.001z"/></g></svg>