<svg version="1.0" id="Направляющие" xmlns="http://www.w3.org/2000/svg" x="0" y="0" viewBox="0 0 60 85" xml:space="preserve"><path id="canvas_background" fill="#E67E17" d="M0 0h60v85H0z"/><path id="svg_3" fill="#FFF" d="M29.5 42.7c4.5 0 8.2-3.7 8.2-8.3s-3.7-8.3-8.2-8.3-8.2 3.7-8.2 8.3 3.7 8.3 8.2 8.3zm0-12.4c2.2 0 4 1.8 4 4.1 0 2.2-1.8 4.1-4 4.1s-4-1.8-4-4.1c0-2.2 1.8-4.1 4-4.1zM39 43.7c-.5-.9-1.7-1.7-3.4-.4-2.3 1.8-6 1.8-6 1.8s-3.7 0-6-1.8c-1.7-1.4-3-.6-3.4.4-.8 1.6.1 2.4 2.2 3.8 1.8 1.1 4.2 1.6 5.7 1.7l-1.3 1.3c-1.8 1.9-3.6 3.6-4.8 4.9-.7.7-.7 1.9 0 2.7l.2.2c.7.7 1.9.7 2.7 0l4.8-4.9c1.8 1.9 3.6 3.6 4.8 4.9.7.7 1.9.7 2.7 0l.2-.2c.7-.7.7-1.9 0-2.7l-4.8-4.9-1.3-1.3c1.6-.2 4-.6 5.7-1.7 1.8-1.4 2.8-2.2 2-3.8z"/></svg>