<svg version="1.0" id="Направляющие" xmlns="http://www.w3.org/2000/svg" x="0" y="0" viewBox="0 0 60 85" xml:space="preserve"><linearGradient id="SVGID_1_" gradientUnits="userSpaceOnUse" x1="0" y1="42.5" x2="60" y2="42.5"><stop offset="0" stop-color="#dd272d"/><stop offset=".515" stop-color="#ca2429"/><stop offset="1" stop-color="#b22025"/></linearGradient><path fill="url(#SVGID_1_)" d="M0 0h60v85H0z"/><path id="svg_1" fill="#FFF" d="M30 26.1c-9 0-16.4 7.3-16.4 16.4S21 58.9 30 58.9s16.4-7.3 16.4-16.4S39 26.1 30 26.1zm1.7 21.4c-1.4 0-2.7-.8-3.2-1.6 0 0-.7 3-.9 3.5-.6 2-2.2 4.1-2.3 4.2-.1.1-.3.1-.3-.1 0-.3-.5-2.8 0-4.9.2-1 1.7-7 1.7-7s-.4-.8-.4-2c0-1.9 1.1-3.3 2.5-3.3 1.2 0 1.7.9 1.7 1.9 0 1.2-.8 2.9-1.1 4.6-.3 1.4.7 2.5 2 2.5 2.4 0 4.1-3.1 4.1-6.9 0-2.8-1.9-4.9-5.4-4.9-3.9 0-6.4 2.9-6.4 6.2 0 1.1.3 1.9.9 2.5.2.3.3.4.2.7-.1.2-.2.8-.3 1-.1.3-.4.4-.6.3-1.8-.7-2.6-2.7-2.6-4.9 0-3.7 3.1-8.1 9.2-8.1 4.9 0 8.2 3.6 8.2 7.4 0 5.1-2.8 8.9-7 8.9z"/></svg>