<svg version="1.0" xmlns="http://www.w3.org/2000/svg" viewBox="0 0 60 85"><g id="фоны"><path id="Google" fill="#FFF" d="M0 0h60v85H0z"/></g><g id="иконки"><g id="google_play"><linearGradient id="SVGID_1_" gradientUnits="userSpaceOnUse" x1="-776.518" y1="500.219" x2="-774.021" y2="500.219" gradientTransform="matrix(6.11446 0 0 -6.11446 4768.554 3090.473)"><stop offset=".077" stop-color="#54b06a"/><stop offset=".374" stop-color="#65b362"/></linearGradient><path fill="url(#SVGID_1_)" d="M35.472 33.916l-13.294-7.508c-.659-.373-1.245-.333-1.608.031l11.145 11.22 2.113-1.003c1.099-.619 2.741-2.118 1.644-2.74z"/><linearGradient id="SVGID_2_" gradientUnits="userSpaceOnUse" x1="-776.525" y1="498.341" x2="-774.015" y2="498.341" gradientTransform="matrix(6.11446 0 0 -6.11446 4768.554 3090.473)"><stop offset=".121" stop-color="#df2253"/><stop offset=".451" stop-color="#e63d49"/></linearGradient><path fill="url(#SVGID_2_)" d="M31.687 37.632l2.73 1.714c1.097.621 2.065 1.228.973 2.017l-13.192 7.516c-.709.399-1.316.335-1.672-.108l3.524-4.229 7.637-6.91z"/><g fill="#6E6F70"><path d="M21.506 54.64c.813 0 1.463.578 1.463 1.443s-.65 1.443-1.463 1.443c-.812 0-1.462-.578-1.462-1.443s.65-1.444 1.462-1.444zm.01 2.32c.522 0 .836-.422.836-.883 0-.46-.314-.883-.835-.883-.522 0-.836.423-.836.883s.314.884.836.884zm3.194-2.32c.812 0 1.462.578 1.462 1.443s-.65 1.443-1.462 1.443-1.462-.578-1.462-1.443.65-1.444 1.462-1.444zm.01 2.32c.522 0 .836-.422.836-.883 0-.46-.314-.883-.835-.883s-.836.423-.836.883.314.884.836.884zm6.7-.436a.796.796 0 00.727.442.794.794 0 00.71-.408l.5.346c-.253.39-.692.622-1.207.622-.812 0-1.462-.579-1.462-1.443 0-.865.695-1.503 1.471-1.47 0 0 .896.01 1.227 1.086l-1.966.825zm1.23-1.03c-.085-.19-.271-.32-.537-.32-.511 0-.789.412-.8.868l1.337-.548zm-3.935 1.602c-.241.419-.775.43-.775.43-.813 0-1.462-.579-1.462-1.443s.65-1.444 1.462-1.444c0 0 .481-.008.736.346l.229.19-.19 1.921zm-.792-.126c.505 0 .795-.428.795-.893 0-.464-.29-.892-.795-.892-.504 0-.808.428-.808.892 0 .465.304.893.808.893z"/><path d="M28.675 55.065l.094.472v.58l-.08.606v.682c0 .46-.243.884-.756.884a.836.836 0 01-.78-.522l-.553.24c.219.524.726.847 1.322.847.8 0 1.36-.579 1.36-1.444v-2.709h-.607v.364zm1.065-1.927h.627v4.313h-.627v-4.313zm8.37 0h.627v4.313h-.627v-4.313zM19.782 55.06h-2.07v.603h1.46c-.029.704-.553 1.276-1.498 1.276-.926 0-1.63-.751-1.63-1.678s.704-1.679 1.63-1.679c.43 0 .842.164 1.153.459l.415-.434a2.291 2.291 0 00-1.568-.616 2.28 2.28 0 00-2.288 2.27 2.28 2.28 0 002.288 2.27s2.308.114 2.108-2.47zm24.832-.358h-.708l-.748 1.905-.77-1.905H41.7l1.153 2.616-.671 1.44h.667l1.766-4.056zm-8.221-1.567h-1.236v.002h-.354v4.313h.627v-1.67h.963c.75 0 1.357-.592 1.357-1.322s-.608-1.322-1.357-1.322zm-.043 2.073h-.92v-1.497h.92c.432 0 .783.335.783.748s-.35.749-.783.749zm3.995-.607c-.573 0-.968.27-1.177.66l.572.227c.113-.19.335-.318.613-.318.412 0 .694.274.694.611 0 0-.284-.16-.74-.16-1.223 0-1.186.955-1.186.955 0 1.006 1.074.956 1.074.956.541 0 .835-.451.835-.451v.37h.62v-1.695c0-.638-.529-1.155-1.305-1.155zm.688 1.702c-.157.78-.93.657-.93.657a.395.395 0 01-.331-.288c-.057-.21.058-.403.277-.484 0 0 .478-.17.986.1l-.002.015z"/></g><linearGradient id="SVGID_3_" gradientUnits="userSpaceOnUse" x1="-774.699" y1="499.283" x2="-773.204" y2="499.283" gradientTransform="matrix(6.11446 0 0 -6.11446 4768.554 3090.473)"><stop offset=".077" stop-color="#fcc40d"/><stop offset=".286" stop-color="#fdce0f"/><stop offset=".683" stop-color="#fee40e"/><stop offset=".769" stop-color="#fee90f"/></linearGradient><path fill="url(#SVGID_3_)" d="M40.01 36.475l-4.582-2.578-3.739 3.737 3.7 3.73 4.62-2.633c.136-.077.257-.16.36-.25a1.577 1.577 0 00.306-.349c.346-.56.124-1.21-.664-1.657z"/><linearGradient id="SVGID_4_" gradientUnits="userSpaceOnUse" x1="-775.639" y1="501.114" x2="-775.639" y2="497.461" gradientTransform="matrix(6.11446 0 0 -6.11446 4768.554 3090.473)"><stop offset=".198" stop-color="#48bce8"/><stop offset=".593" stop-color="#61c4e2"/></linearGradient><path fill="url(#SVGID_4_)" d="M20.577 26.433c-.241.242-.385.627-.384 1.131l.022 20.141c0 .448.114.822.31 1.066l11.163-11.14-11.11-11.198z"/><path fill="none" d="M20.186 27.57c-.001-1.26.895-1.783 1.992-1.162l17.826 10.07c1.097.622 1.095 1.637-.003 2.256L22.208 48.88c-1.099.619-1.999.093-2-1.167l-.022-20.141z"/><path fill="#CCC" d="M40.544 36.902c.366.566.178 1.306-.674 1.772L22.077 48.818c-.685.386-1.276.237-1.637-.168.338.534.967.672 1.764.225l17.793-10.144c.893-.478 1.058-1.234.547-1.83z"/></g></g></svg>