<svg version="1.0" xmlns="http://www.w3.org/2000/svg" viewBox="0 0 60 85"><g id="фоны"><path id="Google" fill="#FFF" d="M0 0h60v85H0z"/></g><g id="иконки"><g id="google_podcast" transform="translate(-94.775 4058.59) scale(.96198)"><g id="Group-3" transform="translate(37.32 3.984) scale(1.31592)"><path id="Combined-Shape-6-4" fill="#65696D" d="M59.183-3171.12c0-1.501 1.257-2.717 2.758-2.717.827 0 1.417.326 1.862.75l-.527.523a1.873 1.873 0 00-1.335-.533c-1.092 0-1.946.88-1.946 1.97 0 1.092.854 1.972 1.946 1.972.708 0 1.112-.285 1.37-.543.213-.213.353-.518.404-.932h-1.774v-.74h2.499c.026.135.041.29.041.466 0 .559-.15 1.247-.641 1.733-.482.497-1.092.76-1.9.76-1.5 0-2.757-1.215-2.757-2.71zm7.29-.751c.968 0 1.754.735 1.754 1.748 0 1.009-.786 1.749-1.754 1.749-.967 0-1.754-.74-1.754-1.749 0-1.013.787-1.748 1.754-1.748zm0 2.804c.528 0 .989-.435.989-1.06 0-.632-.461-1.061-.989-1.061-.533 0-.988.43-.988 1.06 0 .626.46 1.06.988 1.06zm3.83-2.804c.967 0 1.753.735 1.753 1.748 0 1.009-.786 1.749-1.754 1.749-.967 0-1.754-.74-1.754-1.749 0-1.013.787-1.748 1.754-1.748zm0 2.804c.527 0 .988-.435.988-1.06 0-.632-.456-1.061-.989-1.061-.533 0-.988.43-.988 1.06 0 .626.46 1.06.988 1.06zm4.698-2.747h.734v3.14c0 1.293-.76 1.82-1.66 1.82-.85 0-1.362-.568-1.553-1.034l.667-.28c.12.285.41.621.88.621.574 0 .932-.357.932-1.024v-.253h-.026c-.171.212-.502.398-.921.398-.875 0-1.677-.765-1.677-1.743 0-.988.802-1.754 1.677-1.754.419 0 .75.186.92.393h.027v-.284zm-.88 2.7c.522 0 .936-.44.931-1.055 0-.616-.409-1.066-.931-1.066-.528 0-.973.45-.973 1.066 0 .61.445 1.055.973 1.055zm2.137.62v-5.136h.766v5.137h-.766zm2.872-.573c.393 0 .662-.192.864-.481l.595.398a1.751 1.751 0 01-1.46.776c-.993 0-1.733-.771-1.733-1.749 0-1.04.75-1.748 1.65-1.748.906 0 1.351.72 1.496 1.112l.078.197-2.339.967c.181.346.455.528.849.528zm-.057-2.131a.96.96 0 00-.916 1.019l1.562-.647c-.082-.223-.341-.372-.646-.372z"/><path id="Podcasts-1-6" fill="#6A6C6F" d="M59.502-3162.966h-.532v-3.93h1.413c.351 0 .655.11.912.332.257.221.385.5.385.837s-.128.616-.385.837c-.257.221-.56.332-.912.332h-.88v1.592zm0-2.075h.892a.707.707 0 00.539-.214.672.672 0 00.203-.472.673.673 0 00-.203-.472.707.707 0 00-.539-.214h-.892v1.372zm2.62-.29c.274-.275.623-.412 1.048-.412.425 0 .774.136 1.048.408.275.273.412.614.412 1.024 0 .41-.137.751-.412 1.024-.274.272-.623.409-1.048.409s-.774-.137-1.048-.41a1.385 1.385 0 01-.411-1.023c0-.41.137-.75.41-1.02zm.394 1.728c.185.176.403.264.654.264s.468-.089.652-.266.275-.413.275-.706-.092-.528-.275-.705c-.184-.178-.4-.266-.652-.266s-.468.088-.651.266c-.184.177-.275.412-.275.705s.09.529.272.708zm3.72.725a1.28 1.28 0 01-.95-.412 1.408 1.408 0 01-.4-1.02c0-.407.133-.747.4-1.022a1.28 1.28 0 01.95-.411c.216 0 .41.043.582.131.171.088.3.198.385.33h.023l-.023-.374v-1.24h.533v3.93h-.51v-.373h-.023a.967.967 0 01-.385.329 1.26 1.26 0 01-.582.132zm.086-.461a.872.872 0 00.64-.264c.176-.176.264-.411.264-.708 0-.296-.088-.532-.264-.708a.872.872 0 00-.64-.263.87.87 0 00-.637.266c-.177.177-.266.412-.266.705s.089.528.266.706a.87.87 0 00.637.266zm3.263.46c-.425 0-.774-.136-1.049-.408a1.385 1.385 0 01-.41-1.024c0-.41.136-.751.41-1.024.275-.272.624-.408 1.049-.408.316 0 .579.073.787.22.209.145.361.33.458.554l-.487.191c-.146-.336-.41-.504-.793-.504a.848.848 0 00-.623.274.954.954 0 00-.269.697c0 .282.09.514.27.697a.845.845 0 00.622.275c.398 0 .672-.169.822-.505l.475.192c-.096.22-.252.403-.466.551-.214.149-.48.223-.796.223zm2.527 0a1.16 1.16 0 01-.756-.246.8.8 0 01-.304-.654c0-.292.12-.522.359-.688.24-.167.535-.25.886-.25.313 0 .57.055.77.165v-.077a.586.586 0 00-.214-.475.796.796 0 00-.527-.178.851.851 0 00-.42.104.547.547 0 00-.258.285l-.486-.197c.065-.161.195-.31.388-.448.193-.137.448-.205.764-.205.363 0 .664.1.904.301.24.202.359.485.359.851v1.625h-.51v-.373h-.023c-.212.307-.523.46-.932.46zm.086-.46c.22 0 .42-.078.6-.234.18-.155.27-.34.27-.551-.151-.117-.377-.176-.678-.176-.26 0-.454.053-.585.16a.465.465 0 00-.197.372c0 .132.06.237.18.313a.74.74 0 00.41.116zm2.938.46c-.316 0-.578-.072-.784-.219a1.312 1.312 0 01-.455-.549l.475-.186c.15.336.407.505.77.505.166 0 .302-.035.409-.105s.159-.16.159-.274c0-.176-.13-.295-.388-.357l-.574-.132a1.396 1.396 0 01-.515-.25.59.59 0 01-.243-.496c0-.238.11-.431.333-.58a1.39 1.39 0 01.79-.221c.251 0 .475.054.672.161s.338.263.423.464l-.463.181c-.105-.238-.32-.356-.65-.356a.792.792 0 00-.399.093c-.108.062-.162.146-.162.252 0 .154.126.258.377.313l.561.126c.267.059.464.16.591.302a.706.706 0 01.191.483.735.735 0 01-.313.604c-.208.161-.476.242-.805.242zm2.713-.043c-.298 0-.525-.075-.681-.225-.156-.15-.235-.363-.235-.637v-1.41h-.498v-.462h.498v-.823h.533v.823h.695v.461h-.695v1.372c0 .293.128.44.383.44a.596.596 0 00.243-.044l.185.433a1.13 1.13 0 01-.428.072zm1.866.044c-.317 0-.578-.073-.785-.22a1.312 1.312 0 01-.454-.549l.475-.186c.15.336.407.505.77.505.166 0 .302-.035.408-.105s.16-.16.16-.274c0-.176-.13-.295-.389-.357l-.573-.132c-.181-.044-.353-.127-.515-.25s-.244-.288-.244-.496c0-.238.111-.431.333-.58a1.39 1.39 0 01.79-.221c.252 0 .476.054.673.161a.928.928 0 01.422.464l-.463.181c-.104-.238-.32-.356-.649-.356a.792.792 0 00-.4.093c-.107.062-.161.146-.161.252 0 .154.125.258.376.313l.562.126c.266.059.463.16.59.302a.706.706 0 01.192.483.735.735 0 01-.313.604c-.208.161-.477.242-.805.242z"/></g><g id="Podcast_icon_final-3-3" transform="translate(6248.497 -3091.111) scale(34.56672)"><g id="_logo_Podcasts_192px-8-8"><path id="Shape-8-0" fill="#FAB908" d="M-177.067-31.547v.083h.068v-.198h-.068v.082z"/><circle id="Oval-0-6" fill="#0066D9" cx="-177.271" cy="-31.582" r=".034"/><circle id="ellipse9-9-0" fill="#0066D9" cx="-177.271" cy="-31.545" r=".034"/><path id="Rectangle-path-8-8" fill="#0066D9" d="M-177.305-31.582h.068v.037h-.068z"/><circle id="ellipse12-0-7" fill="#4285F4" cx="-176.795" cy="-31.545" r=".034"/><circle id="ellipse14-0-7" fill="#4285F4" cx="-176.795" cy="-31.582" r=".034"/><path id="rect16-5-6" fill="#4285F4" d="M-176.829-31.582h.068v.037h-.068z"/><circle id="ellipse18-2-4" fill="#EA4335" cx="-177.153" cy="-31.47" r=".034"/><circle id="ellipse20-8-2" fill="#EA4335" cx="-177.153" cy="-31.433" r=".034"/><path id="rect22-6-8" fill="#EA4335" d="M-177.187-31.47h.068v.037h-.068z"/><circle id="ellipse24-4-8" fill="#EA4335" cx="-177.153" cy="-31.693" r=".034"/><circle id="ellipse26-3-3" fill="#EA4335" cx="-177.153" cy="-31.572" r=".034"/><path id="rect28-2-7" fill="#EA4335" d="M-177.187-31.693h.068v.121h-.068z"/><circle id="ellipse30-7-4" fill="#34A853" cx="-176.912" cy="-31.656" r=".034"/><circle id="ellipse32-9-8" fill="#34A853" cx="-176.912" cy="-31.693" r=".034"/><path id="rect34-0-0" fill="#34A853" d="M-176.946-31.693h.068v.037h-.068z"/><circle id="ellipse36-4-8" fill="#FAB908" cx="-177.033" cy="-31.764" r=".034"/><circle id="ellipse38-1-4" fill="#FAB908" cx="-177.033" cy="-31.801" r=".034"/><path id="rect40-9-5" fill="#FAB908" d="M-177.067-31.801h.068v.037h-.068z"/><circle id="ellipse42-1-4" fill="#FAB908" cx="-177.033" cy="-31.325" r=".034"/><circle id="ellipse44-5-0" fill="#FAB908" cx="-177.033" cy="-31.362" r=".034"/><path id="rect46-3-8" fill="#FAB908" d="M-177.067-31.362h.068v.037h-.068z"/><circle id="ellipse48-2-1" fill="#34A853" cx="-176.912" cy="-31.433" r=".034"/><circle id="ellipse50-8-8" fill="#34A853" cx="-176.912" cy="-31.554" r=".034"/><path id="rect52-3-8" fill="#34A853" d="M-176.946-31.554h.068v.12h-.068z"/><circle id="ellipse54-7-8" fill="#FAB908" cx="-177.033" cy="-31.662" r=".034"/><circle id="ellipse56-5-8" fill="#FAB908" cx="-177.033" cy="-31.464" r=".034"/></g></g></g></g></svg>