<svg version="1.0" xmlns="http://www.w3.org/2000/svg" viewBox="0 0 60 85"><g id="фоны"><linearGradient id="Apple_1_" gradientUnits="userSpaceOnUse" x1="4.127" y1="23.32" x2="52.327" y2="59.051"><stop offset="0" stop-color="#fff"/><stop offset="1" stop-color="#d1d1d1"/></linearGradient><path id="Apple" fill-rule="evenodd" clip-rule="evenodd" fill="url(#Apple_1_)" d="M0 0h60v85H0z"/></g><g id="иконки"><g id="apple_podcast_1_"><path fill="#3C4043" d="M12.427 51.312h-1.542l-.37 1.093h-.653l1.46-4.044h.679l1.46 4.044h-.664l-.37-1.093zm-1.382-.504h1.222l-.603-1.775h-.016l-.603 1.775zm5.643.123c0 .917-.49 1.505-1.23 1.505-.421 0-.754-.188-.928-.516h-.014v1.46h-.606v-3.924h.586v.49h.01c.169-.316.528-.52.94-.52.749 0 1.242.591 1.242 1.505zm-.622 0c0-.597-.308-.99-.78-.99-.462 0-.773.401-.773.99 0 .594.311.993.774.993.47 0 .779-.39.779-.993zm3.89 0c0 .917-.49 1.505-1.23 1.505-.42 0-.754-.188-.928-.516h-.014v1.46h-.605v-3.924h.586v.49h.01c.169-.316.528-.52.94-.52.748 0 1.242.591 1.242 1.505zm-.622 0c0-.597-.308-.99-.779-.99-.462 0-.774.401-.774.99 0 .594.312.993.774.993.47 0 .78-.39.78-.993zm1.135-2.57h.606v4.044h-.606v-4.044zm3.881 3.178c-.081.536-.603.903-1.27.903-.857 0-1.39-.575-1.39-1.497 0-.925.536-1.525 1.365-1.525.816 0 1.328.56 1.328 1.455v.207h-2.082v.037c0 .504.316.835.793.835.336 0 .6-.16.68-.415h.576zm-2.046-.88h1.474c-.014-.451-.302-.748-.723-.748-.418 0-.72.302-.751.748zm5.53-2.298c.786 0 1.332.54 1.332 1.328 0 .79-.557 1.334-1.35 1.334h-.87v1.382h-.628V48.36h1.517zm-.888 2.135h.72c.547 0 .858-.294.858-.804s-.31-.802-.854-.802h-.723v1.606zm2.504.435c0-.928.547-1.511 1.399-1.511.855 0 1.398.583 1.398 1.511 0 .93-.54 1.511-1.398 1.511-.858 0-1.399-.58-1.399-1.51zm2.18 0c0-.636-.29-1.012-.781-1.012-.49 0-.782.379-.782 1.012 0 .639.291 1.012.782 1.012s.782-.373.782-1.012zm1.037 0c0-.91.501-1.505 1.233-1.505.423 0 .757.196.925.521h.01v-1.586h.609v4.044h-.589v-.501h-.01c-.175.336-.511.532-.94.532-.737 0-1.238-.594-1.238-1.505zm.619 0c0 .606.308.993.78.993.464 0 .775-.393.775-.993 0-.594-.311-.99-.776-.99-.47 0-.78.39-.78.99zm4.785-.46c-.053-.311-.297-.544-.695-.544-.465 0-.773.39-.773 1.004 0 .628.31 1.006.779 1.006.376 0 .622-.188.69-.53h.582c-.067.62-.563 1.035-1.278 1.035-.84 0-1.39-.575-1.39-1.511 0-.917.55-1.511 1.385-1.511.757 0 1.227.476 1.278 1.05h-.578v.001zm.966 1.09c0-.515.396-.818 1.13-.863l.785-.044v-.225c0-.333-.221-.512-.606-.512-.317 0-.55.162-.597.414h-.566c.017-.527.51-.91 1.18-.91.723 0 1.191.378 1.191.964v2.02h-.58v-.484h-.014c-.165.317-.533.527-.93.527-.586 0-.993-.363-.993-.886zm1.915-.26v-.227l-.707.045c-.392.022-.6.173-.6.428 0 .247.216.421.553.421.429 0 .754-.286.754-.667zm2.373-1.878c.652 0 1.12.361 1.135.882h-.57c-.025-.26-.246-.42-.582-.42-.328 0-.547.151-.547.381 0 .177.146.295.451.37l.496.115c.595.143.819.361.819.793 0 .533-.505.897-1.225.897-.695 0-1.163-.356-1.208-.894h.6c.042.283.27.434.636.434.362 0 .59-.149.59-.384 0-.182-.113-.28-.421-.359l-.527-.129c-.533-.129-.802-.4-.802-.81 0-.52.468-.876 1.155-.876zm2.541-.664v.697h.56v.48h-.56v1.626c0 .252.112.37.359.37.062 0 .16-.01.199-.015v.477a1.659 1.659 0 01-.336.028c-.597 0-.83-.225-.83-.796v-1.69h-.43v-.48h.43v-.697h.608zm2.185.664c.653 0 1.12.361 1.135.882h-.57c-.025-.26-.246-.42-.582-.42-.328 0-.547.151-.547.381 0 .177.146.295.451.37l.496.115c.594.143.819.361.819.793 0 .533-.505.897-1.225.897-.695 0-1.163-.356-1.208-.894h.6c.042.283.27.434.636.434.362 0 .59-.149.59-.384 0-.182-.113-.28-.421-.359l-.527-.129c-.533-.129-.802-.4-.802-.81 0-.52.467-.876 1.155-.876z"/><linearGradient id="SVGID_1_" gradientUnits="userSpaceOnUse" x1="-241.007" y1="-235.164" x2="-240.868" y2="-235.164" gradientTransform="rotate(90 -22047.131 299.571) scale(92.6031)"><stop offset="0" stop-color="#f452ff"/><stop offset="1" stop-color="#832bc1"/></linearGradient><path fill="url(#SVGID_1_)" d="M35.456 39.818a2.713 2.713 0 01-1.721 1.544c-.411.121-.918.163-1.548.163h-5.764c-.63 0-1.137-.042-1.548-.163a2.703 2.703 0 01-1.721-1.544c-.251-.638-.254-1.36-.254-1.816v-5.764c0-.456.002-1.179.253-1.816a2.713 2.713 0 011.721-1.544c.412-.122.918-.163 1.548-.163h5.764c.63 0 1.137.041 1.548.163a2.703 2.703 0 011.721 1.544c.251.637.254 1.36.254 1.816v5.764c0 .455-.002 1.178-.253 1.816z"/><path fill="none" d="M35.652 37.528a2.713 2.713 0 01-1.721 1.544c-.412.121-.918.163-1.548.163h-5.765c-.63 0-1.136-.042-1.547-.163a2.703 2.703 0 01-1.722-1.544c-.25-.638-.254-1.36-.254-1.816v-5.764c0-.456.003-1.179.254-1.816a2.713 2.713 0 011.721-1.544c.411-.122.918-.163 1.548-.163h5.764c.63 0 1.137.041 1.548.163a2.703 2.703 0 011.721 1.544c.25.637.254 1.36.254 1.816v5.764c0 .455-.003 1.178-.253 1.816z"/><path fill="#FFF" d="M30.233 36.078c-.192-.203-.53-.333-.928-.333s-.736.13-.928.333a.59.59 0 00-.17.369c-.033.299-.014.557.02.969.034.392.097.916.18 1.45.059.379.107.584.15.73.07.238.335.446.748.446s.677-.208.748-.446c.043-.146.091-.35.15-.73a21.99 21.99 0 00.18-1.45c.035-.412.053-.67.02-.97a.586.586 0 00-.17-.368zm-1.975-1.806a1.048 1.048 0 102.097 0 1.048 1.048 0 00-2.097 0zm1.035-4.137a4.515 4.515 0 00-4.49 4.447 4.511 4.511 0 003.013 4.307.06.06 0 00.08-.066 22.738 22.738 0 01-.065-.461.154.154 0 00-.091-.122 3.934 3.934 0 01-2.361-3.64 3.939 3.939 0 013.895-3.889 3.933 3.933 0 013.961 3.928 3.934 3.934 0 01-2.361 3.602.155.155 0 00-.091.121c-.02.154-.042.308-.066.461a.06.06 0 00.08.066 4.512 4.512 0 003.014-4.25 4.51 4.51 0 00-4.518-4.504zm-.081 2.066a2.444 2.444 0 012.538 2.44c0 .674-.28 1.318-.772 1.778a.189.189 0 00-.06.147c.01.167.007.33-.004.514a.06.06 0 00.092.053 3.017 3.017 0 00-1.817-5.508A3.025 3.025 0 0026.29 34.6a3.018 3.018 0 001.319 2.532.059.059 0 00.092-.052 4.227 4.227 0 01-.005-.515.186.186 0 00-.06-.147 2.432 2.432 0 01-.77-1.844 2.45 2.45 0 012.345-2.374z"/></g></g></svg>