<svg version="1.0" xmlns="http://www.w3.org/2000/svg" viewBox="0 0 60 85"><g id="Направляющие"><path id="Quora" fill="#B92B27" d="M0 0h60v85H0z"/></g><g id="Слой_2"><path fill="#FFF" d="M20.3 45.4h.6s0 2.4-2.1 2.3c0 0-1.4.2-2.4-1.6 0 0-1.9.5-3.2-.1-1.3-.6-3-1.7-3-4.6 0-2.9 2.3-4.9 4.8-4.9s3.8 1.4 4.3 2.4.9 2 .6 3.6c-.4 1.6-1.4 2.5-1.7 2.7 0 0 .4 1 1.2 1 .7 0 .9-.8.9-.8z"/><path fill="#B92B27" d="M13.6 43.8s.5-.2.9-.1c.3.1.9.4 1.5 1.6 0 0-1.8.5-2.6-.4s-1.1-2.3-1-3.6c.1-1.3.4-3.9 2.6-3.9s2.6 1.6 2.6 1.6.4 1.1.4 2.6c-.1 1.5-.2 2.1-.4 2.4 0 0-.8-1.4-2.3-1.3s-1.8.6-1.8.6l.1.5"/><path fill="#FFF" d="M20.5 39.7V39h2.9v5s.1.9 1.1.9 1.4-.7 1.4-.7v-4s.1-.5-.5-.5h-.6V39h3v5.3s0 .5.8.5v.8L26 46v-1s-.8 1.1-2.4 1.1-2.1-1.2-2.1-2V40s.1-.3-.6-.3h-.4zm12.1 6.4s3.7 0 3.7-3.7-3.7-3.7-3.7-3.7-3.8.1-3.7 3.7c.2 3.6 3.7 3.7 3.7 3.7z"/><path fill="#B92B27" d="M32.6 45.4s1.4.1 1.5-2c.1-2.1 0-3.8-1.4-3.8S31 40.9 31 42.5c.1 1.6.4 2.8 1.6 2.9z"/><path fill="#FFF" d="M36.4 39.7v-.8h2.7l.1 1.4s.6-1.6 1.8-1.6c1.2 0 1.3.8 1.3.8s.3 1.4-.8 1.3c-1.1 0-1.2-.4-1.2-.4s-.3-.2-.7.2c-.4.4-.3 1-.3 1v3s0 .5.6.5h.7v.8h-4.2v-.8h.6s.5 0 .5-.5V40s0-.4-.5-.4-.6.1-.6.1zm13.4 5.5l-.2-.5s-1 .3-1-.4v-3.7s0-1.9-2.6-1.9-3 .9-3.1 1.2-.2 1 .5 1.1c.7.1.9 0 1.2-.6.3-.6.4-.9 1.1-.9s.9.5.9.8v.8s-.4.6-1.3.9-2.8.7-2.7 2.1c.1 1.4.8 1.9 1.5 1.9.8 0 1.9.1 2.6-1.2 0 0 .1 1 1.1 1.1 1 .1 1.4 0 2-.7z"/><path fill="#B92B27" d="M46.7 43.6s-.3 1.3-.9 1.3c-.6 0-1.1.1-1.2-.7 0 0-.1-.8.4-1.1s1.6-.8 1.7-.9"/></g></svg>