<svg version="1.2" baseProfile="tiny" xmlns="http://www.w3.org/2000/svg" viewBox="0 0 60 85" overflow="visible"><g id="фоны"><path id="coub" fill="#0332FF" d="M0 0h60v85H0z"/></g><g id="иконки"><g id="plus" fill="#FFF"><path d="M37.618 41.225h-6.49v-6.489h-2.264v6.49h-6.49v2.265h6.49v6.49h2.265v-6.49h6.49z"/><path d="M30 26.125c-9.03 0-16.375 7.346-16.375 16.375S20.971 58.875 30 58.875 46.375 51.529 46.375 42.5 39.029 26.125 30 26.125zm.983 30.748h-1.966 1.966-1.966c-7.163-.486-12.905-6.227-13.39-13.39v-1.965c.485-7.164 6.227-12.906 13.39-13.39h1.966-1.966 1.966c7.163.484 12.904 6.226 13.39 13.39v1.964c-.486 7.164-6.227 12.905-13.39 13.391z"/></g></g></svg>