<svg version="1.0" id="Направляющие" xmlns="http://www.w3.org/2000/svg" x="0" y="0" viewBox="0 0 60 85" xml:space="preserve"><path id="reddit" fill="#FF4500" d="M0 0h60v85H0z"/><g id="Group_54" transform="translate(2318 -61)"><g id="Group_53" transform="translate(334 460)"><g id="Group_52" transform="translate(-4.675 -103)"><ellipse id="Ellipse_37" fill="#FFF" cx="-2617.4" cy="-249.4" rx="13.7" ry="9.1"/><path id="Path_148" fill="#FF4500" d="M-2622-253.3c1.2 0 2.1 1 2.1 2.1s-1 2.1-2.1 2.1-2.1-1-2.1-2.1.9-2.1 2.1-2.1z"/><path id="Path_147" fill="#FF4500" d="M-2612.4-253.3c1.2 0 2.1 1 2.1 2.1s-1 2.1-2.1 2.1-2.1-1-2.1-2.1.9-2.1 2.1-2.1z"/><g id="Ellipse_40" transform="rotate(-42 782.034 94.443)" fill="none"><circle cx="-1520.2" cy="-2447" r="3.6"/><circle stroke="#FFF" stroke-width="3" cx="-1520.2" cy="-2447" r="3"/></g><g id="Ellipse_41" transform="rotate(-42 815.534 7.172)" fill="none"><circle cx="-1552.3" cy="-2475.8" r="3.6"/><circle stroke="#FFF" stroke-width="3" cx="-1552.3" cy="-2475.8" r="3"/></g><path id="Path_145" fill="none" stroke="#FF4500" stroke-width="3" d="M-2622.2-245.4s2.5 1.9 5.4 1.7c1.7-.1 3.3-.7 4.6-1.7"/><g id="Ellipse_42" transform="translate(208 513)"><circle fill="#FF4500" cx="-2814.5" cy="-776.4" r="2.8"/><circle fill="none" stroke="#FFF" stroke-width="3" cx="-2814.5" cy="-776.4" r="2.3"/></g><path id="Path_146" fill="none" stroke="#FFF" stroke-width="3" d="M-2617.7-257.5s2.7-7.7 2.8-7.7c.1 0 5.6 1.3 5.6 1.3"/></g></g><ellipse id="Ellipse_43" transform="rotate(-65.996 -2293.036 111.56)" fill="#FF4500" cx="-2293" cy="111.6" rx=".5" ry=".7"/><ellipse id="Ellipse_44" transform="rotate(-38.993 -2283.002 111.678)" fill="#FF4500" cx="-2283" cy="111.7" rx=".7" ry=".5"/></g></svg>