<svg version="1.2" baseProfile="tiny" xmlns="http://www.w3.org/2000/svg" viewBox="0 0 60 85" overflow="visible"><g id="фоны"><path id="rottentomatoes" fill="#F3F3F3" d="M0 0h60v85H0z"/></g><g id="лого"><g id="Rotten_Tomatoes" fill="#F93208"><path d="M16.028 38.052l-.46-.006v-5.803h1.387c1.495 0 1.621.007 1.987.113.592.172 1.044.544 1.293 1.066.121.253.169.456.181.773.029.716-.275 1.338-.813 1.667-.161.098-.168.106-.142.148.07.112 1.188 2.037 1.188 2.047 0 .006-.426.01-.948.01h-.948l-.55-.926c-.303-.51-.562-.943-.576-.962-.02-.027-.069-.039-.193-.047l-.166-.012.01.974.01.973-.4-.004-.86-.011zm2.046-3.237c.388-.082.587-.268.609-.57.015-.212-.035-.356-.17-.486-.178-.174-.426-.234-.97-.235h-.287l.013.189c.008.104.014.407.014.674v.485l.325-.014c.179-.007.389-.027.466-.043z"/><path d="M22.499 38.15a2.126 2.126 0 01-1.328-.67 2.383 2.383 0 01-.66-1.594 2.175 2.175 0 01.091-.802c.299-.947 1.145-1.51 2.334-1.555.203-.007.382-.002.506.015 1.02.138 1.77.85 1.994 1.889.048.22.047.724 0 .933-.197.864-.805 1.461-1.72 1.69-.361.09-.89.13-1.218.093zm.56-.691c.201-.06.284-.17.282-.372a.75.75 0 00-.035-.212c-.096-.254-.095-.25-.072-.302a.17.17 0 01.073-.072c.066-.03.105-.005.195.128.127.188.356.402.504.471.12.056.153.063.278.056a.381.381 0 00.256-.087c.131-.09.167-.164.166-.344-.002-.18-.095-.329-.281-.447a1.46 1.46 0 00-.533-.162c-.224-.022-.304-.058-.332-.154-.028-.093.001-.17.09-.236.046-.033.101-.045.269-.054a.844.844 0 00.275-.047c.293-.155.312-.657.032-.851-.078-.055-.107-.062-.227-.062-.277.002-.464.183-.552.535a.295.295 0 01-.062.104c-.056.06-.162.07-.255.022-.094-.048-.106-.154-.052-.457.067-.378.03-.536-.147-.64a.62.62 0 00-.433-.05.521.521 0 00-.274.281c-.063.213-.013.349.223.596.1.104.186.209.194.232.034.107-.095.23-.214.203-.067-.015-.132-.08-.236-.241-.168-.258-.403-.34-.635-.223-.199.102-.25.331-.118.527.076.114.214.19.426.235.307.066.394.133.31.24-.043.054-.047.055-.19.04-.216-.024-.3-.015-.42.043a.347.347 0 00-.213.263c-.068.27.122.51.405.51.149-.001.262-.063.45-.245.21-.203.247-.224.314-.18.074.049.083.12.032.252-.114.3-.008.612.238.7.104.037.144.037.27 0zm4.716.608c-.775-.05-1.195-.265-1.426-.733-.16-.324-.198-.596-.218-1.564l-.013-.656h-.108a1.81 1.81 0 01-.205-.013l-.095-.013v-1.42h.433v-1.24h1.694v1.24h.702v1.467h-.702v.656c0 .613.003.66.04.721.071.116.126.13.496.13h.332v1.446l-.346-.003c-.19-.001-.453-.01-.584-.018zm3.144-.021c-.896-.087-1.305-.448-1.441-1.271-.024-.146-.038-.41-.047-.92a9.134 9.134 0 00-.03-.734.81.81 0 00-.212-.024l-.195-.007v-1.442h.46l-.016-.62-.015-.62h1.699v1.26h.702v1.446h-.705l.007.666c.005.604.01.672.043.722.081.119.12.13.484.137l.336.007v1.422l-.45-.003a9.642 9.642 0 01-.62-.02zm3.43-.888c-.71-.09-1.37-.445-1.695-.914a2.563 2.563 0 01-.462-1.481c-.001-.778.338-1.405.996-1.843.412-.275.73-.364 1.352-.381.316-.01.4-.005.568.03.329.068.615.203.853.402.213.178.45.529.57.842.145.375.226.976.175 1.286l-.013.077h-1.495c-.822 0-1.495.008-1.495.017 0 .01.036.073.08.14.19.295.494.442.911.442.312 0 .607-.083.818-.228l.085-.059.473.445.501.471c.043.042.004.095-.18.242a2.463 2.463 0 01-1.052.472c-.231.049-.753.07-.99.04zm.874-2.874a.613.613 0 00-.372-.474.913.913 0 00-.778.024.752.752 0 00-.357.458l-.013.056.17.007c.094.004.44.009.768.011l.596.004-.014-.086zm1.868 1.574v-2.231h1.673v.31c0 .17.007.31.015.31a.705.705 0 00.119-.126 1.83 1.83 0 01.766-.536c.87-.301 1.8.376 1.929 1.407.013.106.021.735.021 1.624v1.452h-1.693v-2.636l-.055-.11a.532.532 0 00-.493-.289c-.25-.002-.436.15-.533.437-.043.126-.045.167-.051 1.374l-.007 1.244h-1.691v-2.23zm.6 7.497c-.503-.07-.987-.29-1.309-.597-.398-.378-.634-.966-.634-1.58 0-.641.291-1.208.84-1.637.096-.075.171-.139.167-.143a4.004 4.004 0 00-.353.016 2.64 2.64 0 01-.356.011c-.02-.02.11-.193.2-.263a.726.726 0 01.63-.141c.165.041.159 0-.03-.206l-.168-.185.112-.095c.061-.052.116-.095.121-.095.006 0 .077.107.16.237.082.131.156.243.166.249.009.005.05-.04.092-.103.177-.268.43-.389.672-.322.162.046.162.055 0 .257-.08.1-.146.184-.146.186s.166 0 .37-.005c.712-.017 1.187.092 1.586.364.137.093.338.297.438.445.078.114.291.553.341.702.107.32.124.889.035 1.222-.063.235-.224.55-.383.747-.359.446-.943.776-1.602.905a4.49 4.49 0 01-.949.031zm5.431.06a2.866 2.866 0 01-1.228-.448c-.43-.28-.753-.802-.892-1.44a3.114 3.114 0 01-.029-.838c.107-.73.552-1.316 1.277-1.681.138-.07.255-.11.442-.15.232-.051.294-.056.689-.056.387 0 .452.005.609.047.734.198 1.239.777 1.428 1.635.04.18.048.279.048.579v.361l-1.502.01-1.502.01.063.112c.18.314.5.478.94.478.308 0 .64-.096.828-.24l.068-.05.507.478.508.48-.079.08c-.455.469-1.37.736-2.175.634zm.88-2.853c-.044-.28-.263-.48-.586-.536-.419-.071-.834.174-.924.545-.014.056-.014.056.117.063.072.004.418.01.769.012l.638.004-.014-.088zm3.2 2.876a3.846 3.846 0 01-.752-.169c-.288-.102-.725-.336-.725-.389 0-.017.603-1.079.633-1.113a2.38 2.38 0 01.291.137c.428.22.625.278.924.276.241-.002.396-.043.47-.125.103-.115.056-.281-.093-.329a2.374 2.374 0 00-.387-.019 2.182 2.182 0 01-.467-.031c-.586-.131-1.043-.51-1.23-1.016-.037-.1-.046-.17-.047-.372l-.001-.248.088-.185a1.924 1.924 0 011.364-1.047c.166-.035.254-.04.52-.032.345.01.55.047.869.155.326.112.771.321.769.362 0 .01-.13.235-.287.501-.22.372-.294.481-.318.47a7.857 7.857 0 00-.775-.246 2.346 2.346 0 00-.372-.037c-.22-.003-.284.018-.366.119-.056.069-.047.202.017.262.051.048.067.05.377.056.768.013 1.248.18 1.588.55.203.222.309.475.33.788.029.444-.13.83-.475 1.16-.237.225-.332.282-.642.39-.338.117-.917.175-1.304.132zm-12.73-.144a4.202 4.202 0 01-.62-.084c-.622-.158-.921-.514-1.038-1.235-.016-.098-.027-.355-.04-.885l-.016-.747-.096-.009a2.731 2.731 0 00-.209-.009h-.113v-1.446h.451l-.007-.522c-.003-.287-.01-.567-.013-.62l-.006-.1h1.707v1.257h.701v1.46h-.7v.625c0 .39.005.645.015.68a.324.324 0 00.155.18c.035.014.133.02.376.02h.33v1.446l-.391-.003a21.37 21.37 0 01-.486-.008zm-5.733.142c-.348-.051-.698-.244-1.034-.568a1.968 1.968 0 01-.441-.593 2.23 2.23 0 01-.252-1.038 2.8 2.8 0 01.158-1.066c.128-.371.255-.585.48-.81.485-.484 1.068-.676 1.623-.535.322.082.584.235.865.505l.128.122v-.544h1.592v4.41h-1.592v-.277c0-.153-.005-.277-.01-.277s-.07.06-.144.135c-.405.407-.91.605-1.373.537zm1.014-1.623c.332-.163.522-.64.401-1.006a.73.73 0 00-.474-.444.69.69 0 00-.58.03.733.733 0 00-.412.685c0 .222.073.401.227.555.23.23.582.306.838.18zm-4.838 1.212c-.005-.17-.01-.652-.01-1.07a42.844 42.844 0 00-.012-1.038c-.01-.316-.024-.362-.138-.476a.534.534 0 00-.542-.115c-.158.06-.277.218-.314.415-.01.058-.016.491-.016 1.325v1.239h-.847c-.466 0-.848-.002-.85-.004a151.57 151.57 0 01-.01-1.318l-.009-1.315-.05-.091a.535.535 0 00-.238-.233c-.068-.036-.092-.04-.216-.04-.116 0-.148.005-.201.033-.139.074-.243.232-.292.441-.023.1-.025.21-.02 1.325l.005 1.216h-1.692l-.01-1.317c-.005-.724-.01-1.726-.01-2.227v-.91h1.679l.004.208c.004.178.008.208.028.212.014.003.077-.048.153-.124.155-.153.29-.234.523-.314a1.614 1.614 0 011.734.415l.126.129.04-.068c.186-.317.709-.546 1.249-.546.447 0 .847.152 1.13.43.293.29.468.733.497 1.257.004.08.012.759.016 1.508l.009 1.362h-1.706l-.01-.31zm-8.774.36a2.09 2.09 0 01-.882-.34c-.666-.44-1.078-1.284-1.04-2.128.047-1.035.71-1.814 1.756-2.06.457-.108.978-.124 1.38-.042a2.308 2.308 0 011.614 1.284c.302.643.312 1.378.027 1.992-.321.691-.982 1.139-1.89 1.28-.215.033-.797.042-.964.014zm.754-1.577a.826.826 0 00.576-.434c.057-.114.059-.122.059-.266 0-.172-.027-.3-.089-.425-.21-.429-.735-.597-1.179-.379a.878.878 0 00-.445.595c-.064.375.219.82.588.926.08.023.34.014.49-.017z"/><path d="M11.6 41.216v-2.103h-1.533v-1.64l2.318.011c1.275.006 2.324.014 2.33.018.006.003.01.364.01.801v.796h-1.489v4.22H11.6v-2.103z"/></g></g></svg>