<svg version="1.0" id="Направляющие" xmlns="http://www.w3.org/2000/svg" x="0" y="0" viewBox="0 0 60 85" xml:space="preserve"><path id="canvas_background" fill="#08F" d="M0 0h60v85H0z"/><g id="svg_6" fill="#FFF"><path id="svg_4" d="M34.1 33.3c6.5-.1 11.3 5.7 10.8 11.8-.2 2.5-1.1 4.7-2.8 6.5-2.1 2.2-4.2 4.3-6.4 6.5-.7.6-1.7.9-2.7.4s-1.6-1.2-1.7-2.3c-.1-.7.1-1.3.6-1.8 1.4-1.5 2.9-3 4.3-4.5.7-.7 1.4-1.5 2.1-2.3 1.5-1.8 1.7-3.8.7-5.8-1-2.2-2.8-3.2-5.2-3.1-1.3 0-2.4.5-3.4 1.5-.9.9-1.8 1.8-2.8 2.7-.9.8-2.1.9-3.1.3-1-.6-1.5-1.9-1.2-3 .1-.3.2-.5.4-.8 1.3-1.6 2.7-3.1 4.5-4.3 1.8-1.3 3.8-1.9 5.9-1.8z"/><path id="svg_5" d="M25.8 51.7c-6.3 0-11.2-5.7-10.7-11.8.2-2.4 1-4.5 2.6-6.3 2-2.2 4.2-4.3 6.2-6.4.2-.2.5-.4.8-.6 1-.6 2.1-.5 3.1.3.8.7 1.2 2 .8 3-.2.4-.5.7-.8 1-1.8 1.9-3.6 3.7-5.4 5.6-.7.7-1.4 1.5-1.7 2.6-1.1 3.4 1.5 7.4 5.5 7.2 1.3-.1 2.4-.5 3.4-1.4.9-.9 1.8-1.8 2.8-2.7.9-.8 2-.9 3-.4 1 .6 1.6 1.7 1.3 2.9-.1.4-.2.8-.5 1-1.3 1.6-2.7 3.1-4.5 4.3-1.8 1.2-3.8 1.7-5.9 1.7z"/></g></svg>