<svg version="1.0" xmlns="http://www.w3.org/2000/svg" viewBox="0 0 60 85"><g id="фоны"><path id="snapchat" fill="#FFFC00" d="M0 0h60v85H0z"/></g><g id="лого"><g id="snapchat_1_"><path fill="#FFF" d="M30.202 57.492c-.091 0-.178-.004-.243-.007a1.874 1.874 0 01-.16.007c-1.905 0-3.178-.9-4.302-1.695-.805-.57-1.564-1.106-2.454-1.254a7.925 7.925 0 00-1.292-.11c-.757 0-1.355.118-1.792.203-.268.052-.5.097-.68.097-.187 0-.415-.041-.51-.365a10.638 10.638 0 01-.181-.743c-.13-.596-.225-.96-.448-.995-2.389-.368-3.8-.911-4.08-1.568a.61.61 0 01-.05-.208.383.383 0 01.32-.4c1.897-.312 3.583-1.314 5.013-2.98a11.257 11.257 0 001.71-2.658.241.241 0 01.008-.019c.276-.559.33-1.042.164-1.435-.308-.726-1.327-1.05-2.001-1.263a7.201 7.201 0 01-.453-.154c-.598-.236-1.581-.735-1.45-1.423.095-.503.76-.852 1.296-.852.15 0 .281.026.393.078.606.284 1.152.428 1.62.428.585 0 .866-.222.935-.285-.017-.311-.038-.64-.058-.952v-.004c-.137-2.179-.308-4.89.386-6.446 2.076-4.655 6.479-5.017 7.778-5.017a331.943 331.943 0 00.644-.006c1.303 0 5.715.362 7.793 5.02.693 1.556.522 4.27.385 6.452l-.007.104c-.018.297-.036.577-.05.849.064.059.322.262.846.283.448-.017.962-.16 1.528-.426a1.21 1.21 0 01.5-.099c.2 0 .401.039.57.11l.01.003c.48.17.794.511.8.869.007.334-.241.833-1.46 1.314a7.4 7.4 0 01-.454.154c-.674.214-1.693.537-2 1.262-.168.394-.113.877.163 1.436l.009.019c.084.199 2.139 4.883 6.722 5.638a.384.384 0 01.32.4.615.615 0 01-.05.209c-.279.654-1.69 1.196-4.08 1.565-.223.034-.318.397-.447.99a10.45 10.45 0 01-.182.738c-.07.237-.224.353-.473.353h-.037c-.162 0-.39-.03-.68-.086a8.944 8.944 0 00-1.791-.19c-.42 0-.855.037-1.293.11-.888.148-1.648.684-2.452 1.252-1.126.796-2.4 1.697-4.303 1.697"/><path fill="#020202" d="M30.315 27.85c1.227 0 5.451.329 7.442 4.792.656 1.47.488 4.133.353 6.271-.021.34-.042.669-.059.983l-.007.135.09.1c.036.04.377.397 1.135.426h.025c.501-.018 1.066-.174 1.679-.461a.82.82 0 01.337-.063c.145 0 .3.027.426.08l.02.008c.32.113.548.325.551.517.002.109-.079.5-1.218.95a7.38 7.38 0 01-.428.145c-.742.235-1.862.59-2.239 1.479-.212.5-.154 1.09.173 1.755.134.314 2.25 5.08 7.013 5.865a.211.211 0 01-.02.077c-.08.19-.593.847-3.786 1.34-.5.076-.622.636-.764 1.287a9.929 9.929 0 01-.175.711c-.022.074-.026.078-.104.078h-.038a3.52 3.52 0 01-.605-.078 9.37 9.37 0 00-1.866-.197c-.442 0-.898.038-1.355.115-.977.162-1.771.724-2.613 1.319-1.13.798-2.298 1.625-4.08 1.625-.078 0-.154-.003-.23-.007h-.04a1.521 1.521 0 01-.133.007c-1.781 0-2.95-.826-4.08-1.625-.84-.595-1.636-1.157-2.613-1.32a8.277 8.277 0 00-1.354-.114c-.792 0-1.413.121-1.865.21-.25.048-.465.09-.606.09-.116 0-.118-.007-.143-.09a10.645 10.645 0 01-.175-.717c-.142-.652-.264-1.215-.764-1.291-3.192-.493-3.705-1.151-3.786-1.34a.232.232 0 01-.02-.079c4.763-.784 6.879-5.551 7.013-5.866.328-.664.386-1.254.173-1.755-.377-.888-1.497-1.244-2.238-1.479-.17-.054-.317-.1-.428-.145-.963-.38-1.259-.763-1.215-.995.051-.267.515-.54.92-.54.091 0 .17.015.23.043.657.308 1.258.464 1.784.464.828 0 1.196-.385 1.236-.429l.09-.1-.008-.134a91.713 91.713 0 00-.059-.982c-.134-2.14-.302-4.8.353-6.27 1.983-4.447 6.187-4.79 7.428-4.79l.57-.005h.073m0-.768h-.082l-.563.006c-.727 0-2.181.103-3.744.793a8.341 8.341 0 00-2.388 1.583c-.824.783-1.496 1.748-1.996 2.869-.732 1.64-.558 4.405-.418 6.627v.003l.045.728c-.107.05-.281.102-.538.102-.413 0-.904-.132-1.459-.392a1.305 1.305 0 00-.555-.115c-.33 0-.679.097-.98.275-.38.223-.627.539-.693.889-.044.231-.042.688.466 1.152.28.255.69.49 1.22.7.139.055.304.107.478.163.607.192 1.525.484 1.764 1.047.121.285.069.661-.155 1.115l-.017.038c-.056.13-.578 1.312-1.648 2.559a9.271 9.271 0 01-1.99 1.761 7.318 7.318 0 01-2.794 1.091.767.767 0 00-.642.8.994.994 0 00.08.334v.002c.157.366.52.677 1.109.951.72.335 1.798.616 3.202.837.071.134.145.474.196.706.053.247.11.5.188.77.086.292.308.641.879.641.216 0 .465-.049.753-.105.421-.082.998-.195 1.718-.195.4 0 .813.035 1.229.104.802.134 1.494.622 2.295 1.188 1.171.829 2.497 1.766 4.524 1.766.055 0 .11-.002.165-.006.067.004.15.006.238.006 2.026 0 3.352-.938 4.522-1.765l.002-.002c.801-.565 1.492-1.053 2.294-1.187.416-.069.83-.104 1.23-.104a8.63 8.63 0 011.717.182c.318.063.564.093.753.093h.038c.417 0 .724-.229.841-.63.078-.264.133-.511.188-.762.048-.218.124-.567.195-.703 1.405-.22 2.482-.502 3.203-.836.588-.273.95-.584 1.108-.948a.982.982 0 00.08-.338.767.767 0 00-.64-.8c-4.38-.721-6.351-5.22-6.433-5.411a.547.547 0 00-.017-.037c-.224-.455-.276-.83-.155-1.116.24-.563 1.157-.854 1.763-1.047.176-.055.342-.108.48-.162.597-.236 1.024-.492 1.306-.783.336-.346.402-.678.398-.896-.01-.525-.413-.993-1.052-1.221a1.88 1.88 0 00-.713-.137c-.17 0-.423.024-.662.135-.513.24-.971.371-1.365.39a1.234 1.234 0 01-.452-.1l.039-.635.006-.094c.14-2.223.314-4.99-.418-6.631-.502-1.125-1.176-2.093-2.003-2.877a8.363 8.363 0 00-2.397-1.584 9.534 9.534 0 00-3.743-.787"/></g></g></svg>