<svg version="1.0" id="Направляющие" xmlns="http://www.w3.org/2000/svg" x="0" y="0" viewBox="0 0 60 85" xml:space="preserve"><g id="svg_2"><path fill="#00D557" d="M0 0h60v85H0z"/><path id="Spotify" d="M29.8 26.3c-8.9 0-16.3 7.3-16.3 16.2s7.3 16.3 16.3 16.3 16.3-7.3 16.3-16.3-7.2-16.2-16.3-16.2m7.5 23.4c-.3.5-.9.6-1.4.3-3.8-2.4-8.6-2.8-14.3-1.5-.6.2-1.1-.2-1.2-.7-.2-.6.2-1.1.7-1.2 6.2-1.4 11.5-.8 15.8 1.8.6.2.7.8.4 1.3m2-4.4c-.4.6-1.1.8-1.7.4-4.4-2.7-11-3.5-16.2-1.9-.7.2-1.4-.2-1.6-.8-.2-.7.2-1.4.8-1.5 5.9-1.8 13.2-.9 18.3 2.2.5.2.8 1 .4 1.6m.1-4.6c-5.2-3.1-13.9-3.4-18.8-1.9-.8.2-1.6-.2-1.9-1-.2-.8.2-1.6 1-1.9 5.8-1.7 15.3-1.4 21.3 2.2.7.4 1 1.4.6 2.1-.5.7-1.4.9-2.2.5"/></g></svg>