<svg version="1.0" xmlns="http://www.w3.org/2000/svg" viewBox="0 0 60 85"><g id="фоны"><linearGradient id="Steam_2_" gradientUnits="userSpaceOnUse" x1="26.084" y1="34.948" x2="53.704" y2="88.213"><stop offset="0" stop-color="#111d2e"/><stop offset=".212" stop-color="#051839"/><stop offset=".407" stop-color="#0a1b48"/><stop offset=".581" stop-color="#132e62"/><stop offset=".738" stop-color="#144b7e"/><stop offset=".873" stop-color="#136497"/><stop offset="1" stop-color="#1387b8"/></linearGradient><path id="Steam" fill="url(#Steam_2_)" d="M0 0h60v85H0z"/></g><g id="лого"><g id="Steam_1_"><linearGradient id="SVGID_1_" gradientUnits="userSpaceOnUse" x1="-275.884" y1="438.847" x2="-275.884" y2="438.834" gradientTransform="matrix(2473.3435 0 0 -2476 682386.375 1086611)"><stop offset="0" stop-color="#111d2e"/><stop offset=".212" stop-color="#051839"/><stop offset=".407" stop-color="#0a1b48"/><stop offset=".581" stop-color="#132e62"/><stop offset=".738" stop-color="#144b7e"/><stop offset=".873" stop-color="#136497"/><stop offset="1" stop-color="#1387b8"/></linearGradient><path fill="url(#SVGID_1_)" d="M14.419 47.179c2.01 6.705 8.227 11.59 15.586 11.59 8.985 0 16.27-7.285 16.27-16.27S38.99 26.23 30.004 26.23c-8.622 0-15.677 6.707-16.234 15.188 1.053 1.768 1.463 2.862.648 5.761z"/><path fill="#FFF" d="M29.167 38.425l.001.08-3.98 5.783a4.46 4.46 0 00-1.906.337 4.426 4.426 0 00-.762.402l-8.742-3.599s-.202 3.328.64 5.808l6.18 2.55a4.507 4.507 0 002.666 3.189 4.513 4.513 0 006.246-4.29l5.697-4.071.14.002c3.408 0 6.179-2.779 6.179-6.191 0-3.413-2.77-6.19-6.18-6.19-3.407 0-6.18 2.777-6.18 6.19zm-.955 11.719a3.484 3.484 0 01-4.552 1.878 3.46 3.46 0 01-1.792-1.71l2.012.834a2.566 2.566 0 001.971-4.738l-2.08-.862a3.46 3.46 0 012.567.04c.86.357 1.526 1.03 1.88 1.89s.351 1.81-.006 2.668m7.134-7.594a4.126 4.126 0 01-4.116-4.125 4.126 4.126 0 014.116-4.124 4.126 4.126 0 014.119 4.124 4.126 4.126 0 01-4.119 4.125m-3.084-4.132a3.096 3.096 0 013.091-3.099 3.097 3.097 0 013.094 3.1 3.096 3.096 0 01-3.094 3.097 3.095 3.095 0 01-3.091-3.098z"/></g></g></svg>