<svg version="1.0" id="Направляющие" xmlns="http://www.w3.org/2000/svg" x="0" y="0" viewBox="0 0 60 85" xml:space="preserve"><path id="canvas_background" fill="#F04F23" d="M0 0h60v85H0z"/><path id="rect3003_3_" fill="#FFF" d="M30 29.2c-4 0-7.3 3.3-7.3 7.3V47c0 1-.8 1.7-1.7 1.7-1 0-1.7-.8-1.7-1.7v-4.6h-5.6v4.8c0 4 3.3 7.3 7.3 7.3s7.3-3.3 7.3-7.3V36.6c0-1 .8-1.7 1.7-1.7 1 0 1.7.8 1.7 1.7v2.1l2.3 1.1 3.3-1.1v-2.1c0-4.1-3.3-7.4-7.3-7.4zm1.7 13.2v4.7c0 4 3.3 7.3 7.3 7.3s7.3-3.3 7.3-7.3v-4.6h-5.6v4.6c0 1-.8 1.7-1.7 1.7-1 0-1.7-.8-1.7-1.7v-4.7L34 43.5l-2.3-1.1z"/></svg>