<svg version="1.1" id="Направляющие" xmlns="http://www.w3.org/2000/svg" x="0" y="0" viewBox="0 0 60 85" xml:space="preserve"><g id="Page-1"><g id="Social_icons" transform="translate(-422 -252)"><g id="Telegram" transform="translate(422 252)"><linearGradient id="SVGID_1_" gradientUnits="userSpaceOnUse" x1="44.922" y1="7.682" x2="19.486" y2="67.033"><stop offset="0" stop-color="#37aee2"/><stop offset="1" stop-color="#1e96c8"/></linearGradient><path fill="url(#SVGID_1_)" d="M0 0h60v85H0z"/><path id="Shape" d="M26.3 54.7c-1 0-.8-.4-1.1-1.3L22.3 44l22-13.1" fill="#c8daea"/><path id="Shape_1_" d="M26.3 54.7c.8 0 1.1-.3 1.5-.8l4-3.9-5-3" fill="#a9c9dd"/><linearGradient id="Shape_3_" gradientUnits="userSpaceOnUse" x1="-405.533" y1="9.108" x2="-405.398" y2="9.473" gradientTransform="matrix(32.6232 0 0 27.3624 13262.35 -207.854)"><stop offset="0" stop-color="#eff7fc"/><stop offset="1" stop-color="#fff"/></linearGradient><path id="Shape_2_" d="M26.8 47l12 9c1.4.8 2.4.4 2.7-1.3l4.9-23.2c.5-2-.8-2.9-2.1-2.3L15.5 40.3c-2 .8-2 1.9-.4 2.4l7.4 2.3 17.2-10.8c.8-.5 1.6-.2.9.3" fill="url(#Shape_3_)"/></g></g></g></svg>