<svg version="1.0" id="Направляющие" xmlns="http://www.w3.org/2000/svg" x="0" y="0" viewBox="0 0 60 85" xml:space="preserve"><path id="tidal" stroke="#000" stroke-width=".094" d="M0 0h60v85H0z"/><path fill="#FFF" stroke="#000" stroke-width=".094" d="M26.3 32.7h0l.5.5 1.2 1.2v0l-1.7 1.7-1.7-1.7c0-.1.1-.1.1-.1l1.6-1.6zm3.5 0h0s0 .1 0 0c.6.6 1.2 1.2 1.8 1.7 0 0 0 .1-.1.1l-1.7 1.7-1.7-1.7c.5-.6 1.1-1.2 1.7-1.8zm3.5 0h0c.1.1.3.2.4.4l1.3 1.3s.1 0 .1.1l-1.7 1.7-1.7-1.7-.1-.1.9-.9.8-.8zm-5.2 5.2l1.7-1.7h0c.6.6 1.1 1.2 1.7 1.7l-.1.1c-.4.4-.8.8-1.3 1.2l-.4.4-.6-.6c-.3-.3-.6-.7-1-1.1 0 0 0 0 0 0h0zm-18 7.5h5.2v1.2h-1.9v5.1H12v-5.2h-1.9v-1.1zm9.6 0h1.5v6.4h-1.5v-6.4zm25.8 0H47v5.1h2.5v1.3h-4v-6.4zm-13.8 2.2c-.1-.5-.4-1-.8-1.3-.5-.5-1.2-.7-1.9-.8-.4-.1-.8 0-1.2 0H26V52h2.5c.2 0 .5 0 .7-.1.8-.1 1.5-.5 2-1.1.4-.4.6-1 .7-1.5 0-.7 0-1.2-.2-1.7h0zm-1.6 2.1c-.2.3-.4.5-.8.7-.3.1-.6.2-.9.2h-1v-3.9h1c.5 0 1 .2 1.4.5.3.3.5.8.5 1.2.1.5 0 .9-.2 1.3zm10.9.6l-1.8-4.5c-.1-.1-.1-.3-.2-.4h-1.5c-.9 2.1-1.7 4.1-2.6 6.2 0 .1-.1.1-.1.2h1.6c.2-.4.3-.8.5-1.3h2.7s.1 0 .1.1c.1.4.3.8.4 1.2h1.6c-.3-.5-.5-1-.7-1.5zm-3.8-.9v-.2c.3-.8.6-1.5.9-2.3 0 0 0 0 0 0l.9 2.4s0 0 0 0c-.5.1-1.2.1-1.8.1z"/></svg>