<svg version="1.2" baseProfile="tiny" xmlns="http://www.w3.org/2000/svg" viewBox="0 0 60 85" overflow="visible"><g id="фоны"><linearGradient id="tripadvisor_2_" gradientUnits="userSpaceOnUse" x1="4.127" y1="23.32" x2="52.327" y2="59.051"><stop offset="0" stop-color="#fff"/><stop offset="1" stop-color="#d1d1d1"/></linearGradient><path id="tripadvisor" fill-rule="evenodd" fill="url(#tripadvisor_2_)" d="M0 0h60v85H0z"/></g><g id="лого"><g id="tripadvisor_1_"><path fill="#FEDA80" d="M19.309 36.374c3.07-.365 11.696-.657 9.283 11.77l2.705-.22c-1.17-7.675 1.316-11.623 8.991-11.988-12.792-7.018-20.029.292-20.98.438z"/><path fill="#A61E2E" d="M23.11 43.538a1.31 1.31 0 01-1.316 1.316 1.31 1.31 0 01-1.316-1.316 1.31 1.31 0 011.316-1.316c.658 0 1.316.585 1.316 1.316z"/><path fill="#4A853E" d="M39.338 43.538a1.31 1.31 0 01-1.316 1.316 1.31 1.31 0 01-1.316-1.316 1.31 1.31 0 011.316-1.316 1.31 1.31 0 011.316 1.316z"/><path fill="#020202" d="M44.528 38.787c.366-1.608 1.608-3.217 1.608-3.217h-5.41c-3.07-1.973-6.724-2.997-10.818-2.997-4.24 0-8.04 1.097-11.11 3.07H13.68s1.17 1.609 1.608 3.217c-1.023 1.316-1.608 2.997-1.608 4.824 0 4.46 3.655 8.114 8.114 8.114 2.559 0 4.825-1.17 6.36-3.07l1.754 2.559 1.755-2.632a7.787 7.787 0 002.997 2.34c1.973.877 4.166 1.023 6.213.219 4.167-1.535 6.36-6.214 4.825-10.454-.366-.657-.731-1.315-1.17-1.973zM37.73 35.57a6.41 6.41 0 00-2.559.512c-2.046.731-3.655 2.266-4.532 4.24-.438.877-.658 1.827-.73 2.778-.293-4.167-3.729-7.457-7.896-7.53 2.34-1.023 4.971-1.535 7.895-1.535 2.924-.073 5.556.439 7.822 1.535zM21.867 50.117c-3.582 0-6.506-2.924-6.506-6.506s2.924-6.506 6.506-6.506 6.506 2.924 6.506 6.506c-.073 3.582-2.997 6.506-6.506 6.506zm18.421-.365c-1.608.584-3.362.511-4.97-.22-1.536-.73-2.778-2.046-3.363-3.655-.585-1.608-.512-3.362.22-4.97s2.046-2.778 3.654-3.363c3.363-1.243 7.09.512 8.334 3.801 1.17 3.436-.585 7.164-3.875 8.407z"/><path fill="#020202" d="M21.721 39.518c-2.193 0-4.02 1.827-4.02 4.02 0 2.193 1.827 4.02 4.02 4.02s4.02-1.827 4.02-4.02c0-2.193-1.827-4.02-4.02-4.02zm0 6.652a2.62 2.62 0 01-2.632-2.632c0-1.462 1.17-2.631 2.632-2.631s2.632 1.17 2.632 2.631a2.62 2.62 0 01-2.632 2.632zm16.301-6.652c-2.193 0-4.02 1.827-4.02 4.02 0 2.193 1.827 4.02 4.02 4.02 2.193 0 4.02-1.827 4.02-4.02-.072-2.193-1.827-4.02-4.02-4.02zm0 6.652a2.62 2.62 0 01-2.631-2.632 2.62 2.62 0 012.631-2.631 2.62 2.62 0 012.632 2.631 2.62 2.62 0 01-2.632 2.632z"/></g></g></svg>