<svg version="1.0" xmlns="http://www.w3.org/2000/svg" viewBox="0 0 60 85"><g id="фоны"><path id="tt_1_" fill="#F63449" d="M0 0h60v85H0z"/></g><g id="лого"><g id="tt"><path id="_x34__2_" fill="#D3FF5A" d="M28.369 27.203h4.49s-.145 8.808 7.82 11.27v3.765s-5.865.218-7.676-5.503v22.16H28.37V36.59s-3.766 4.417-9.052 4.924v-3.403s8.835-2.408 9.052-10.908z"/><path id="_x34__1_" fill="#FF55B2" d="M27.009 26.111h4.49s-.145 8.808 7.82 11.27v3.766s-5.865.217-7.676-5.504v22.16H27.01V35.497s-3.766 4.418-9.052 4.924V37.02s8.834-2.408 9.052-10.908z"/><path id="_x33__2_" fill="#00E2D6" d="M27.26 27.544h4.49s-.146 8.807 7.82 11.27v3.765s-5.866.217-7.676-5.504v22.16h-4.635V36.93s-3.765 4.417-9.052 4.924V38.45s8.835-2.408 9.052-10.907z"/><path id="_x32__2_" fill="#2B2B2B" d="M27.994 26.908h4.49s-.145 8.808 7.821 11.27v3.765s-5.866.218-7.676-5.503V58.6h-4.635V36.294s-3.765 4.417-9.052 4.924v-3.403s8.835-2.408 9.052-10.908z"/><path id="_x31__2_" fill="#FFF" d="M27.26 26.544h4.49s-.146 8.807 7.82 11.27v3.765s-5.866.217-7.676-5.504v22.16h-4.635V35.93s-3.765 4.417-9.052 4.924V37.45s8.835-2.408 9.052-10.907z"/></g></g></svg>