<svg version="1.1" id="Направляющие" xmlns="http://www.w3.org/2000/svg" x="0" y="0" viewBox="0 0 60 85" xml:space="preserve"><path fill="#1ebef0" d="M0 0h60v85H0z"/><path d="M32.9 30.6c-.9.6-1.6 1.5-2.1 2.5l-.2.6-.3 1.2c0 .2 0 .4-.1.6v1l.1.8h-.5c-2.2 0-4.4-.5-6.3-1.4l-1.1-.5c-.2-.1-.4-.2-.6-.4-1.3-.7-2.4-1.7-3.4-2.7-.6-.7-1.2-1.4-1.7-2.2-.5 1-.9 2.3-.9 3.6 0 .5 0 .9.1 1.4 0 .2 0 .4.1.6.4 1.4 1.1 2.6 2.1 3.5l.5.5-.6-.3c-.8-.2-1.6-.5-2.4-.8.1 1.6.7 3.1 1.7 4.3 1 1.1 2.2 2 3.7 2.4l-1.7.1h-1.4c1 2.5 3.5 4.4 6.3 4.6-2.6 2-5.9 3-9.4 3 2.6 1.6 5.6 2.6 8.8 2.8h2.1c10-.5 17.8-8.8 17.8-18.9v-1c.4-.3.7-.6 1.1-1 .9-.8 1.6-1.7 2.3-2.6-1 .7-2.3 1-3.6 1 1.2-.8 2.2-2 2.7-3.5-1 .5-2 .9-3.1 1.2h-.1l-.8.2c-1.2-1.3-2.9-2.1-4.7-2.1h-.1c-.5 0-1 0-1.5.1-.7.2-1.5.5-2 .9l-.8.5z" fill="#fff"/></svg>