<svg version="1.0" id="Направляющие" xmlns="http://www.w3.org/2000/svg" x="0" y="0" viewBox="0 0 60 85" xml:space="preserve"><path id="canvas_background" fill="#5FCCFF" d="M0 0h60v85H0z"/><path id="Vimeo" fill="#FFF" d="M46.4 34.9c-.2 3.3-2.4 7.6-6.7 13.1-4.5 5.7-8.1 8.6-11.2 8.6-1.8 0-3.5-1.8-4.9-5.3-.8-3.3-1.8-6.6-2.6-9.6-1-3.5-2-5.3-3-5.3-.2 0-1 .6-2.6 1.6l-1.6-2.1c1.6-1.4 3.3-2.9 4.7-4.3 2.2-1.8 3.7-2.9 4.9-2.9 2.4-.2 4.1 1.4 4.7 5.1.6 4.1 1 6.6 1.2 7.6.8 3.3 1.6 4.9 2.4 4.9.6 0 1.6-1 3-3.3s2-3.9 2.2-4.9c.2-1.8-.6-2.9-2.2-2.9-.8 0-1.6.2-2.4.6 1.6-5.3 4.7-7.8 9.1-7.6 3.5.1 5.2 2.4 5 6.7"/></svg>