<svg version="1.0" id="Направляющие" xmlns="http://www.w3.org/2000/svg" x="0" y="0" viewBox="0 0 60 85" xml:space="preserve"><path id="canvas_background" fill="#4C75A3" d="M0 0h60v85H0z"/><path id="path9" fill="#FFF" d="M29.6 51.5h1.9s.6-.1.9-.4c.3-.3.3-.9.3-.9s0-2.6 1.2-3c1.2-.4 2.7 2.5 4.4 3.6 1.2.8 2.2.7 2.2.7l4.4-.1s2.3-.1 1.2-1.9c-.1-.1-.6-1.3-3.2-3.7-2.7-2.5-2.4-2.1.9-6.5 2-2.7 2.8-4.3 2.6-5-.2-.7-1.7-.5-1.7-.5h-4.9s-.4 0-.6.1c-.3.2-.4.5-.4.5s-.8 2.1-1.8 3.8c-2.2 3.7-3.1 3.9-3.4 3.7-.8-.5-.6-2.2-.6-3.3 0-3.6.5-5.1-1.1-5.5-.5-.1-.9-.2-2.3-.2-1.8 0-3.2 0-4.1.4-.6.3-1 .9-.7.9.3 0 1.1.2 1.4.7.5.7.5 2.2.5 2.2s.3 4.2-.7 4.8c-.7.4-1.6-.4-3.5-3.7-1-1.7-1.8-3.6-1.8-3.6s-.1-.4-.4-.5c-.3-.2-.8-.3-.8-.3h-4.7s-.7 0-1 .3c-.2.3 0 .8 0 .8s3.6 8.5 7.8 12.8c3.7 4.1 8 3.8 8 3.8z"/></svg>