<svg version="1.2" baseProfile="tiny" xmlns="http://www.w3.org/2000/svg" viewBox="0 0 60 85" overflow="visible"><g id="фоны"><path id="яндекс" fill="#FFE033" d="M0 0h60v85H0z"/></g><g id="лого"><g id="яндекс_1_"><path fill="red" d="M16.447 34.133h-2.082c-2.083 0-3.875 1.55-3.875 4.553 0 1.792.872 3.148 2.373 3.826l-2.809 5.037c-.097.146 0 .291.145.291h1.308a.266.266 0 00.242-.145l2.567-4.94h.92v4.94c0 .048.049.145.146.145h1.162c.097 0 .146-.048.146-.145V34.327c-.049-.146-.097-.194-.243-.194zm-1.21 7.459h-.775c-3.342 0-3.1-6.297-.146-6.297h.969v6.297h-.049z"/><path d="M23.422 38.686H22.26c-.097 0-.146.048-.146.145v3.487h-2.13v-3.487c0-.097-.05-.145-.146-.145h-1.114c-.097 0-.146.048-.146.145v8.864c0 .097.049.145.146.145h1.162c.097 0 .146-.048.146-.145v-4.263h2.13v4.263c0 .097.05.145.146.145h1.162c.097 0 .146-.048.146-.145V38.83c-.049-.097-.097-.145-.194-.145zm26.155 7.943c0-.048-.049-.048-.097-.048-.485 0-3.44 1.404-3.44-3.245 0-2.035.776-4.892 2.616-3.197.049.048.097.048.146.048.048 0 .097-.048.145-.145l.484-.823c.049-.049.049-.097.049-.146 0-.096-.097-.145-.194-.193-3.197-1.599-4.843 1.356-4.843 4.795 0 4.456 3.245 5.085 5.085 3.73.097-.05.097-.146.097-.195l-.048-.58zm-7.944-3.826l2.228-4.02c.049-.049 0-.145-.048-.145h-1.114c-.34 0-.436.096-.533.339-.097.242-1.743 3.68-1.937 3.826v-4.02c0-.049-.049-.146-.097-.146H38.92c-.048 0-.097.049-.097.146v8.912c0 .048.049.145.097.145h1.21c.098 0 .098-.048.098-.145v-4.602c.145.097 2.18 4.311 2.228 4.456.097.194.29.291.533.291h1.21c.097 0 .097-.048.049-.145l-2.616-4.892zm-10.607 3.875h-.242c-.29 0-.34-.097-.34-.34v-7.555c0-.097-.047-.146-.096-.146h-3.73c-.096 0-.145.049-.145.146 0 2.034.049 5.424-1.307 7.895h-.388c-.097 0-.145.048-.145.145v2.664c0 .097.097.145.145.145h.872c.194 0 .29-.145.29-.29V47.84h3.924v1.647c0 .048.048.145.145.145h.969c.097 0 .242-.097.242-.29v-2.52c-.048-.096-.097-.144-.194-.144zm-2.034 0h-2.713c.775-1.26 1.502-3.294 1.502-6.878h1.21v6.878zm5.812-8.234c-1.986 0-2.906 2.47-2.906 5.182 0 4.456 3.1 5.134 5.23 3.827.098-.049.098-.097.098-.146l-.146-.63c0-.048-.048-.096-.145-.096-.775 0-3.487 1.356-3.487-3.052.969.097.969.097 3.875.097-.049-2.228-.29-5.182-2.519-5.182zm-1.308 4.068c0-3.536 2.325-4.214 2.325-.097-1.017 0-1.453 0-2.325.097z"/></g></g></svg>