<svg version="1.2" baseProfile="tiny" xmlns="http://www.w3.org/2000/svg" viewBox="0 0 60 85" overflow="visible"><g id="фоны"><linearGradient id="yelp_2_" gradientUnits="userSpaceOnUse" x1="4.127" y1="23.32" x2="52.327" y2="59.051"><stop offset="0" stop-color="#fff"/><stop offset="1" stop-color="#d1d1d1"/></linearGradient><path id="yelp_1_" fill-rule="evenodd" fill="url(#yelp_2_)" d="M0 0h60v85H0z"/></g><g id="лого"><path id="yelp" fill="#BF2519" d="M18.21 41.897c-.53.85-.753 3.522-.568 5.294.064.584.172 1.072.324 1.364.212.403.569.644.973.657.26.014.424-.032 5.316-1.606 0 0 2.174-.694 2.185-.7.541-.139.909-.637.944-1.273.034-.654-.3-1.23-.858-1.436l-1.536-.625c-5.26-2.169-5.496-2.254-5.761-2.257-.408-.014-.767.19-1.019.582m11.763 16.161c.086-.246.097-.415.11-5.557 0 0 .01-2.27.013-2.294.035-.558-.324-1.065-.914-1.292-.608-.234-1.262-.089-1.63.367 0 0-1.072 1.273-1.077 1.273-3.683 4.327-3.839 4.528-3.927 4.783-.057.15-.075.31-.06.471.022.23.127.456.298.668.855 1.016 4.951 2.522 6.26 2.297.458-.078.788-.332.927-.716m8.313-1.788c1.236-.493 3.93-3.919 4.12-5.24.067-.459-.078-.855-.394-1.107-.206-.156-.364-.218-5.257-1.823 0 0-2.144-.708-2.174-.721-.52-.201-1.112-.014-1.509.477-.416.504-.477 1.171-.145 1.672l.863 1.405c2.904 4.716 3.126 5.048 3.335 5.211.322.255.732.298 1.16.126m-2.527-12.138c5.557-1.345 5.774-1.418 5.991-1.563.338-.227.507-.605.478-1.066 0-.014.002-.03 0-.046-.143-1.367-2.534-4.916-3.713-5.493-.418-.2-.837-.187-1.182.046-.215.14-.373.351-3.349 4.423 0 0-1.343 1.83-1.359 1.85-.354.431-.359 1.048-.013 1.579.36.55.965.814 1.52.662 0 0-.022.04-.027.045.273-.104.761-.225 1.654-.437m-5.578-4.59c-.097-2.203-.76-12.011-.837-12.464-.112-.413-.434-.705-.895-.823-1.42-.351-6.844 1.169-7.85 2.203-.324.338-.442.75-.345 1.118.158.325 6.879 10.897 6.879 10.897.991 1.611 1.804 1.36 2.07 1.276.262-.078 1.069-.33.978-2.206"/></g></svg>