<svg version="1.0" id="Слой_1" xmlns="http://www.w3.org/2000/svg" x="0" y="0" viewBox="0 0 60 85" xml:space="preserve"><path id="canvas_background_1_" fill="#FF0008" d="M-1-1h62v87H-1z"/><g id="svg_5"><g id="svg_6" fill="#FFF"><path id="svg_2_1_" d="M12.8 41.1L11.7 37H10c.3 1 .7 2 1 2.9.5 1.5.8 2.6 1 3.3v4.3h1.6v-4.3l1.9-6.3h-1.6c0 .1-1.1 4.2-1.1 4.2zm10.7-1.4v6c-.3.4-.6.7-.9.7-.2 0-.3-.1-.3-.3v-6.4h-1.4v6.2c0 .6 0 .9.1 1.2.1.4.5.6.9.6.5 0 1.1-.3 1.6-1v.9h1.4v-7.8l-1.4-.1zm-5.9-.1c-.7 0-1.3.3-1.7.8-.3.4-.4 1-.4 1.8V45c0 .8.1 1.5.4 1.8.4.5.9.8 1.7.8.7 0 1.3-.3 1.7-.8.3-.4.4-1 .4-1.8v-2.7c0-.8-.1-1.5-.4-1.8-.5-.7-1-.9-1.7-.9zm.6 5.6c0 .7-.2 1.1-.7 1.1s-.7-.4-.7-1.1v-3.3c0-.7.2-1.1.7-1.1.5 0 .7.4.7 1.1v3.3z"/><path id="svg_4_1_" d="M45.6 40.9c-.5 0-.7.4-.7 1.1v.7h1.4V42c0-.7-.2-1.1-.7-1.1zm-5.2 0c-.2 0-.5.1-.7.3V46c.2.2.5.3.7.3.4 0 .6-.3.6-1V42c0-.7-.2-1.1-.6-1.1zm8.6-4.1c-.3-1.2-1.3-2.2-2.5-2.3-2.7-.3-5.4-.3-8.2-.3h-1c-2.7 0-5.5 0-8.2.3-1.2.1-2.2 1-2.5 2.3-.4 1.8-.4 3.7-.4 5.5v.1c0 1.8 0 3.6.4 5.4.3 1.2 1.3 2.2 2.5 2.3 2.7.3 5.5.3 8.2.3h1c2.7 0 5.5 0 8.2-.3 1.2-.1 2.2-1 2.5-2.3.4-1.7.4-3.6.4-5.4v-.1c0-1.8 0-3.7-.4-5.5zm-16.2 1.8h-1.7v9h-1.6v-9h-1.7v-1.5h4.9v1.5zm4.3 8.9h-1.4v-.8c-.6.6-1.1 1-1.6 1s-.8-.2-.9-.6c-.1-.2-.1-.6-.1-1.2v-6.1h1.4V46c0 .2.1.3.3.3.3 0 .6-.2.9-.7v-5.9h1.4v7.8zm5.3-2.3c0 .7 0 1.2-.1 1.6-.2.6-.6.9-1.1.9-.5 0-1-.3-1.5-.9v.8h-1.4V37.1h1.4v3.4c.5-.6.9-.8 1.5-.8s.9.3 1.1.9c.1.3.1.8.1 1.6v3zm5.3-1.3h-2.8v1.4c0 .7.2 1.1.7 1.1.3 0 .5-.2.6-.6v-1h1.4v1.1c0 .3-.2.6-.3.8-.4.6-1 .8-1.7.8s-1.3-.3-1.7-.8c-.3-.4-.5-1-.5-1.8v-2.7c0-.8.1-1.4.4-1.8.4-.5 1-.8 1.7-.8s1.3.3 1.7.8c.3.4.4 1 .4 1.8l.1 1.7z"/></g></g></svg>