<svg version="1.2" baseProfile="tiny" xmlns="http://www.w3.org/2000/svg" viewBox="0 0 60 85" overflow="visible"><g id="фоны"><g id="vk"><path id="canvas_background_2_" fill="#4C75A3" d="M0 0h60v85H0z"/></g></g><g id="иконки"><g id="ЛКП" fill="#FFF"><path id="лайк_9_" d="M26.546 44.51c1.764 0 3.175 1.412 3.175 3.175s-3.44 5.644-7.055 8.642c-3.615-3.086-7.054-6.966-7.054-8.642a3.161 3.161 0 013.174-3.174c2.117 0 3.88 2.645 3.88 2.645s1.676-2.645 3.88-2.645m0-1.764c-1.587 0-2.998.794-3.88 2.028-.882-1.234-2.293-2.028-3.88-2.028a4.93 4.93 0 00-4.938 4.938c0 3.88 8.818 10.935 8.818 10.935s8.818-7.055 8.818-10.935a4.93 4.93 0 00-4.938-4.938z"/><path d="M33.67 50.176s1.406-.619 2.643-.731c0 0 .725.815 2.246.843 1.52.028 2.223-.843 2.223-.843s1.714.17 2.95.844c1.238.674 2.587 1.067 2.446 6.717 0 0-.984 2.248-7.87 2.248 0 0 2.699-6.858-4.637-9.078zm4.835-10.878s3.345-.196 3.794 2.249c.45 2.445.197 3.738.197 3.738s-.421 2.024-1.742 2.951c-1.321.928-2.249.815-2.249.815s-1.77-.168-2.53-1.124c-.758-.955-1.292-1.77-1.405-3.513-.112-1.743.281-2.895.281-2.895s.45-2.305 3.654-2.22zM32.8 58.383h1.377v-1.715h1.77V55.32h-1.77l-.057-1.742H32.8v1.714l-1.771-.056v1.405h1.742z" id="подписчики_3_"/><g id="комменты_2_"><path d="M27.462 40.215l-2.032-2.032h-5.71v-11.91h15.486v11.91h-5.713l-2.032 2.032zm-6.553-3.225h5.013l1.54 1.54 1.54-1.54h5.013v-9.529H20.909v9.53z"/><path d="M23.293 29.25h8.337v1.192h-8.337zm0 2.38h8.337v1.192h-8.337zm0 2.384h5.957v1.192h-5.957z"/></g></g></g></svg>