<svg version="1.0" xmlns="http://www.w3.org/2000/svg" viewBox="0 0 60 85"><g id="фоны"><g id="spotify"><path fill="#00D557" d="M0 0h60v85H0z" id="svg_2"/></g></g><g id="иконки"><path d="M17.132 29.723l-.005 8.576a2.445 2.445 0 00-.813-.13c-.32 0-.652.06-.978.176-.453.154-.822.4-1.098.731-.282.34-.425.695-.425 1.057 0 .226.058.434.17.612.26.433.715.653 1.355.653.293 0 .613-.046.951-.136.46-.12.982-.356 1.326-.701.396-.376.71-.792.71-1.234v-6.198l5.323-1.044v5.17c0-.087-.486-.13-.78-.13-.32 0-.636.059-.962.175a2.38 2.38 0 00-1.089.732c-.282.339-.42.695-.42 1.057 0 .227.06.434.171.611.259.434.716.654 1.357.654a3.7 3.7 0 00.95-.137 2.67 2.67 0 001.228-.7c.394-.378.61-.793.61-1.234v-9.605l-7.581 1.045zM24.9 45.242a.594.594 0 01-.593.594H14.218a.594.594 0 01-.593-.594v-1.187c0-.327.266-.593.593-.593h10.09c.327 0 .593.266.593.593v1.187zm0 5.341a.594.594 0 01-.593.594H14.218a.594.594 0 01-.593-.594v-1.187c0-.327.266-.593.593-.593h10.09c.327 0 .593.266.593.593v1.187zm0 5a.594.594 0 01-.593.594H14.218a.594.594 0 01-.593-.594v-1.187c0-.327.266-.593.593-.593h10.09c.327 0 .593.266.593.593v1.187zm14.55-22.576v5.28a3.454 3.454 0 01-1.2 6.691 3.455 3.455 0 01-1.346-6.638v-5.508a8.687 8.687 0 00-5.395 2.39c-.514.431-.942.94-1.267 1.502a5.2 5.2 0 00-.356.702c-.428.984-.66 2.166-.692 3.512l-1.778 3.97c-.18.357-.16.742.05 1.082.21.34.573.511.972.511h1.026l.088 1.422c0 1.944 1.532 3.611 3.351 3.894v4.505h10.548v-7.42c1.819-1.62 2.924-4.543 2.924-7.302 0-4.203-2.978-7.726-6.925-8.593z" id="альбом_прослушивания"/></g></svg>