<svg version="1.0" id="Направляющие" xmlns="http://www.w3.org/2000/svg" x="0" y="0" viewBox="0 0 60 85" xml:space="preserve"><g id="instagram"><linearGradient id="canvas_background_1_" gradientUnits="userSpaceOnUse" x1="30" y1="85" x2="30" y2="0" gradientTransform="matrix(1 0 0 -1 0 85)"><stop offset=".162" stop-color="#a137a1"/><stop offset=".405" stop-color="#d10869"/><stop offset=".862" stop-color="#f68136"/></linearGradient><path id="canvas_background" fill="url(#canvas_background_1_)" d="M0 0h60v85H0z"/></g><g fill="#FFF"><path d="M45.8 53l-.1-.2-.1-.1-.2-.2-.6-.5c-1.2-1.3-2.7-2.9-4.2-4.4-.4-.4-1-.4-1.3 0l-1 1c-.7-1-1.5-1.8-2.5-2.5.4-.4.7-.8 1-1.2.9-1.4 1.6-3 1.8-4.7.1-.9.1-1.7.1-2.6-.1-.4-.1-.9-.2-1.3s-.2-.9-.3-1.3c-.1-.4-.3-.8-.4-1.2 1.2-.7 3-2.3 4-3.7 0 .7.2 1.5.4 2.2.2.1.3.1.5.1.1 0 .3 0 .4-.1.3-.8.5-2.5.5-4.2 0-.5-.4-.9-1-.9-1.7 0-3.4.2-4.2.5 0 .2-.1.3 0 .5v.4c.8.2 1.5.4 2.3.4-1.4 1-2.6 2.2-3.6 3.6-1.4-2.3-3.6-4.1-6.2-4.9-1.7-.6-3.4-.7-5.2-.4-3.3.5-6.2 2.4-8 5.2-.8 1.3-1.3 2.7-1.5 4.1-.2 1.3-.2 2.7.1 4 .2 1 .6 2 1 2.9-1.2.5-3.3 2.6-3.6 3.7.1.1.2.3.3.4l.3.3c1-.3 2.9-2 3.5-3.3.1.2.2.3.4.5s.3.4.4.5l.5.5c.2.2.4.1.6 0 .2-.2.2-.4.1-.6l-.4-.5c-.1-.2-.2-.3-.3-.5-.3-.4-.5-.8-.7-1.2-.4-.9-.7-1.9-.9-2.9-.6-3.9 1.1-7.7 4.4-9.8 3.8-2.4 8.8-1.9 12 1.3 3.2 3.2 3.7 8.2 1.3 12.1-2.1 3.3-6 5-9.8 4.4-1-.2-2-.5-2.9-.9-.4-.2-.8-.4-1.2-.7-.2-.1-.3-.2-.5-.3l-.5-.5c-.2-.1-.5-.1-.6.1-.2.2-.2.4 0 .6l.5.5c.2.2.3.3.5.4.4.3.8.6 1.3.9 1 .6 2.1 1 3.2 1.2 1.3.3 2.7.3 4 .1 1.5-.2 2.9-.8 4.1-1.6.5-.3.9-.6 1.4-1 .7 1 1.5 1.9 2.5 2.6l-1 1c-.4.4-.4 1 0 1.3 1.6 1.5 3.1 3 4.4 4.2l.5.5.5.5c.4.3.9.5 1.4.6.8.1 1.7-.2 2.2-.8.1-.1 0-.3-.2-.5s-.3-.3-.4-.2c-.4.3-.9.4-1.4.2-.3-.1-.5-.2-.7-.4l-.8-.9c-1.1-1.2-2.3-2.4-3.6-3.8l1.8-1.8c1.3 1.3 2.6 2.5 3.7 3.5l.9.9c.2.2.3.4.4.7.1.5 0 1-.2 1.4 0 .1.1.3.3.4s.3.2.4.2c.6-.6.9-1.4.8-2.3.1-.6-.1-1.1-.4-1.5z"/><path d="M20.5 41.6c1.6-1.2 3.1-2.5 4.5-3.9 1.3 1.3 2.6 2.7 3.9 3.9l.1.1c.4.3.9.2 1.2-.2 1.4-1.7 2.6-3.5 3.8-5.4 0-.1-.1-.2-.3-.4-.2-.2-.3-.2-.4-.2-1.3 1.3-2.6 2.6-3.8 4.1-1.2-1.3-2.6-2.6-3.9-3.8-.4-.3-.9-.3-1.3 0-1.6 1.6-3.1 3.4-4.6 5.2 0 .1.1.3.3.4.3.2.5.3.5.2z"/></g></svg>