<svg version="1.0" id="Направляющие" xmlns="http://www.w3.org/2000/svg" x="0" y="0" viewBox="0 0 60 85" xml:space="preserve"><path id="canvas_background_8_" fill="#1D1D1D" d="M0 0h60v85H0z"/><path id="widget" fill="#FFF" d="M33.3 39.1c-.9-.9-2.1-1.4-3.4-1.4-1.3 0-2.5.5-3.4 1.4-.9.9-1.4 2.1-1.4 3.4 0 1.3.5 2.5 1.4 3.4.9.9 2.1 1.4 3.4 1.4 1.3 0 2.5-.5 3.4-1.4.9-.9 1.4-2.1 1.4-3.4 0-1.3-.5-2.5-1.4-3.4zm6.2-9.6c.2 0 .5.1.6.3l2.5 2.5c.2.2.2.3.3.6 0 .2-.1.4-.2.6l-2.6 3.2c.5.9.9 1.9 1.2 2.9l4.1.4c.2 0 .4.1.6.3.1.2.2.3.2.6v3.5c0 .2-.1.4-.2.6-.2.2-.4.3-.6.3l-4.1.4c-.3 1-.7 1.9-1.2 2.9l2.6 3.2c.1.2.2.4.2.6 0 .2-.1.4-.3.6l-2.5 2.5c-.2.2-.4.3-.6.3-.2 0-.4-.1-.5-.2L35.8 53c-.9.5-1.8.9-2.8 1.2l-.4 3.8c0 .2-.1.4-.3.6-.2.1-.4.2-.6.2h-3.6c-.2 0-.4-.1-.6-.2-.2-.2-.3-.4-.3-.6l-.4-4.1c-1.1-.3-2-.7-2.8-1.2l-3.2 2.6c-.1.1-.3.2-.6.2-.2 0-.4-.1-.6-.3l-2.5-2.5c-.2-.2-.2-.3-.3-.6 0-.2.1-.4.2-.6l2.7-3.2c-.5-.9-.9-1.9-1.2-2.9l-4.1-.4c-.2 0-.4-.1-.6-.3-.1-.2-.2-.3-.2-.6v-3.5c0-.2.1-.4.2-.6.2-.2.4-.3.6-.3l4.1-.4c.3-1 .7-1.9 1.2-2.9L17 33.2c-.1-.2-.2-.4-.2-.6 0-.2.1-.4.2-.6l2.5-2.5c.2-.2.4-.3.6-.3.2 0 .4.1.5.2l3.2 2.6c.8-.5 1.8-.9 2.8-1.2l.4-4.1c0-.2.1-.4.3-.6.2-.1.3-.2.6-.2h3.6c.2 0 .4.1.6.2.2.1.3.3.3.6l.4 4.1c1 .3 1.9.7 2.8 1.2l3.2-2.6c.4.1.5.1.7.1z"/></svg>