<svg version="1.0" id="Направляющие" xmlns="http://www.w3.org/2000/svg" x="0" y="0" viewBox="0 0 60 85" xml:space="preserve"><g id="youtube"><path id="canvas_background_1_" fill="#FF0008" d="M0 0h60v85H0z"/></g><path d="M46.3 42.3c-.1-.7-.3-1.3-.6-2l-.6-2.1c-.8-2.6-1.5-5.2-2.3-7.7-.8-2.9-3.8-4.7-6.8-4.2-2.8.5-5.6.9-8.4 1.3-1.3.2-2.7.4-4 .7-.8.1-1.4.8-1.3 1.6v16c0 .1.1.2.2.2h.1c.6.1 1.1.3 1.6.6l.2.1c.5.2 1 .4 1.4.7.9.4 1.7 1 2.5 1.7.4.3.7.6 1.1.9.7.6 1.4 1.3 2.1 2 .6.6 1.1 1.2 1.6 1.8.2.2.3.4.4.6l.2.3c.5.6.9 1.2 1.3 1.8.3.5.7.9 1.1 1.3.1.1.3.2.4.3.4.3 1.1.2 1.4-.2.3-.4.6-.9.7-1.4.9-3.4.2-6.5-2.4-9-.6-.6-1.2-1.1-1.8-1.6h8.8c1.2 0 2.2-.6 2.7-1.7.5-.6.6-1.3.4-2zm-26.2 2.5V29.6c0-1.1-.9-2-2-2h-4.5v19.3h4.5c1.1-.1 2-1 2-2.1z" id="thumb_down" fill="#FFF"/></svg>