<svg version="1.0" id="Направляющие" xmlns="http://www.w3.org/2000/svg" x="0" y="0" viewBox="0 0 60 85" xml:space="preserve"><linearGradient id="cian_1_" gradientUnits="userSpaceOnUse" x1="30" y1="6.962" x2="30" y2="77.674"><stop offset="0" stop-color="#eaeaea"/><stop offset="1" stop-color="#f9f9f9"/></linearGradient><path id="cian" fill="url(#cian_1_)" d="M0 0h60v85H0z"/><g id="t_dwn_c" fill="#1D85AA"><path d="M30 57.6l-4.3-4.3H13.6V28.1h32.8v25.2H34.3L30 57.6zm-13.9-6.8h10.6L30 54l3.3-3.3h10.6V30.6H16.1v20.2z"/><path d="M37.5 40.9l-.3-.9c-.1-.3-.2-.6-.3-1-.3-1.2-.7-2.4-1.1-3.6-.4-1.4-1.8-2.2-3.2-1.9l-3.9.6-1.8.3c-.4 0-.6.4-.6.7v7.5c0 .1.1.1.1.1.3.1.5.2.7.3h.1c.2.1.5.2.7.3.4.2.8.5 1.2.8.2.1.3.3.5.4.3.3.7.6.9.9.3.3.5.5.7.8.1.1.1.2.2.3l.1.1c.2.3.4.6.6.8.2.2.3.4.5.6l.2.2c.2.1.5.1.6-.1.2-.2.3-.4.3-.6.4-1.6.1-3-1.1-4.2-.3-.3-.5-.5-.8-.7h4.1c.5 0 1-.3 1.3-.8.4-.3.4-.6.3-.9zM25.4 42v-7c0-.5-.4-.9-.9-.9h-2.1V43h2.1c.5 0 .9-.5.9-1z" id="thumb_up"/></g></svg>