<svg version="1.0" id="Направляющие" xmlns="http://www.w3.org/2000/svg" x="0" y="0" viewBox="0 0 60 85" xml:space="preserve"><g id="dzen_1_"><path id="dzen" fill="#13254D" d="M0 0h60v85H0z"/></g><g id="traffic_1_" fill="#FFF"><path d="M30 26.1c-9 0-16.4 7.3-16.4 16.4S21 58.9 30 58.9s16.4-7.3 16.4-16.4S39 26.1 30 26.1zm1 30.8v-2.6h-2v2.6c-7.2-.5-12.9-6.2-13.4-13.4h2.6v-2h-2.6c.5-7.2 6.2-12.9 13.4-13.4v2.6h2v-2.6c7.2.5 12.9 6.2 13.4 13.4h-2.6v2h2.6c-.5 7.1-6.3 12.9-13.4 13.4z"/><path d="M23.1 45.6c1-.7 2.1-1.1 3.2-1.4.2-.1.3-.1.5-.2l.6-.3v-.1c-.9-1.3-1.5-3.3-1.5-5.1 0-1.5.5-2.6 1.3-3.2-.4-.2-.8-.3-1.3-.3-1.3 0-2.4.5-2.4 2.4 0 1.2.5 2.8 1.2 3.6v.2c0 .2-.1.4-.3.5l-.6.3c-.9.3-1.8.6-2.6 1.1-.4.3-.7.8-.9 1.3-.2.5-.2 1-.2 1.6h2.5c.2-.2.4-.3.5-.4zm15.7-2.4c-.8-.5-1.7-.8-2.6-1.1l-.6-.3c-.2-.1-.2-.3-.3-.5V41c.7-.9 1.1-2.4 1.1-3.6 0-1.9-1.1-2.4-2.4-2.4-.5 0-1 .1-1.3.3.9.7 1.3 1.7 1.3 3.2 0 1.7-.6 3.6-1.4 4.9 0 .1 0 .2.1.2.2.1.4.2.7.3l.4.1c1.1.4 2.3.8 3.3 1.5.2.1.3.1.5.5h2.5c0-.7-.1-1.1-.2-1.6-.4-.4-.7-.9-1.1-1.2z"/><path d="M36.4 46.2c-1.1-.7-2.3-1.1-3.5-1.5-.3-.1-.6-.2-.9-.4-.2-.1-.3-.4-.4-.7v-.4c.9-1.2 1.5-3.1 1.5-4.7 0-2.5-1.4-3.2-3.1-3.2-1.7 0-3.1.7-3.1 3.2 0 1.7.6 3.7 1.5 4.9v.3c-.1.3-.1.5-.4.7-.3.2-.6.3-.9.4-1.2.4-2.4.8-3.5 1.5-.6.4-.9 1.1-1.1 1.7-.2.6-.3 1.5-.3 2.1h15.7c0-.7-.1-1.5-.3-2.1-.2-.7-.6-1.4-1.2-1.8z"/></g></svg>