<svg version="1.0" xmlns="http://www.w3.org/2000/svg" viewBox="0 0 60 85"><g id="фоны"><linearGradient id="Steam_1_" gradientUnits="userSpaceOnUse" x1="26.084" y1="34.948" x2="53.704" y2="88.213"><stop offset="0" stop-color="#111d2e"/><stop offset=".212" stop-color="#051839"/><stop offset=".407" stop-color="#0a1b48"/><stop offset=".581" stop-color="#132e62"/><stop offset=".738" stop-color="#144b7e"/><stop offset=".873" stop-color="#136497"/><stop offset="1" stop-color="#1387b8"/></linearGradient><path id="Steam" fill="url(#Steam_1_)" d="M0 0h60v85H0z"/></g><g id="иконки"><g id="event" fill="#FFF"><path d="M42.401 29.544h-3.045V28.12a1.233 1.233 0 00-2.466 0v1.424H23.11V28.12a1.233 1.233 0 00-2.466 0v1.424h-3.045a3.978 3.978 0 00-3.974 3.973V54.14a3.978 3.978 0 003.974 3.974H42.4a3.978 3.978 0 003.974-3.974V33.517a3.978 3.978 0 00-3.974-3.973zM17.6 32.01h3.045v3.017a1.233 1.233 0 002.466 0V32.01h13.78v3.017a1.233 1.233 0 002.466 0V32.01h3.045c.831 0 1.507.676 1.507 1.507V38.8H16.092v-5.282c0-.83.676-1.507 1.507-1.507zm24.8 23.636H17.6a1.509 1.509 0 01-1.507-1.507V41.266h27.816v12.873c0 .831-.676 1.507-1.507 1.507z"/><path d="M34.062 43.938l-5.356 5.122-2.535-2.535a1.233 1.233 0 00-1.744 1.744l3.387 3.388a1.23 1.23 0 001.725.019l6.228-5.955a1.233 1.233 0 10-1.705-1.783z"/></g></g></svg>