<svg version="1.0" id="Направляющие" xmlns="http://www.w3.org/2000/svg" x="0" y="0" viewBox="0 0 60 85" xml:space="preserve"><g id="youtube"><path id="canvas_background_1_" fill="#FF0008" d="M0 0h60v85H0z"/></g><path fill="#FFF" d="M46.4 42.5v1.6c-5.4 0-9.8 4.4-9.8 9.8H35c-.1-6.3 5-11.4 11.4-11.4zM39.8 54h1.6c0-2.7 2.2-4.9 4.9-4.9v-1.6c-3.5-.1-6.5 2.8-6.5 6.5zM26.7 37.8l8.2 4.7-8.2 4.7v-9.4zm1.7 6.6l3.3-1.9-3.3-1.9v3.8zM44.7 54h1.6v-1.6h-1.6V54zm-2.4-23H17.7c-2.3 0-4.1 1.8-4.1 4.1v14.7c0 2.3 1.8 4.1 4.1 4.1h13.9v-1.6H17.7c-1.4 0-2.5-1.1-2.5-2.5V35.1c0-1.4 1.1-2.5 2.5-2.5h24.6c1.4 0 2.5 1.1 2.5 2.5v4.1h1.6v-4.1c0-2.2-1.9-4.1-4.1-4.1z" id="стрим"/></svg>