<svg version="1.2" baseProfile="tiny" xmlns="http://www.w3.org/2000/svg" viewBox="0 0 60 85" overflow="visible"><g id="фоны"><linearGradient id="flikr_1_" gradientUnits="userSpaceOnUse" x1="4.127" y1="23.32" x2="52.327" y2="59.051"><stop offset="0" stop-color="#fff"/><stop offset="1" stop-color="#d1d1d1"/></linearGradient><path id="flikr" fill-rule="evenodd" fill="url(#flikr_1_)" d="M0 0h60v85H0z"/></g><g id="иконки"><path id="favorites" d="M37.391 46.632l8.984-7.581-10.576-.758a1.063 1.063 0 01-.871-.607L30 26.921l-4.928 10.765a1.063 1.063 0 01-.871.607l-10.576.758 8.984 7.58c.303.266.454.683.34 1.062l-2.918 10.386 9.438-6.103a1.033 1.033 0 011.137 0l9.439 6.103-2.919-10.424c-.19-.341-.038-.758.265-1.023z"/></g></svg>