<svg version="1.0" id="Направляющие" xmlns="http://www.w3.org/2000/svg" x="0" y="0" viewBox="0 0 60 85" xml:space="preserve"><g id="instagram"><linearGradient id="canvas_background_1_" gradientUnits="userSpaceOnUse" x1="30" y1="85" x2="30" y2="0" gradientTransform="matrix(1 0 0 -1 0 85)"><stop offset=".162" stop-color="#a137a1"/><stop offset=".405" stop-color="#d10869"/><stop offset=".862" stop-color="#f68136"/></linearGradient><path id="canvas_background" fill="url(#canvas_background_1_)" d="M0 0h60v85H0z"/></g><g id="stories" fill="#FFF"><path d="M30 58.7c-2.7 0-5.4-.7-7.7-1.9-.6-.3-.8-1-.5-1.5.3-.6 1-.8 1.5-.5 2 1.1 4.3 1.7 6.7 1.7 1.1 0 2.2-.1 3.2-.4.6-.1 1.2.2 1.4.8.1.6-.2 1.2-.8 1.4-1.3.3-2.6.4-3.8.4zm-10.5-4.2c-.3 0-.6-.1-.8-.3-2.3-2.2-3.9-5-4.7-8-.1-.6.2-1.2.8-1.4.6-.1 1.2.2 1.4.8.6 2.6 2 5 4 6.9.5.4.5 1.1 0 1.6-.1.3-.4.4-.7.4zm-4.7-12.6h-.1c-.6-.1-1.1-.6-1-1.2.2-1.8.7-3.6 1.4-5.3.3-.6.9-.8 1.5-.5.6.3.8.9.5 1.5-.7 1.4-1.1 3-1.2 4.6-.1.5-.6.9-1.1.9zm4.7-9.6c-.3 0-.5-.1-.7-.3-.5-.4-.6-1.1-.2-1.6.1-.1.2-.2.3-.4.4-.5 1.1-.5 1.6-.1s.5 1.1.1 1.6l-.3.3c-.1.4-.5.5-.8.5zm18.3 24.3c-.4 0-.8-.2-1-.6-.3-.5-.1-1.2.4-1.6 4.3-2.5 6.9-7.2 6.9-12.1 0-7.8-6.3-14.1-14.1-14.1-.6 0-1.1-.5-1.1-1.1S29.4 26 30 26c9 0 16.4 7.4 16.4 16.4 0 5.7-3.1 11.1-8 14.1-.2 0-.4.1-.6.1z"/><path d="M37.6 41.2h-6.5v-6.5h-2.2v6.5h-6.5v2.3h6.5V50h2.2v-6.5h6.5z"/></g></svg>