<svg version="1.2" baseProfile="tiny" xmlns="http://www.w3.org/2000/svg" viewBox="0 0 60 85" overflow="visible"><g id="фоны"><path id="Google" fill="#FFF" d="M0 0h60v85H0z"/></g><g id="лого"><g id="google_maps"><path fill="#1A73E8" d="M32.955 26.655a11.474 11.474 0 00-3.452-.53 11.41 11.41 0 00-8.751 4.078l5.397 4.538 6.806-8.086z"/><path fill="#EA4335" d="M20.752 30.203a11.385 11.385 0 00-2.676 7.343c0 2.146.427 3.89 1.131 5.448l6.942-8.253-5.397-4.538z"/><path fill="#4285F4" d="M29.503 33.183a4.372 4.372 0 013.335 7.194l6.8-8.086a11.43 11.43 0 00-6.69-5.63l-6.793 8.086a4.356 4.356 0 013.348-1.564"/><path fill="#FBBC04" d="M29.503 41.922a4.372 4.372 0 01-4.369-4.37 4.33 4.33 0 011.021-2.805l-6.948 8.254c1.19 2.63 3.16 4.744 5.19 7.407l8.441-10.031a4.364 4.364 0 01-3.335 1.545"/><path fill="#34A853" d="M32.67 53.142c3.814-5.96 8.254-8.667 8.254-15.596 0-1.9-.465-3.69-1.286-5.268l-15.234 18.13a39.058 39.058 0 011.932 2.74c2.314 3.581 1.674 5.727 3.167 5.727s.853-2.152 3.167-5.733"/></g></g></svg>