<svg version="1.0" id="Направляющие" xmlns="http://www.w3.org/2000/svg" x="0" y="0" viewBox="0 0 60 85" xml:space="preserve"><g id="dzen_1_"><path id="dzen" fill="#13254D" d="M0 0h60v85H0z"/></g><path d="M46 40.3c-.5-1-1.6-1.7-2.7-1.7h-8.8c.6-.5 1.2-1 1.8-1.6 2.5-2.5 3.3-5.6 2.4-9-.1-.5-.4-1-.7-1.4-.3-.4-.9-.5-1.4-.2-.1.1-.3.2-.4.3-.4.4-.8.8-1.1 1.3-.5.6-.9 1.2-1.3 1.8l-.2.3c-.1.2-.3.4-.4.6-.5.6-1 1.2-1.6 1.8-.6.7-1.3 1.4-2.1 2-.4.3-.7.7-1.1.9-.8.7-1.6 1.2-2.5 1.7-.5.3-.9.5-1.4.7l-.2.1c-.5.3-1 .5-1.6.6h-.1c-.1 0-.2.1-.2.2v16c-.1.8.5 1.5 1.3 1.6 1.3.2 2.7.4 4 .7 2.8.4 5.6.9 8.4 1.3 3 .5 5.9-1.3 6.8-4.2.8-2.6 1.5-5.1 2.3-7.7l.6-2.1c.2-.6.4-1.3.6-2 .1-.7 0-1.4-.4-2zm-27.9-2.5h-4.5v19.3h4.5c1.1 0 2-.9 2-2V39.9c0-1.2-.9-2.1-2-2.1z" id="thumb_up_2_" fill="#FFF"/></svg>