<svg version="1.0" id="Направляющие" xmlns="http://www.w3.org/2000/svg" x="0" y="0" viewBox="0 0 60 85" xml:space="preserve"><g id="аскфм"><path id="canvas_background_3_" fill="#FF664A" d="M0 0h60v85H0z"/></g><path id="лайк_6_" fill="#FFF" d="M37.2 31c3.3 0 5.9 2.6 5.9 5.9 0 3.3-6.4 10.5-13.1 16-6.7-5.7-13.1-12.9-13.1-16 0-3.3 2.6-5.9 5.9-5.9 3.9 0 7.2 5 7.2 5s3.1-5 7.2-5m0-3.2c-2.9 0-5.6 1.5-7.2 3.8-1.6-2.3-4.3-3.8-7.2-3.8-5.1 0-9.2 4.1-9.2 9.2 0 7.2 16.4 20.3 16.4 20.3S46.4 44.2 46.4 37c0-5.1-4.1-9.2-9.2-9.2z"/></svg>