<svg version="1.0" id="Направляющие" xmlns="http://www.w3.org/2000/svg" x="0" y="0" viewBox="0 0 60 85" xml:space="preserve"><path id="facebook" fill="#3A5BA2" d="M0 0h60v85H0z"/><path fill="#FFF" d="M44.4 26.7H15.7c-1.2 0-2.1.9-2.1 2.1v28.7c0 1.2.9 2.1 2.1 2.1h28.7c1.2 0 2.1-.9 2.1-2.1V28.8c0-1.2-.9-2.1-2.1-2.1zm-25 2.5h24.7c.3 0 .6.3.6.6s-.3.6-.6.6H19.4c-.3 0-.6-.3-.6-.6 0-.4.3-.6.6-.6zm-2.5-.5c.6 0 1 .5 1 1s-.5 1-1 1-1-.5-1-1c-.1-.5.4-1 1-1zm27.5 29H15.7c-.1 0-.3-.1-.3-.3V32.5h29.2v24.9c.1.2-.1.3-.2.3z"/><path fill="#FFF" d="M39.7 42.2c0 5.6-9.6 11.8-9.6 11.8s-9.6-6.3-9.6-11.8c0-5.6 5.2-7.8 9.6-3.2 4.4-4.3 9.6-2.3 9.6 3.2z"/></svg>