<svg version="1.0" id="Направляющие" xmlns="http://www.w3.org/2000/svg" x="0" y="0" viewBox="0 0 60 85" xml:space="preserve"><g id="youtube"><path id="canvas_background_1_" fill="#FF0008" d="M0 0h60v85H0z"/></g><g id="t_up_c_1_" fill="#FFF"><path d="M30 57.6l-4.3-4.3H13.6V28.1h32.8v25.2H34.3L30 57.6zm-13.9-6.8h10.6L30 54l3.3-3.3h10.6V30.6H16.1v20.2z"/><path d="M37.4 39.3c-.2-.5-.7-.8-1.3-.8H32c.3-.2.6-.5.8-.7 1.2-1.2 1.5-2.6 1.1-4.2-.1-.2-.2-.5-.3-.6-.1-.2-.4-.2-.6-.1-.1 0-.1.1-.2.2-.2.2-.4.4-.5.6-.2.3-.4.6-.6.8l-.1.1c-.1.1-.1.2-.2.3-.2.3-.5.6-.7.8l-.9.9c-.2.2-.3.3-.5.4-.4.3-.7.6-1.2.8-.2.1-.4.2-.7.3h-.1c-.2.1-.5.2-.7.3 0 0-.1 0-.1.1V46c0 .4.2.7.6.7l1.8.3 3.9.6c1.4.2 2.7-.6 3.2-1.9.4-1.2.7-2.4 1.1-3.6.1-.3.2-.6.3-1l.3-.9c-.1-.2-.1-.6-.3-.9zm-12.9-1.1h-2.1v8.9h2.1c.5 0 .9-.4.9-.9v-7c0-.6-.4-1-.9-1z" id="thumb_up_1_"/></g></svg>