<svg version="1.0" xmlns="http://www.w3.org/2000/svg" viewBox="0 0 60 85"><g id="фоны"><path id="medium" stroke="#000" stroke-width=".094" d="M0 0h60v85H0z"/></g><g id="иконки"><path id="лайк_6_" fill="#FFF" d="M37.205 31.038a5.87 5.87 0 015.895 5.894c0 3.276-6.386 10.48-13.1 16.048-6.714-5.731-13.1-12.936-13.1-16.047a5.87 5.87 0 015.895-5.895c3.93 0 7.205 4.912 7.205 4.912s3.111-4.912 7.205-4.912m0-3.275c-2.948 0-5.567 1.473-7.205 3.766-1.638-2.293-4.257-3.766-7.205-3.766a9.155 9.155 0 00-9.17 9.17C13.625 44.137 30 57.236 30 57.236s16.375-13.1 16.375-20.305a9.155 9.155 0 00-9.17-9.17z"/></g></svg>