<svg version="1.0" id="Направляющие" xmlns="http://www.w3.org/2000/svg" xmlns:xlink="http://www.w3.org/1999/xlink" x="0" y="0" viewBox="0 0 60 85" xml:space="preserve"><symbol id="масс-лайк" viewBox="-16.3 -16.4 32.6 32.8"><path id="лайк_5_" fill="#FFF" d="M-2.9 14.5C-1 14.5.5 13 .5 11.1S-3.2 5.2-7 2c-3.8 3.3-7.4 7.4-7.4 9.1 0 1.9 1.5 3.4 3.4 3.4 2.2 0 4.1-2.8 4.1-2.8s1.7 2.8 4 2.8m0 1.9c-1.7 0-3.2-.8-4.1-2.1-.9 1.3-2.4 2.1-4.1 2.1-2.9 0-5.2-2.3-5.2-5.2C-16.3 7.1-7-.4-7-.4S2.3 7 2.3 11.1c0 2.9-2.3 5.3-5.2 5.3z"/><path id="лайк_4_" fill="#FFF" d="M11.1-1.5c1.9 0 3.4-1.5 3.4-3.4s-3.6-6-7.4-9.1C3.3-10.7-.3-6.6-.3-4.9-.4-3 1-1.5 2.9-1.5 5.1-1.5 7-4.3 7-4.3s1.8 2.8 4.1 2.8m0 1.9C9.4.4 7.9-.5 7-1.8 6.1-.5 4.6.4 2.9.4 0 .4-2.3-1.9-2.3-4.8-2.3-8.9 7-16.4 7-16.4S16.3-9 16.3-4.9c0 3-2.3 5.3-5.2 5.3z"/></symbol><g id="instagram"><linearGradient id="canvas_background_1_" gradientUnits="userSpaceOnUse" x1="30" y1="85" x2="30" y2="0" gradientTransform="matrix(1 0 0 -1 0 85)"><stop offset=".162" stop-color="#a137a1"/><stop offset=".405" stop-color="#d10869"/><stop offset=".862" stop-color="#f68136"/></linearGradient><path id="canvas_background" fill="url(#canvas_background_1_)" d="M0 0h60v85H0z"/></g><use xlink:href="#масс-лайк" width="32.6" height="32.8" x="-16.3" y="-16.4" transform="matrix(1 0 0 -1 29.938 42.5)" overflow="visible"/></svg>