<svg version="1.2" baseProfile="tiny" xmlns="http://www.w3.org/2000/svg" viewBox="0 0 60 85" overflow="visible"><g id="фоны"><path id="яндекс" fill="#FFE033" d="M0 0h60v85H0z"/></g><g id="лого"><g id="YB"><path id="path4496" fill="red" d="M22.034 37.894l-2.84 2.84 8.302 8.305v9.871h4.018v-9.882l8.293-8.293-2.84-2.84L29.5 45.36l-7.466-7.467"/></g></g><g id="иконки" fill="#FFF" stroke="#D3D3D3" stroke-miterlimit="10"><path id="favorites" stroke-width="2" d="M33.034 37.116l4.226-3.566-4.975-.357a.5.5 0 01-.41-.285l-2.318-5.064-2.317 5.064a.5.5 0 01-.41.285l-4.975.357 4.226 3.566a.49.49 0 01.16.499L24.868 42.5l4.44-2.87a.486.486 0 01.535 0l4.44 2.87-1.374-4.903c-.089-.16-.017-.357.125-.481z"/><path id="favorites_1_" d="M23.467 50.666l3.212-2.71-3.781-.271a.38.38 0 01-.312-.217l-1.762-3.849-1.761 3.849a.38.38 0 01-.312.217l-3.78.27 3.21 2.711a.372.372 0 01.123.38l-1.044 3.713 3.375-2.182a.37.37 0 01.406 0l3.375 2.182-1.044-3.727c-.068-.122-.013-.27.095-.366z"/><path id="favorites_2_" d="M41.176 50.666l3.211-2.71-3.78-.271a.38.38 0 01-.312-.217l-1.762-3.849-1.762 3.849a.38.38 0 01-.311.217l-3.781.27 3.211 2.711a.372.372 0 01.122.38l-1.043 3.713 3.374-2.182a.37.37 0 01.407 0l3.374 2.182-1.043-3.727c-.068-.122-.014-.27.095-.366z"/></g></svg>