<svg version="1.0" id="Направляющие" xmlns="http://www.w3.org/2000/svg" x="0" y="0" viewBox="0 0 60 85" xml:space="preserve"><path id="facebook" fill="#3A5BA2" d="M0 0h60v85H0z"/><g id="event" fill="#FFF"><path d="M42.4 29.5h-3v-1.4c0-.7-.6-1.2-1.2-1.2-.7 0-1.2.6-1.2 1.2v1.4H23.1v-1.4c0-.7-.6-1.2-1.2-1.2-.7 0-1.2.6-1.2 1.2v1.4h-3c-2.2 0-4 1.8-4 4v20.6c0 2.2 1.8 4 4 4h24.8c2.2 0 4-1.8 4-4V33.5c-.1-2.2-1.9-4-4.1-4zM17.6 32h3v3c0 .7.6 1.2 1.2 1.2.7 0 1.2-.6 1.2-1.2v-3h13.8v3c0 .7.6 1.2 1.2 1.2s1.2-.6 1.2-1.2v-3h3c.8 0 1.5.7 1.5 1.5v5.3H16.1v-5.3c0-.8.7-1.5 1.5-1.5zm24.8 23.6H17.6c-.8 0-1.5-.7-1.5-1.5V41.3h27.8v12.9c0 .8-.7 1.4-1.5 1.4z"/><path d="M34.1 43.9L28.7 49l-2.5-2.5c-.5-.5-1.3-.5-1.7 0-.5.5-.5 1.3 0 1.7l3.4 3.4c.2.2.6.4.9.4.3 0 .6-.1.9-.3l6.2-6c.5-.5.5-1.3 0-1.7-.6-.5-1.3-.5-1.8-.1z"/></g></svg>