<svg id="Направляющие" xmlns="http://www.w3.org/2000/svg" viewBox="0 0 60 85"><path id="facebook" fill="#3a5ba2" d="M0 0h60v85H0z"/><g id="Слой_9" data-name="Слой 9"><path d="M15.36 57.72h27.4l.78-.61.17-.4.2-.44H14.38l.24.72.4.46.34.27z"/><path d="M18 50.51h-.91l-.44.47-2.26 5.29h29.52l-2.12-5-.71-.74-.64-.14.67-.57.2-.47.07-.41-.17-14.59-.4-.58-.74-.4-22.42.13a4.39 4.39 0 00-.61.61c0 .08-.2.78-.2.78L16.91 49l.37.81.51.37z" fill="#aaaaa7"/><path fill="none" stroke="#5b5b5b" stroke-miterlimit="10" stroke-width=".2" d="M14.38 56.27h29.53"/><path d="M26.42 55.43l-.42-.27v-1.32a6.77 6.77 0 01.44-.84h6.2a4 4 0 00.34.57 4 4 0 01.13.88v.71l-.34.27z" fill="#201600"/><path d="M19.47 48.79l-.64-.27-.3-.51.23-11.43a5.12 5.12 0 01.71-.84 5.71 5.71 0 00.57-.2h18.31l.84.37.37.51.24.77V48l-.31.78h-20z" fill="#dadada" stroke="#201600" stroke-miterlimit="10" stroke-width=".2"/><path fill="#fff" d="M21.33 43.22h6.09v3.57h-6.09z"/><path d="M15 45.72l4.17-1.32v-.53h1.49s3.32-1.12 3.4-1.12 2-.59 2-.59l.4-.62.17-.78-.24-.37-.39-.13.4-.57V39l-.4-.34.17-.57.13-.5-.3-.34.2-.61a1.48 1.48 0 000-.47 5.2 5.2 0 00-.6-.78H25l-3.27.88v-1.62s-.59-1.09-.67-1.18-.81-1.21-.81-1.21h-.78l-.94.44.23 1a6.81 6.81 0 01.44.7c0 .12-.15 1.33-.13 1.52a11.06 11.06 0 01-.34 1.18c0 .13-.2.88-.2.88l-.51.6-.54.24-.6-.47-3.25 1.08-.36.4 1.31 5.56z" fill="#fff" stroke="#64656b" stroke-miterlimit="10" stroke-width=".5"/><path fill="#698fb6" d="M15.19 45.01l3.34-.94-1.32-4.55-3.3 1.08 1.28 4.41z"/><path fill="#5a84b3" d="M13.91 40.6v-.65l2.83-.77.47.34-3.3 1.08z"/><path fill="#fff" d="M31.75 36.95h6.97v10.86h-6.97z"/><path d="M19.13 43.06l-.6-2.33-.47-1.73-.37.36s.8 3.35.91 3.47l.1.12zm4.76-.9l1.82-.52L26 41s-.19-.45-.27-.43-.24-.24-.24-.24l.37-.47-.06-.71h-.41l-.1-.34.44-.47a1.92 1.92 0 000-.54 2.09 2.09 0 00-.44-.27l-.14-.3s.29-.3.38-.37a2.82 2.82 0 00.13-.74l-.57-.31-.88.2-1 .34-1.89.27v-1.45l-.41-1-.73-1.17-.67-.18.23.65a4.63 4.63 0 01.3.68v1c0 .08-.13 1.25-.13 1.25a2.73 2.73 0 010 .64c-.05 0 .51.23.51.23l1.28-.44 1.92-.33.2.47s-.24.42-.3.51l-.24.26.34.27s.3.1.3.24-.07.57-.07.57l-.33.34a3.67 3.67 0 00.27.34c.1.1.27.22.3.37a2.64 2.64 0 010 .5l-.37.41.34.23s.11.37.13.48a2.83 2.83 0 01-.3.67z" fill="#e0e7f0"/><path d="M26.74 35.92h8.59v2.16h-8.59z" fill="#3a66a5"/><path d="M27.79 36.16v.24h-.14a.1.1 0 00-.12.1v.19h.26v.26h-.23v.73h-.29V37H27v-.26h.21v-.22a.24.24 0 01.08-.22.37.37 0 01.25-.09h.21m.7.53v.14a.36.36 0 00-.29-.16c-.23 0-.41.2-.41.52s.18.53.41.53a.39.39 0 00.3-.16v.12h.29v-1h-.29m0 .6a.2.2 0 01-.19.19.19.19 0 01-.19-.19v-.23a.19.19 0 01.19-.19.2.2 0 01.19.19v.19m2.6.4v-.13a.38.38 0 00.3.16c.23 0 .41-.2.41-.53s-.18-.52-.41-.52a.38.38 0 00-.3.16v-.66h-.29v1.48h.29m0-.6a.2.2 0 01.19-.19.2.2 0 01.19.19v.19a.2.2 0 01-.19.2.21.21 0 01-.19-.2v-.19m-1.69.39s-.22 0-.22-.28c0-.29.22-.28.22-.28.16 0 .21.05.21.05l.07-.22a.66.66 0 00-.66.05.57.57 0 00-.14.41.56.56 0 00.14.4.66.66 0 00.66 0l-.07-.22s-.05.06-.21.06m1.3-.11s.12-.62-.45-.63a.47.47 0 00-.49.56c0 .35.17.44.44.48a.94.94 0 00.48-.07l-.06-.2a1.47 1.47 0 01-.39.05.19.19 0 01-.16-.2h.63zm-.67-.2s0-.22.19-.22.18.22.18.22H30m2.35-.42c-.37 0-.49.22-.49.52a.46.46 0 00.49.52.48.48 0 00.49-.52.46.46 0 00-.49-.52m.19.6a.2.2 0 11-.39 0v-.19a.2.2 0 01.39 0v.19m.9-.6c-.37 0-.49.22-.49.52a.46.46 0 00.49.52.48.48 0 00.56-.52.46.46 0 00-.49-.52m.19.6a.2.2 0 11-.39 0v-.19a.2.2 0 01.39 0v.19m1.34.41l-.33-.5.31-.5h-.31l-.31.45v-1h-.29v1.49h.29v-.51l.33.51z" fill="#fff"/><path fill="#698fb6" d="M30.4 41.44h5.59v3.57H30.4z"/><path d="M32.68 44.12h-.32l-.25-.65h-.9l-.24.65h-.3L31.5 42h.31zm-.68-.87l-.38-1-.36 1zm1.87.69a.56.56 0 01-.45.22.55.55 0 01-.47-.22.93.93 0 01-.17-.58.92.92 0 01.19-.6.6.6 0 01.47-.23.65.65 0 01.43.16V42h.27v2.14h-.27zm0-.26v-.74a.54.54 0 00-.41-.19.35.35 0 00-.29.15.85.85 0 00-.1.46.72.72 0 00.1.43.32.32 0 00.28.15.52.52 0 00.42-.26zm1.24.48c-.43 0-.65-.17-.67-.5h.28c0 .19.13.28.38.28a.38.38 0 00.26-.07.2.2 0 00.09-.17.16.16 0 00-.08-.15 2.25 2.25 0 00-.37-.12 1.2 1.2 0 01-.4-.15.35.35 0 01-.12-.3.41.41 0 01.15-.32.7.7 0 01.42-.13c.41 0 .62.15.63.44h-.28c0-.15-.12-.22-.33-.22a.52.52 0 00-.23 0 .18.18 0 00-.09.16.14.14 0 00.07.13 2.1 2.1 0 00.35.11 1.05 1.05 0 01.42.16.34.34 0 01.14.31.44.44 0 01-.17.35.69.69 0 01-.45.19z" fill="#fff"/><path fill="#698fb6" d="M22.2 43.93h5.59v3.57H22.2z"/><path d="M24.48 46.62h-.32l-.25-.62H23l-.24.66h-.3l.83-2.15h.3zm-.65-.88l-.38-1-.36 1zm1.83.69a.55.55 0 01-.44.23.57.57 0 01-.47-.22 1 1 0 01-.17-.59.94.94 0 01.19-.6.57.57 0 01.47-.22.6.6 0 01.42.15v-.71h.28v2.15h-.28zm0-.26v-.74a.54.54 0 00-.4-.19.35.35 0 00-.29.16.79.79 0 00-.1.45.78.78 0 00.1.44.31.31 0 00.27.15.51.51 0 00.42-.27zm1.24.49q-.63 0-.66-.51h.27c0 .19.14.29.39.29a.38.38 0 00.26-.07.23.23 0 00.09-.18.16.16 0 00-.09-.15 1.56 1.56 0 00-.36-.11 1.31 1.31 0 01-.4-.16.32.32 0 01-.13-.29.4.4 0 01.16-.32.64.64 0 01.42-.13c.41 0 .62.14.63.43h-.28c0-.14-.12-.22-.33-.22a.41.41 0 00-.23.06.16.16 0 00-.09.15.13.13 0 00.07.13 1.81 1.81 0 00.35.11 1.47 1.47 0 01.42.16.34.34 0 01.14.31.44.44 0 01-.17.35.67.67 0 01-.46.15z" fill="#fff"/><path d="M17.69 54.52h6.68s.38-.32.46-.31.3-.54.3-.54l.21-.91.37-.5h7.56l.39.23 1.18 2.11H41l.33-.52a1.51 1.51 0 00.14-.51c0-.11-.88-1.6-.91-1.82s-.51-.54-.51-.54H18.41l-.72.71-.61 1.62v.67z" fill="#003993"/></g></svg>