<svg version="1.0" xmlns="http://www.w3.org/2000/svg" viewBox="0 0 60 85"><g id="фоны"><path id="твитер" fill="#1EBEF0" d="M0 0h60v85H0z"/></g><g id="иконки"><path fill="#FFF" d="M15.262 45.775h4.913c.904 0 1.638.733 1.638 1.637v9.825c0 .905-.734 1.638-1.638 1.638h-4.913a1.638 1.638 0 01-1.637-1.638v-9.825c0-.904.733-1.637 1.637-1.637zm12.282-19.65h4.912c.905 0 1.638.733 1.638 1.638v29.474c0 .905-.733 1.638-1.638 1.638h-4.912a1.638 1.638 0 01-1.638-1.638V27.763c0-.905.733-1.638 1.638-1.638zm12.281 9.825h4.912c.905 0 1.638.733 1.638 1.638v19.65c0 .904-.733 1.637-1.638 1.637h-4.912a1.638 1.638 0 01-1.638-1.638v-19.65c0-.904.734-1.637 1.638-1.637z" id="опрос"/></g></svg>