<svg version="1.0" id="Направляющие" xmlns="http://www.w3.org/2000/svg" x="0" y="0" viewBox="0 0 60 85" xml:space="preserve"><g id="яндекс_еда"><path fill="#FFE033" d="M0 0h60v85H0z"/><path d="M31.9 39.6c0-.1 0-.1-.1-.2-.1-.2-.1-.4-.2-.5-.2-.3-.4-.5-.7-.7-.3-.2-.5-.4-.9-.5-.3-.1-.7-.2-1-.3-.4 0-.7 0-1.1.1-.4.1-.7.2-1.1.4-.3.2-.7.4-.9.7-.3.3-.6.6-.8 1-.2.4-.4.8-.5 1.2-.1.4-.2.9-.1 1.4 0 .5.1.9.2 1.4.2.5.4.9.7 1.3.3.4.6.8 1 1.2.4.4.8.6 1.3.9.5.2 1 .4 1.6.5 1.2.2 2.3.1 3.4-.3.6-.2 1.1-.5 1.6-.9s1-.8 1.4-1.3c.4-.5.7-1.1 1-1.7.3-.6.4-1.3.5-2 .2-1.4 0-2.8-.5-4.1-.3-.7-.6-1.3-1.1-1.9-.9-1.2-2.2-2.1-3.6-2.7-.7-.3-1.5-.5-2.3-.6-.8-.1-1.6-.1-2.4 0-.8.1-1.6.4-2.3.7-.8.3-1.5.8-2.2 1.3-1.4 1.1-2.4 2.6-3.1 4.3-.3.9-.5 1.8-.6 2.7-.1.9-.1 1.9.1 2.8.2.9.4 1.9.8 2.7.4.9.9 1.7 1.6 2.5.6.8 1.4 1.4 2.2 2 .8.6 1.7 1 2.7 1.4 1 .4 2 .6 3 .7 1.1.1 2.1.1 3.2-.1s2.1-.5 3.1-1 1.9-1.1 2.8-1.8c.9-.7 1.6-1.6 2.2-2.5.6-.9 1.2-2 1.5-3 .8-2.2.9-4.6.5-6.9-.2-1.2-.6-2.3-1.1-3.4-1.1-2.2-2.7-4.1-4.8-5.5-2.1-1.4-4.6-2.3-7.2-2.4-1.3-.1-2.6 0-3.9.2-1.3.3-2.6.7-3.7 1.3-2.4 1.2-4.5 3-6 5.3-.8 1.2-1.4 2.4-1.8 3.7-.4 1.3-.7 2.7-.8 4.1-.2 2.9.4 5.8 1.7 8.3 1.3 2.7 3.4 4.9 5.9 6.5 1.3.8 2.6 1.5 4.1 2 1.5.5 3 .8 4.5.8h1c2.8 0 5.6-.7 8.1-2 1.4-.7 2.7-1.6 3.9-2.7l-1.9-2.1c-1 .9-2.1 1.7-3.3 2.3-1.2.6-2.4 1-3.7 1.3-1.3.3-2.6.4-3.9.3-1.3-.1-2.5-.3-3.8-.7-3.6-1.2-6.5-3.7-8.2-7-.5-1.1-.9-2.2-1.2-3.4-.2-1.2-.3-2.3-.2-3.5.1-2.3.9-4.5 2.2-6.5.6-.9 1.3-1.8 2.2-2.5 1.6-1.5 3.6-2.4 5.8-2.9 1-.2 2.1-.3 3.2-.2 1 .1 2.1.3 3 .6 1 .3 1.9.8 2.7 1.4.8.5 1.6 1.2 2.2 2 .6.7 1.2 1.6 1.6 2.4.4.9.7 1.8.9 2.7.2.9.2 1.9.2 2.8-.1.9-.3 1.8-.6 2.7-.3.8-.7 1.6-1.2 2.4-.5.7-1.1 1.4-1.7 2-.6.6-1.4 1-2.1 1.4-.8.4-1.6.6-2.4.8-.8.1-1.6.2-2.4.1-.8-.1-1.6-.2-2.3-.5-.7-.3-1.4-.6-2-1.1-1.2-.9-2.2-2-2.8-3.4-.3-.6-.5-1.3-.7-2-.1-.7-.1-1.4 0-2.1.1-.7.2-1.3.5-2 .2-.6.5-1.2.9-1.7s.8-1 1.3-1.4c.9-.8 2.1-1.3 3.3-1.4.6-.1 1.1-.1 1.7 0 .5.1 1.1.2 1.6.4s.9.5 1.3.8c.4.3.8.7 1.1 1.1.3.4.5.8.7 1.3.2.4.3.9.4 1.3.1.4.1.9 0 1.3l-.3 1.2c-.2.4-.4.7-.6 1-.2.3-.5.6-.8.8-.3.2-.6.4-1 .5-.3.1-.7.2-1 .2h-1c-.3-.1-.6-.1-.9-.3-.3-.1-.5-.3-.7-.5-.2-.2-.4-.4-.5-.6-.1-.2-.2-.4-.3-.7-.1-.2-.1-.4-.1-.7 0-.2 0-.4.1-.6 0-.2.1-.3.2-.5.1-.1.2-.3.3-.4.1-.1.2-.2.3-.2.1 0 .2-.1.3-.1.1 1 .9 1.7 1.9 1.6.9-.1 1.6-.8 1.6-1.7-.6-.1-.6-.3-.7-.4z"/></g></svg>