<svg version="1.0" id="Направляющие" xmlns="http://www.w3.org/2000/svg" x="0" y="0" viewBox="0 0 60 85" xml:space="preserve"><linearGradient id="cian_1_" gradientUnits="userSpaceOnUse" x1="30" y1="6.962" x2="30" y2="77.674"><stop offset="0" stop-color="#eaeaea"/><stop offset="1" stop-color="#f9f9f9"/></linearGradient><path id="cian" fill="url(#cian_1_)" d="M0 0h60v85H0z"/><g fill="#1D85AA" id="посетители"><path d="M21.9 44s2.3-1 4.3-1.2c0 0 1.2 1.3 3.7 1.4s3.7-1.4 3.7-1.4 2.8.3 4.9 1.4c2 1.1 4.3 1.8 4 11 0 0-1.6 3.7-12.9 3.7-.1 0 4.3-11.3-7.7-14.9zm7.9-17.9s5.5-.3 6.2 3.7.3 6.1.3 6.1-.7 3.3-2.9 4.9-3.7 1.3-3.7 1.3-2.9-.3-4.2-1.8c-1.2-1.6-2.1-2.9-2.3-5.8-.2-2.9.5-4.8.5-4.8s.9-3.7 6.1-3.6z"/><path d="M22.6 52.4c.1.3.4.4.7.2.3-.1.4-.4.2-.7l-1.4-2.8c-.1-.3-.4-.4-.7-.2-.3.1-.4.4-.2.7l1.4 2.8zm.9 2c-.2.2-.2.5 0 .7.2.2.5.2.7 0l2.3-2.2c.2-.2.2-.5 0-.7-.2-.2-.5-.2-.7 0l-2.3 2.2zM21.9 56c-.3-.1-.6 0-.7.2-.1.3 0 .6.2.7l2.8 1.5c.3.1.6 0 .7-.2.1-.3 0-.6-.2-.7L21.9 56zm-2-1.1c0-.3-.1-.6-.4-.6-.3 0-.6.1-.6.4l-.5 3.1c0 .3.1.6.4.6.3 0 .6-.1.6-.4l.5-3.1zm.4-2.3c.3 0 .5-.3.4-.6s-.3-.5-.6-.4l-3.1.5c-.3 0-.5.3-.4.6 0 .3.3.5.6.4l3.1-.5z"/><path d="M26.1 53.1c.3 0 .6-.2.6-.4s-.2-.6-.4-.6l-3.1-.5c-.3 0-.6.2-.6.4 0 .3.2.6.4.6l3.1.5zM23.9 58c0 .3.3.5.6.4.3 0 .5-.3.4-.6l-.5-3.1c0-.3-.3-.5-.6-.4-.3 0-.5.3-.4.6l.5 3.1zm-5.3-.6c-.3.1-.4.5-.2.7.1.3.5.4.7.2l2.8-1.5c.3-.1.4-.5.2-.7-.1-.3-.5-.4-.7-.2l-2.8 1.5zm-1.1-5.2c-.2-.2-.5-.2-.7 0s-.2.5 0 .7l2.3 2.2c.2.2.5.2.7 0 .2-.2.2-.5 0-.7l-2.3-2.2zm4.6-2.7c.1-.3 0-.6-.2-.7-.3-.1-.6 0-.7.2l-1.4 2.8c-.1.3 0 .6.2.7.3.1.6 0 .7-.2l1.4-2.8z"/></g></svg>