<svg version="1.0" id="Направляющие" xmlns="http://www.w3.org/2000/svg" x="0" y="0" viewBox="0 0 60 85" xml:space="preserve"><g id="instagram"><linearGradient id="canvas_background_1_" gradientUnits="userSpaceOnUse" x1="30" y1="85" x2="30" y2="0" gradientTransform="matrix(1 0 0 -1 0 85)"><stop offset=".162" stop-color="#a137a1"/><stop offset=".405" stop-color="#d10869"/><stop offset=".862" stop-color="#f68136"/></linearGradient><path id="canvas_background" fill="url(#canvas_background_1_)" d="M0 0h60v85H0z"/></g><path fill="#FFF" d="M46 30.4c-.5-.3-1.4-.5-2.3-.5-3 0-5.1 2.5-5.1 5.3 0 1.8 1 2.8 2.3 2.8 1.1 0 2.1-.5 3-1.7 0 1.2.7 1.7 1.7 1.7 2 0 4-1.9 4-5.5 0-3.8-2.7-6.4-6.5-6.4-4.9 0-8 3.8-8 8.6 0 4.4 3.1 7.1 6.6 7.1 1.4 0 2.7-.2 3.9-.9l-.5-1.5c-.8.5-2 .7-3.2.7-2.9 0-5.4-2-5.4-5.6 0-4.4 2.9-6.9 6.3-6.9 3.2 0 5.3 1.8 5.3 4.9 0 2.6-1.4 3.8-2.3 3.8-.6 0-.9-.4-.7-1.7l.9-4.2zm-1.9 3.1c-.3 1.6-1.4 2.9-2.7 2.9-.9 0-1.3-.6-1.3-1.5 0-2 1.4-3.5 3.2-3.5.5 0 .9.1 1.2.2l-.4 1.9zm-23.2-3.1c-.5-.3-1.4-.5-2.3-.5-3 0-5.1 2.5-5.1 5.3 0 1.8 1 2.8 2.3 2.8 1.1 0 2.1-.5 3-1.7 0 1.2.7 1.7 1.7 1.7 2 0 4-1.9 4-5.5 0-3.8-2.7-6.4-6.5-6.4-4.9 0-8 3.8-8 8.6 0 4.4 3.1 7.1 6.6 7.1 1.4 0 2.7-.2 3.9-.9l-.5-1.5c-.8.5-2 .7-3.2.7-2.9 0-5.4-2-5.4-5.6 0-4.4 2.9-6.9 6.3-6.9 3.2 0 5.3 1.8 5.3 4.9 0 2.6-1.4 3.8-2.3 3.8-.6 0-.9-.4-.7-1.7l.9-4.2zm-2 3.1c-.3 1.6-1.4 2.9-2.7 2.9-.9 0-1.3-.6-1.3-1.5 0-2 1.4-3.5 3.2-3.5.5 0 .9.1 1.2.2l-.4 1.9zm13.7 13.6c-.5-.3-1.4-.5-2.3-.5-3 0-5.1 2.5-5.1 5.3 0 1.8 1 2.8 2.3 2.8 1.1 0 2.1-.5 3-1.7 0 1.2.7 1.7 1.7 1.7 2 0 4-1.9 4-5.5 0-3.8-2.7-6.4-6.5-6.4-4.9 0-8 3.8-8 8.6 0 4.4 3.1 7.1 6.6 7.1 1.4 0 2.7-.2 3.9-.9l-.5-1.5c-.8.5-2 .7-3.2.7-2.9 0-5.4-2-5.4-5.6 0-4.4 2.9-6.9 6.3-6.9 3.2 0 5.3 1.8 5.3 4.9 0 2.6-1.4 3.8-2.3 3.8-.6 0-.9-.4-.7-1.7l.9-4.2zm-1.9 3.1c-.3 1.6-1.4 2.9-2.7 2.9-.9 0-1.3-.6-1.3-1.5 0-2 1.4-3.5 3.2-3.5.5 0 .9.1 1.2.2l-.4 1.9z"/></svg>