<svg version="1.0" id="Направляющие" xmlns="http://www.w3.org/2000/svg" x="0" y="0" viewBox="0 0 60 85" xml:space="preserve"><linearGradient id="cian_1_" gradientUnits="userSpaceOnUse" x1="30" y1="6.962" x2="30" y2="77.674"><stop offset="0" stop-color="#eaeaea"/><stop offset="1" stop-color="#f9f9f9"/></linearGradient><path id="cian" fill="url(#cian_1_)" d="M0 0h60v85H0z"/><g id="отзывы_о_доме" fill="#1D85AA"><path d="M35.2 46.9v-.1l-9.7-9.6-9.9 9.8v12h7.9v-8H27v7.9h8.2v-12zm-1.4 10.6h-5.4v-7.9h-6.3v7.9H17v-9.9l8.5-8.5 8.3 8.4v10z"/><g id="комменты_1_"><path d="M35 41.2l-1-2.4-4.8-2 4.1-10.1 13.1 5.4-4.1 10.1-4.8-2-2.5 1zm-4.4-5l4.2 1.7.8 1.8 1.8-.8 4.2 1.7 3.3-8.1L33.8 28l-3.2 8.2z"/><path transform="rotate(-67.685 38.586 32.433)" d="M38 28.6h1.1v7.6H38z"/><path transform="rotate(-67.685 37.76 34.447)" d="M37.2 30.6h1.1v7.6h-1.1z"/><path transform="rotate(-67.685 35.925 36.05)" d="M35.4 33.3h1.1v5.4h-1.1z"/></g></g></svg>