<svg version="1.0" id="Направляющие" xmlns="http://www.w3.org/2000/svg" x="0" y="0" viewBox="0 0 60 85" xml:space="preserve"><g id="деливери_клаб"><path fill="#9CCD2D" d="M0 0h60v85H0z"/><path fill="#191919" d="M20.4 46.7c1-.5 2-2.1 1.3-3.1-.3.5-1.1.7-1.8 1-.7.2-1.3.7-1.8.8 0-.5-.2-1-.5-1.3-.7.5-.5 1.6-.2 2.4-1-.5-1.6-1.8-1.8-2.9s.8-2 1.5-2.8c1.3-1.8 5-2.1 6.5-2.3 2.1-1 2.9-1.8 4.7-2.3 2-.7 3.1-.3 5-.3.8 0 1.8 0 2.6.3 1 .3 2 .8 2.9 1.5.7.5 1.1 1 2.1.5s1.1-1.8 1-2.8c-.2-2-1.6-3.1-2.3-4.7-.5-1-.5-2.4.2-3.4.2-.5.7-1 1.3-1.1.7-.2 1 .7 1.6.8.5.2 2 .5 2 .7s-1.3.7-1.6.5c-.8-.2-1.5.7-1.5 1.6 0 1.3 1 2.4 1.6 3.4 1.5 2.3 1 4.6-.5 6.7-.5.7-1 1.3-1.3 2-.3.5-.2 1-.2 1.6 0 .5-.2.8-.3 1.3-.3.8-1.1 1.5-1.8 2.1-1.6 1.1-3.3.7-5 .5-1-.2-1.8-.2-2.8-.2-1 0-2 .3-2.9.5-.8.2-1.6.2-2.4.7-.8.3-1.3 1.1-1.6 1.8-.2.3-.5.8-.5 1.1-.2.5-.2 1-.2 1.3-.2.8-.3 1.8-.5 2.6 0 .3 0 1-.2 1.3-.2.3-.7.5-1 .7-.7.5-1.3 1-2.1 1.3-.3.2-.7.2-1 .3.5-.5.3-1.5 1-1.8-.3-1.1 1-1 1.5-1.5s.7-1.8.8-2.4c.3-1 .5-2.1.5-3.1 0-.5-.2-1 0-1.6v-.3c0-.2.2-.2.5-.3.7-.3 2.1-.5 2.4-1.3-.7.3-1.6.2-2.3.3-1.1-.5-2 .4-2.9-.1m13 1.4c.8 1.1.2 2.4.2 2.6-.2.3-.5.7 1.1 1.6 2 1.3 4.1 2.1 5.7 3.9.3.3 1 .7 1.1 1 .3.5.2 1 .8 1.3.3.2.7.2.8-.2.3.7 2.1.2 2.8.5 0-.2-.2-.5-.3-.7-.3-.3-1.6-.3-2-.7-.5-.3-.8-1-1.3-1.3-.8-1-2.1-1.5-3.1-2.3-1.3-1-3.1-1.5-3.6-2.9-.3-.7 0-2 0-2.9-.5 0-1.6-.2-2.1-.3l-.1.4z"/></g></svg>