<svg version="1.0" xmlns="http://www.w3.org/2000/svg" viewBox="0 0 60 85"><g id="фоны"><g id="spotify"><path fill="#00D557" d="M0 0h60v85H0z" id="svg_2"/></g></g><g id="иконки"><g id="плейлист_подписчики"><path d="M31.084 53.179c-.364-.34-1.278-.858-1.82-1.222H16.798c-.51 0-.99-.635-.99-1.146V31.862c0-.51.48-1.001.99-1.001h13.865c.51 0 1.149.49 1.149 1.001v1.42c.727-.485 1.818-.876 2.182-1.168V31.4c0-1.532-1.337-2.722-2.869-2.722h-14.79c-1.53 0-2.71 1.19-2.71 2.722v22.184c0 1.532 1.18 2.738 2.71 2.738h14.75v-3.143zm-7.483 1.972a1.117 1.117 0 110-2.234 1.117 1.117 0 010 2.234z"/><path d="M20.085 33.546l-.003 5.86a1.67 1.67 0 00-.556-.089c-.22 0-.446.04-.668.12-.31.106-.562.274-.75.5-.193.232-.29.475-.29.722 0 .155.039.297.116.418.177.297.488.447.925.447.2 0 .419-.032.65-.094.314-.08.671-.243.906-.478.27-.258.485-.541.485-.844v-4.234l3.637-.714v3.532c0-.059-.332-.089-.533-.089-.219 0-.434.041-.657.12a1.625 1.625 0 00-.744.5c-.193.232-.288.475-.288.723 0 .155.041.297.118.417.177.297.489.447.927.447.2 0 .418-.032.649-.093.314-.081.604-.244.839-.479.27-.258.416-.542.416-.843v-6.563l-5.18.714zm4.815 11.5c0 .2-.162.364-.363.364h-6.183a.364.364 0 01-.364-.364v-.727c0-.201.163-.364.364-.364h6.183c.2 0 .364.163.364.364v.727zm0 3.274c0 .2-.162.363-.363.363h-6.183a.364.364 0 01-.364-.363v-.728c0-.2.163-.363.364-.363h6.183c.2 0 .364.162.364.363v.728z"/><path d="M33.662 43.192s1.425-.627 2.68-.74c0 0 .735.826 2.277.854 1.542.029 2.255-.855 2.255-.855s1.738.173 2.993.856c1.254.683 2.622 1.082 2.48 6.812 0 0-.998 2.28-7.982 2.28 0 0 2.737-6.955-4.703-9.207zm4.903-11.031s3.392-.2 3.848 2.28c.456 2.48.2 3.792.2 3.792s-.428 2.052-1.768 2.992c-1.34.941-2.28.827-2.28.827s-1.796-.17-2.566-1.14c-.77-.97-1.31-1.796-1.425-3.563s.285-2.936.285-2.936.456-2.337 3.706-2.252zm-5.786 19.355h1.396v-1.74h1.796V48.41h-1.796l-.057-1.768h-1.34v1.74l-1.795-.058v1.425h1.767z" id="подписчики_1_"/></g></g></svg>