<svg version="1.0" id="Направляющие" xmlns="http://www.w3.org/2000/svg" x="0" y="0" viewBox="0 0 60 85" xml:space="preserve"><path id="tidal" stroke="#000" stroke-width=".094" d="M0 0h60v85H0z"/><g id="playlist_прослушивания" fill="#FFF"><path d="M31.1 53.2c-.4-.3-1.3-.9-1.8-1.2H16.8c-.5 0-1-.6-1-1.1v-19c0-.5.5-1 1-1h13.9c.5 0 1.1.5 1.1 1v1.4c.7-.5 1.8-.9 2.2-1.2v-.7c0-1.5-1.3-2.7-2.9-2.7H16.3c-1.5 0-2.7 1.2-2.7 2.7v22.2c0 1.5 1.2 2.7 2.7 2.7H31v-3.1zm-7.5 2c-.6 0-1.1-.5-1.1-1.1 0-.6.5-1.1 1.1-1.1s1.1.5 1.1 1.1c0 .6-.5 1.1-1.1 1.1z"/><path d="M20.1 33.5v5.9c-.2-.1-.4-.1-.6-.1-.2 0-.4 0-.7.1-.3.1-.6.3-.8.5-.2.2-.3.5-.3.7 0 .2 0 .3.1.4.2.3.5.4.9.4.2 0 .4 0 .6-.1.3-.1.7-.2.9-.5.3-.3.5-.5.5-.8v-4.2l3.6-.7v3.5c0-.1-.3-.1-.5-.1s-.4 0-.7.1c-.3.1-.6.3-.7.5-.2.2-.3.5-.3.7 0 .2 0 .3.1.4.2.3.5.4.9.4.2 0 .4 0 .6-.1.3-.1.6-.2.8-.5.3-.3.4-.5.4-.8v-6.6l-4.8.9zM24.9 45c0 .2-.2.4-.4.4h-6.2c-.2 0-.4-.2-.4-.4v-.7c0-.2.2-.4.4-.4h6.2c.2 0 .4.2.4.4v.7zm0 3.3c0 .2-.2.4-.4.4h-6.2c-.2 0-.4-.2-.4-.4v-.7c0-.2.2-.4.4-.4h6.2c.2 0 .4.2.4.4v.7zM39.4 33v5.3c1.3.5 2.3 1.8 2.3 3.2 0 1.9-1.5 3.5-3.5 3.5-1.9 0-3.5-1.5-3.5-3.5 0-1.4.9-2.7 2.1-3.2v-5.5c-2 .1-3.9 1-5.4 2.4-.5.4-.9.9-1.3 1.5-.2.2-.3.7-.4.7-.4 1-.7 2.2-.7 3.5l-1.8 4c-.2.4-.2.7.1 1.1.2.3.6.5 1 .5h1l.1 1.4c0 1.9 1.5 3.6 3.4 3.9v4.5h10.5v-7.4c1.8-1.6 2.9-4.5 2.9-7.3.2-4.2-2.8-7.7-6.8-8.6z"/></g></svg>