<svg version="1.0" id="Направляющие" xmlns="http://www.w3.org/2000/svg" x="0" y="0" viewBox="0 0 60 85" xml:space="preserve"><g id="vimeo"><path id="canvas_background_9_" fill="#5FCCFF" d="M0 0h60v85H0z"/></g><path d="M21.9 44s2.3-1 4.3-1.2c0 0 1.2 1.3 3.7 1.4s3.7-1.4 3.7-1.4 2.8.3 4.9 1.4c2 1.1 4.3 1.8 4 11 0 0-1.6 3.7-12.9 3.7-.1 0 4.3-11.3-7.7-14.9zm7.9-17.9s5.5-.3 6.2 3.7.3 6.1.3 6.1-.7 3.3-2.9 4.9-3.7 1.3-3.7 1.3-2.9-.3-4.2-1.8c-1.2-1.6-2.1-2.9-2.3-5.8-.2-2.9.5-4.8.5-4.8s.9-3.7 6.1-3.6zm-9.4 31.4h2.3v-2.8h2.9v-2.3h-2.9l-.1-2.8h-2.2v2.8l-2.9-.1v2.3h2.9z" fill="#FFF" id="подписчики_1_"/></svg>