<svg version="1.0" xmlns="http://www.w3.org/2000/svg" viewBox="0 0 60 85"><g id="фоны"><path id="reddit" fill="#FF4500" d="M0 0h60v85H0z"/></g><g id="иконки"><g fill="#FFF" id="посетители"><path d="M21.88 43.982s2.311-1.017 4.345-1.202c0 0 1.192 1.34 3.693 1.387s3.656-1.387 3.656-1.387 2.819.28 4.853 1.388c2.033 1.108 4.252 1.755 4.02 11.045 0 0-1.617 3.698-12.94 3.698 0 0 4.436-11.278-7.627-14.929zm7.95-17.886s5.5-.324 6.24 3.697.323 6.147.323 6.147-.693 3.328-2.866 4.853-3.697 1.34-3.697 1.34-2.912-.277-4.16-1.848c-1.248-1.572-2.126-2.912-2.31-5.778-.186-2.865.462-4.76.462-4.76s.739-3.79 6.008-3.651z"/><path d="M22.558 52.358a.53.53 0 10.949-.468l-1.4-2.836a.53.53 0 10-.949.468l1.4 2.836zm.97 2.05a.53.53 0 00.739.758l2.265-2.208a.53.53 0 00-.74-.758l-2.264 2.208zm-1.65 1.556a.53.53 0 00-.492.936l2.8 1.472a.53.53 0 10.492-.937l-2.8-1.471zm-1.989-1.088a.53.53 0 10-1.043-.179l-.534 3.117a.53.53 0 101.043.18l.534-3.118zm.42-2.228a.53.53 0 00-.152-1.048l-3.13.455a.53.53 0 00.152 1.048l3.13-.455z"/><path d="M26.086 53.103a.53.53 0 00.152-1.048l-3.13-.455a.53.53 0 00-.152 1.048l3.13.455zm-2.176 4.89a.53.53 0 101.044-.179l-.535-3.117a.53.53 0 10-1.043.179l.534 3.117zm-5.323-.558a.53.53 0 00.492.937l2.8-1.472a.53.53 0 10-.493-.936l-2.8 1.471zM17.472 52.2a.53.53 0 00-.738.758l2.264 2.208a.53.53 0 10.74-.758L17.471 52.2zm4.635-2.678a.53.53 0 10-.949-.468l-1.4 2.836a.53.53 0 10.95.468l1.4-2.836z"/></g></g></svg>