<svg version="1.0" id="Направляющие" xmlns="http://www.w3.org/2000/svg" xmlns:xlink="http://www.w3.org/1999/xlink" x="0" y="0" viewBox="0 0 60 85" xml:space="preserve"><symbol id="Новый_символ_1" viewBox="-11.2 -14.8 22.5 29.6"><path fill="#FFF" d="M-7.3-1.3s2.1.9 3.9 1.1c0 0 1.1-1.2 3.3-1.3S3.2-.2 3.2-.2s2.5-.3 4.4-1.3 3.8-1.6 3.6-10c0 0-1.5-3.3-11.7-3.3.1 0 4.1 10.2-6.8 13.5zm7.1 16.1s5 .3 5.6-3.3.3-5.5.3-5.5-.6-3-2.6-4.4S-.2.4-.2.4-2.8.6-3.9 2-5.8 4.6-6 7.2c-.2 2.6.4 4.3.4 4.3s.7 3.4 5.4 3.3zm-8.4-28.3h2v2.5h2.7v2h-2.7l-.1 2.6h-1.9v-2.5l-2.6.1v-2.1h2.5z"/></symbol><path id="telegram" fill="#37AEE2" d="M0 0h60v85H0z"/><use xlink:href="#Новый_символ_1" width="22.5" height="29.6" id="подписчики_1_" x="-11.2" y="-14.8" transform="matrix(1.1092 0 0 -1.1092 30 42.5)" overflow="visible"/></svg>