<svg version="1.0" id="Направляющие" xmlns="http://www.w3.org/2000/svg" x="0" y="0" viewBox="0 0 60 85" xml:space="preserve"><g id="instagram"><linearGradient id="canvas_background_1_" gradientUnits="userSpaceOnUse" x1="30" y1="85" x2="30" y2="0" gradientTransform="matrix(1 0 0 -1 0 85)"><stop offset=".162" stop-color="#a137a1"/><stop offset=".405" stop-color="#d10869"/><stop offset=".862" stop-color="#f68136"/></linearGradient><path id="canvas_background" fill="url(#canvas_background_1_)" d="M0 0h60v85H0z"/></g><g id="подписка_на_лайки_1_" transform="translate(0 -540.362)" fill="#FFF"><path id="path3036_1_" d="M30.2 566.7c-1.1 0-2.2.1-3.3.3-8.8 1.8-14.4 10.4-12.6 19.2 1.8 8.8 10.4 14.4 19.2 12.6l-.5-2.2c-7.6 1.6-15-3.3-16.5-10.9-1.6-7.6 3.3-15 10.9-16.5 7.6-1.6 15 3.3 16.5 10.9.7 3.2.2 6.5-1.3 9.3l-1.5-.9-.8 7.4 6.1-4.4-1.8-1c1.8-3.3 2.3-7.2 1.6-10.9-1.6-7.6-8.4-12.9-16-12.9z"/><path id="просмотры_1_" d="M30.2 580.1c0 1.6-1.3 2.9-2.9 2.9 0 1.6 1.3 2.9 2.9 2.9 1.6 0 2.9-1.3 2.9-2.9 0-1.6-1.3-2.9-2.9-2.9zm0-5.8c-5.9 0-11.5 6.7-11.5 8.6 0 1.9 5.6 8.6 11.5 8.6s11.5-6.7 11.5-8.6c.1-1.9-5.5-8.6-11.5-8.6zm0 14.4c-3.2 0-5.8-2.6-5.8-5.8 0-3.2 2.6-5.8 5.8-5.8s5.8 2.6 5.8 5.8c0 3.3-2.6 5.8-5.8 5.8z"/></g></svg>