<svg version="1.0" id="Слой_1" xmlns="http://www.w3.org/2000/svg" x="0" y="0" viewBox="0 0 60 85" xml:space="preserve"><g id="фоны"><path id="snapchat" fill="#FFFC00" d="M0 0h60v85H0z"/></g><g id="иконки"><path d="M21.88 43.982s2.311-1.017 4.345-1.202c0 0 1.192 1.34 3.693 1.387s3.656-1.387 3.656-1.387 2.819.28 4.853 1.388c2.033 1.108 4.252 1.755 4.02 11.045 0 0-1.617 3.698-12.94 3.698 0 0 4.436-11.278-7.627-14.929zm7.95-17.886s5.5-.324 6.24 3.697.323 6.147.323 6.147-.693 3.328-2.866 4.853-3.697 1.34-3.697 1.34-2.912-.277-4.16-1.848c-1.248-1.572-2.126-2.912-2.31-5.778-.186-2.865.462-4.76.462-4.76s.739-3.79 6.008-3.651zm-9.382 31.382h2.264v-2.82h2.912V52.44h-2.912l-.092-2.865h-2.172v2.819l-2.912-.093v2.311H20.4z" fill="#FFF" stroke="#000" stroke-width=".75" stroke-miterlimit="10" id="подписчики_2_"/></g></svg>