<svg version="1.0" xmlns="http://www.w3.org/2000/svg" viewBox="0 0 60 85"><g id="фоны"><path id="twitch" fill="#AF7AFE" d="M0 0h60v85H0z"/></g><g id="иконки"><path fill="#FFF" d="M14.603 982.072c-.558.059-.981.53-.978 1.092v23.289c0 .603.489 1.091 1.092 1.091h30.566c.603 0 1.092-.488 1.092-1.091v-23.29c0-.602-.489-1.09-1.092-1.09H14.717a1.104 1.104 0 00-.114 0zm1.205 2.183h28.384v21.106H15.808v-21.106zm9.314 3.276a1.092 1.092 0 00-.944 1.091v12.372a1.092 1.092 0 001.58.967l12.373-6.186a1.092 1.092 0 000-1.945l-12.373-6.186a1.091 1.091 0 00-.636-.113zm1.24 2.842l8.846 4.435-8.847 4.412v-8.847z" transform="translate(0 -952.362)" id="видео_просмотры"/></g></svg>