<svg version="1.0" xmlns="http://www.w3.org/2000/svg" viewBox="0 0 60 85"><g id="фоны"><path id="twitch" fill="#AF7AFE" d="M0 0h60v85H0z"/></g><g id="иконки"><g id="prime_twitch"><g id="Слой_14__x28_копия_x29_"><linearGradient id="SVGID_1_" gradientUnits="userSpaceOnUse" x1="22.976" y1="44.649" x2="20.431" y2="33.601"><stop offset="0" stop-color="#ce7afe"/><stop offset="1" stop-color="#8e51fe"/></linearGradient><path fill="url(#SVGID_1_)" d="M25.687 30.56h.607v4.538l-7.865 7.897h-2.397z"/><linearGradient id="SVGID_2_" gradientUnits="userSpaceOnUse" x1="13.152" y1="42.067" x2="22.087" y2="33.324"><stop offset="0" stop-color="#bc6ffe"/><stop offset="1" stop-color="#8e51fe"/></linearGradient><path fill="url(#SVGID_2_)" d="M19.762 30.56h5.925v4.282L15.584 44.55v-1.523l-2.398.032v-5.947z"/><path fill="#FFF" d="M20.38 36.153h1.502v1.151l1.151-1.15h1.343l1.31-1.312V31.23H20.38z"/><path fill="#AF7AFE" d="M22.17 32.413h.671v1.982h-.671zm1.822 0h.671v1.982h-.671z"/></g><g id="Слой_14__x28_копия2_x29_"><linearGradient id="SVGID_3_" gradientUnits="userSpaceOnUse" x1="34.705" y1="59.804" x2="32.793" y2="51.504"><stop offset="0" stop-color="#ce7afe"/><stop offset="1" stop-color="#8e51fe"/></linearGradient><path fill="url(#SVGID_3_)" d="M36.741 49.219h.457v3.41L31.29 58.56h-1.802z"/><linearGradient id="SVGID_4_" gradientUnits="userSpaceOnUse" x1="27.325" y1="57.864" x2="34.037" y2="51.296"><stop offset="0" stop-color="#bc6ffe"/><stop offset="1" stop-color="#8e51fe"/></linearGradient><path fill="url(#SVGID_4_)" d="M32.29 49.219h4.451v3.218l-7.589 7.292v-1.144l-1.801.024v-4.467z"/><path fill="#FFF" d="M32.755 53.421h1.128v.865l.865-.865h1.009l.984-.984v-2.714h-3.986z"/><path fill="#AF7AFE" d="M34.1 50.611h.504V52.1H34.1zm1.369 0h.504V52.1h-.504z"/></g><g id="Слой_14"><linearGradient id="SVGID_5_" gradientUnits="userSpaceOnUse" x1="35.286" y1="56.231" x2="31.059" y2="37.882"><stop offset="0" stop-color="#ce7afe"/><stop offset="1" stop-color="#8e51fe"/></linearGradient><path fill="url(#SVGID_5_)" d="M39.788 32.83h1.008v7.539L27.735 53.484h-3.983z"/><linearGradient id="SVGID_6_" gradientUnits="userSpaceOnUse" x1="18.97" y1="51.942" x2="33.809" y2="37.423"><stop offset="0" stop-color="#bc6ffe"/><stop offset="1" stop-color="#8e51fe"/></linearGradient><path fill="url(#SVGID_6_)" d="M29.948 32.83h9.84v7.114l-16.78 16.123v-2.53l-3.981.053v-9.876z"/><path fill="#FFF" d="M30.973 42.12h2.496v1.912l1.912-1.911h2.23l2.177-2.177v-6h-8.815z"/><path fill="#AF7AFE" d="M33.947 35.909h1.115v3.292h-1.115zm3.026 0h1.115v3.292h-1.115z"/></g><g id="Слой_17"><linearGradient id="SVGID_7_" gradientUnits="userSpaceOnUse" x1="37.245" y1="30.722" x2="42.541" y2="25.54"><stop offset="0" stop-color="#bc6ffe"/><stop offset="1" stop-color="#8e51fe"/></linearGradient><path fill="url(#SVGID_7_)" stroke="#FFF" stroke-width=".5" stroke-miterlimit="10" d="M35.858 24.984v3.982l.672 1.593h8.132l1.073-1.593v-3.982l-2.49 2.07-2.206-2.07-2.687 2.23z"/></g></g></g></svg>