<svg version="1.0" id="Направляющие" xmlns="http://www.w3.org/2000/svg" x="0" y="0" viewBox="0 0 60 85" xml:space="preserve"><path id="canvas_background_2_" fill="#4C75A3" d="M0 0h60v85H0z"/><path fill="#FFF" d="M14.6 982.1c-.6.1-1 .5-1 1.1v23.3c0 .6.5 1.1 1.1 1.1h30.6c.6 0 1.1-.5 1.1-1.1v-23.3c0-.6-.5-1.1-1.1-1.1H14.6zm1.2 2.2h28.4v21.1H15.8v-21.1zm9.3 3.2c-.5.1-.9.5-.9 1.1v12.4c0 .6.5 1.1 1.1 1.1.2 0 .3 0 .5-.1l12.4-6.2c.5-.3.7-.9.5-1.5-.1-.2-.3-.4-.5-.5l-12.4-6.2c-.2-.1-.5-.1-.7-.1zm1.3 2.9l8.8 4.4-8.8 4.4v-8.8z" transform="translate(0 -952.362)"/></svg>