<svg version="1.2" baseProfile="tiny" xmlns="http://www.w3.org/2000/svg" viewBox="0 0 60 85" overflow="visible"><g id="фоны"><linearGradient id="flikr_1_" gradientUnits="userSpaceOnUse" x1="4.127" y1="23.32" x2="52.327" y2="59.051"><stop offset="0" stop-color="#fff"/><stop offset="1" stop-color="#d1d1d1"/></linearGradient><path id="flikr" fill-rule="evenodd" fill="url(#flikr_1_)" d="M0 0h60v85H0z"/></g><g id="иконки"><path d="M38.188 52.892H16.9V37.566h4.904s1.203-1.68 3.642-3.258H15.262a1.63 1.63 0 00-1.637 1.63V54.52c0 .896.733 1.63 1.637 1.63h24.563a1.63 1.63 0 001.638-1.63v-9.296l-3.276 2.678v4.99zm-2.73-13.125v5.45l10.917-8.145-10.917-8.222v5.092c-13.202 0-13.645 14.012-13.645 14.012 3.735-6.098 6.481-8.187 13.645-8.187z" id="репост"/></g></svg>