<svg version="1.2" baseProfile="tiny" xmlns="http://www.w3.org/2000/svg" viewBox="0 0 60 85" overflow="visible"><g id="фоны"><g id="vk"><path id="canvas_background_2_" fill="#4C75A3" d="M0 0h60v85H0z"/></g></g><g id="иконки"><path d="M46.008 40.297a2.991 2.991 0 00-2.748-1.66h-8.813a24.11 24.11 0 001.822-1.612c2.532-2.542 3.276-5.57 2.381-9.003a3.325 3.325 0 00-.694-1.392.983.983 0 00-1.38-.2 2.971 2.971 0 00-.412.328 9.651 9.651 0 00-1.104 1.29c-.452.594-.868 1.213-1.34 1.793l-.19.262c-.138.183-.288.37-.442.563a23.67 23.67 0 01-1.566 1.786 19.266 19.266 0 01-2.051 1.965c-.35.328-.718.655-1.094.944a11.538 11.538 0 01-2.506 1.674 7.78 7.78 0 01-1.429.655l-.236.108c-.5.269-1.031.476-1.582.616l-.082.04c-.085.042-.206.055-.203.192.003.138 0 .21 0 .328v15.741c-.06.808.526 1.52 1.33 1.615 1.31.22 2.654.43 3.98.655 2.792.446 5.586.872 8.374 1.34a6.025 6.025 0 006.817-4.2c.775-2.57 1.54-5.145 2.293-7.724.2-.685.436-1.36.587-2.061a.033.033 0 000-.04c.24-.64.433-1.297.58-1.965a2.818 2.818 0 00-.292-2.038zM18.08 37.808h-4.455v19.285h4.455a2.05 2.05 0 002.045-2.044V39.855a2.05 2.05 0 00-2.045-2.047z" id="thumb_up_2_" fill="#FFF"/></g></svg>