<svg version="1.0" xmlns="http://www.w3.org/2000/svg" viewBox="0 0 60 85"><g id="фоны"><linearGradient id="Steam_1_" gradientUnits="userSpaceOnUse" x1="26.084" y1="34.948" x2="53.704" y2="88.213"><stop offset="0" stop-color="#111d2e"/><stop offset=".212" stop-color="#051839"/><stop offset=".407" stop-color="#0a1b48"/><stop offset=".581" stop-color="#132e62"/><stop offset=".738" stop-color="#144b7e"/><stop offset=".873" stop-color="#136497"/><stop offset="1" stop-color="#1387b8"/></linearGradient><path id="Steam" fill="url(#Steam_1_)" d="M0 0h60v85H0z"/></g><g id="иконки"><path fill="#FFF" d="M38.188 52.892H16.9V37.566h4.904s1.203-1.68 3.642-3.258H15.262a1.63 1.63 0 00-1.637 1.63V54.52c0 .896.733 1.63 1.637 1.63h24.563a1.63 1.63 0 001.638-1.63v-9.296l-3.276 2.678v4.99zm-2.73-13.125v5.45l10.917-8.145-10.917-8.222v5.092c-13.202 0-13.645 14.012-13.645 14.012 3.735-6.098 6.481-8.187 13.645-8.187z" id="репост"/></g></svg>