<svg version="1.0" id="Направляющие" xmlns="http://www.w3.org/2000/svg" x="0" y="0" viewBox="0 0 60 85" xml:space="preserve"><g id="imdb"><path id="canvas_background_10_" fill="#E5B922" d="M0 0h60v85H0z"/></g><path fill="#FFF" d="M15.3 45.8h4.9c.9 0 1.6.7 1.6 1.6v9.8c0 .9-.7 1.6-1.6 1.6h-4.9c-.9 0-1.6-.7-1.6-1.6v-9.8c-.1-.9.7-1.6 1.6-1.6zm12.2-19.7h4.9c.9 0 1.6.7 1.6 1.6v29.5c0 .9-.7 1.6-1.6 1.6h-4.9c-.9 0-1.6-.7-1.6-1.6V27.8c0-.9.7-1.7 1.6-1.7zM39.8 36h4.9c.9 0 1.6.7 1.6 1.6v19.6c0 .9-.7 1.6-1.6 1.6h-4.9c-.9 0-1.6-.7-1.6-1.6V37.6c0-.9.7-1.6 1.6-1.6z" id="опрос"/></svg>