<svg version="1.2" baseProfile="tiny" xmlns="http://www.w3.org/2000/svg" viewBox="0 0 60 85" overflow="visible"><g id="фоны"><path id="яндекс" fill="#FFE033" d="M0 0h60v85H0z"/></g><g id="иконки"><path id="favorites" fill="#FFF" stroke="#D3D3D3" stroke-width="3" stroke-miterlimit="10" d="M37.391 46.632l8.984-7.581-10.576-.758a1.063 1.063 0 01-.871-.607L30 26.921l-4.928 10.765a1.063 1.063 0 01-.871.607l-10.576.758 8.984 7.58c.303.266.454.683.34 1.062l-2.918 10.386 9.438-6.103a1.033 1.033 0 011.137 0l9.439 6.103-2.919-10.424c-.19-.341-.038-.758.265-1.023z"/><path fill="red" d="M31.29 39.787h-1.018c-1.017 0-1.892.757-1.892 2.224 0 .875.426 1.537 1.159 1.868l-1.372 2.46c-.047.07 0 .142.071.142h.639a.13.13 0 00.118-.071l1.253-2.413h.45v2.413c0 .023.023.07.07.07h.568c.048 0 .071-.023.071-.07v-6.528c-.023-.07-.047-.095-.118-.095zm-.592 3.643h-.379c-1.631 0-1.513-3.075-.07-3.075h.472v3.075h-.023z"/></g></svg>