<svg version="1.2" baseProfile="tiny" xmlns="http://www.w3.org/2000/svg" viewBox="0 0 60 85" overflow="visible"><g id="фоны"><path id="яндекс" fill="#FFE033" d="M0 0h60v85H0z"/></g><g id="лого"><g id="Uslugi"><path d="M19.565 32.722a9.565 9.565 0 110 19.13 9.565 9.565 0 110-19.13z"/><path fill="#FFF" d="M20.79 38.141h-.884c-1.62 0-2.472.82-2.472 2.03 0 1.368.589 2.01 1.799 2.83l1 .674-2.873 4.292h-2.146l2.578-3.84c-1.484-1.062-2.315-2.093-2.315-3.84 0-2.188 1.526-3.682 4.419-3.682h2.872v11.352H20.79v-9.816z"/><path fill="#242729" d="M40.06 32.722a9.565 9.565 0 110 19.13 9.569 9.569 0 01-9.055-6.479 9.553 9.553 0 01-.51-3.086 9.565 9.565 0 019.565-9.565z"/><path fill="#ED7647" d="M49.373 40.114s-1.175-5.368-5.898-6.792l-5.517 3.02c-2.57 1.406-3.401 4.759-1.689 7.136l.084.114c2.526 3.39 7.572 0 7.572 0l5.448-3.478z"/><path fill="#FBE47E" d="M35.62 42.286c3.07-2.052 7.18-3.792 9.13.373s-1.5 6.03-1.5 6.03l-5.098 3.162c-5.546-.99-7.147-6.478-7.147-6.478l4.616-3.087"/></g></g></svg>