<svg version="1.0" id="Направляющие" xmlns="http://www.w3.org/2000/svg" x="0" y="0" viewBox="0 0 60 85" xml:space="preserve"><path id="facebook" fill="#3A5BA2" d="M0 0h60v85H0z"/><path fill="#FFF" d="M30 26.1c-9 0-16.4 7.3-16.4 16.4S21 58.9 30 58.9s16.4-7.3 16.4-16.4S39 26.1 30 26.1zM17.5 47.6c0-2 1.3-3.7 3.2-4.3.2-.1.2-.3.1-.4-.8-.7-1.3-1.7-1.3-3 0-2 1.4-3.6 3.1-3.6s3.1 1.6 3.1 3.6c0 1.2-.5 2.3-1.3 3-.2.1-.1.4.1.5.2.1.3.1.5.2s.2.4.1.6c-1.1.9-1.9 2.2-2.3 3.6h-5.3zm6.8.6c0-2.2 1.5-4.2 3.7-4.9.2-.1.2-.3.1-.5-.9-.7-1.5-2-1.5-3.4 0-2.3 1.6-4.1 3.5-4.1s3.5 1.8 3.5 4.1c0 1.4-.6 2.7-1.5 3.4-.2.1-.1.4.1.5 2.1.8 3.7 2.7 3.7 4.9H24.3zm13-.6c-.3-1.4-1.2-2.7-2.3-3.6-.2-.1-.1-.4.1-.6.2-.1.3-.2.5-.2.2-.1.2-.3.1-.5-.8-.7-1.3-1.7-1.3-3 0-2 1.4-3.6 3.1-3.6 1.7 0 3.1 1.6 3.1 3.6 0 1.2-.5 2.3-1.3 3-.2.1-.1.4.1.4 1.9.7 3.2 2.3 3.2 4.3h-5.3z" id="group"/></svg>