<svg version="1.0" id="Направляющие" xmlns="http://www.w3.org/2000/svg" x="0" y="0" viewBox="0 0 60 85" xml:space="preserve"><g id="ок"><path id="canvas_background_4_" fill="#E67E17" d="M.1 0h60v85H.1z"/></g><path fill="#FFF" d="M40.4 29.5c0-1.1.1-2.3.1-3.4H19.7c0 1.1 0 2.2.1 3.4H14v1c0 5.7 1 12.2 8.3 16.4.9.5 2.1 1 3.3 1.3.9.9 2.1 1.5 3.5 1.7v1.5c0 3-2.4 5.4-5.4 5.4h-1.4v2h15.5v-2h-1.4c-3 0-5.4-2.4-5.4-5.4v-1.5c1.3-.2 2.5-.8 3.5-1.7 1.2-.3 2.4-.7 3.3-1.3 7.4-4.3 8.3-10.7 8.3-16.4v-1h-5.7zm-24.4 2h3.8c.3 4.8 1.2 9.7 3.5 13.6-6-3.4-7.2-8.5-7.3-13.6zm20.8 13.7c2.3-4 3.2-8.8 3.5-13.6h3.8c-.1 5-1.3 10.1-7.3 13.6z" id="кубок"/></svg>