<svg version="1.2" baseProfile="tiny" xmlns="http://www.w3.org/2000/svg" viewBox="0 0 60 85" overflow="visible"><g id="фоны"><path fill="#7289DA" d="M0 0h60v85H0z" id="Discord"/></g><g id="иконки"><g id="реакции"><path fill="#99E1FF" d="M39.62 33.682v3.741h2.137v2.138l2.138-2.138h2.137v-3.74z"/><path fill="#EF476F" d="M31.096 52.343L30 53.527l-1.096-1.184a1.47 1.47 0 00-2.191 0 1.773 1.773 0 000 2.369L30 58.265l3.287-3.553a1.773 1.773 0 000-2.37 1.47 1.47 0 00-2.191 0z"/><path fill="#2C618F" d="M14.502 33.682h6.947v7.482h-6.947z"/><circle fill="#26547C" cx="39.619" cy="55.593" r="1.069"/><circle fill="#26547C" cx="44.429" cy="54.524" r="1.069"/><path fill="#2C618F" d="M40.688 49.714v2.138l4.81-1.069v-2.137zm-21.376 1.604v-1.07h-3.207v1.07h-1.603a.535.535 0 00-.534.534v4.275c0 .295.24.535.534.535h6.413c.295 0 .535-.24.535-.535v-4.275a.535.535 0 00-.535-.534h-1.603z"/><path fill="#99E1FF" d="M17.709 55.059a1.069 1.069 0 110-2.138 1.069 1.069 0 010 2.138zm1.603-20.308h1.069v1.069h-1.069zm0 2.138h1.069v1.069h-1.069zm0 2.137h1.069v1.069h-1.069zm-3.741-4.275h1.069v1.069h-1.069zm0 2.138h1.069v1.069h-1.069zm0 2.137h1.069v1.069h-1.069z"/><path fill="#EF476F" d="M23.597 29.629l.043.478c.1 1.114 1.095 1.972 2.29 1.972h.265c.609 0 1.193-.226 1.624-.63l.557-.522a2.38 2.38 0 011.624-.63c.61 0 1.193.228 1.624.631l.557.522c.432.403 1.016.63 1.625.63h.265c1.195 0 2.19-.858 2.29-1.973l.042-.478c.139-1.558-1.175-2.894-2.845-2.894h-7.116c-1.67 0-2.984 1.336-2.845 2.894z"/><path fill="#E8E8E8" d="M34.275 30.476a.535.535 0 010-1.069.535.535 0 110 1.069zm-1.603-1.069a.535.535 0 010-1.069.535.535 0 010 1.069zm-4.81-.534h-1.068v-1.07h-1.07v1.07h-1.068v1.068h1.069v1.07h1.069v-1.07h1.068z"/><path fill="#3D3D3D" d="M39.967 31.673a13.99 13.99 0 00-1.806-1.31l-.556.912c.583.355 1.144.763 1.667 1.21l.695-.812zm-17.748-.953c-.66.446-1.286.953-1.861 1.508l.741.77c.532-.513 1.11-.98 1.719-1.393l-.6-.885zm-4.411 18.182l.937-.513a12.837 12.837 0 01-1.57-6.156h-1.07c0 2.331.59 4.638 1.703 6.67zm7.575 5.3a12.76 12.76 0 01-2.565-1.342l-.6.885a13.839 13.839 0 002.78 1.454l.385-.997zm9.234 0l.386.997a13.852 13.852 0 003.89-2.29l-.685-.82a12.808 12.808 0 01-3.59 2.113zm8.209-11.969c0 1.784-.36 3.51-1.067 5.13l.98.428a13.801 13.801 0 001.156-5.558h-1.07zm3.206-9.085H39.62a.534.534 0 00-.534.534v3.741c0 .296.24.535.534.535h1.604v1.603a.535.535 0 00.912.378l1.98-1.981h1.917a.534.534 0 00.535-.535v-3.74a.534.534 0 00-.535-.535zm-.534 3.74h-1.603a.533.533 0 00-.378.157l-1.226 1.226v-.848a.534.534 0 00-.534-.534h-1.603v-2.672h5.344v2.672zm-13.306 14.43c-.565 0-1.093.235-1.488.662l-.704.76-.703-.76a2.012 2.012 0 00-1.489-.662c-.564 0-1.092.235-1.488.662-.79.853-.79 2.241 0 3.094l3.287 3.553a.534.534 0 00.785 0l3.287-3.552c.79-.853.79-2.241 0-3.095a2.01 2.01 0 00-1.487-.662zm.703 3.03L30 57.479l-2.895-3.13a1.231 1.231 0 010-1.642c.19-.206.44-.32.703-.32s.513.114.704.32l1.095 1.184a.55.55 0 00.785 0l1.096-1.184a.956.956 0 011.406 0c.42.453.42 1.19 0 1.643z"/><path fill="#3D3D3D" d="M40.154 49.714v4.374a1.585 1.585 0 00-.535-.098c-.884 0-1.603.719-1.603 1.603s.72 1.603 1.603 1.603 1.604-.72 1.604-1.603V52.28l3.74-.832v1.57a1.598 1.598 0 00-.534-.098c-.884 0-1.603.72-1.603 1.603s.719 1.603 1.603 1.603 1.603-.719 1.603-1.603v-5.878a.534.534 0 00-.65-.522l-4.81 1.069a.535.535 0 00-.418.521zm-.535 6.413a.535.535 0 11.001-1.07.535.535 0 010 1.07zm4.81-1.068a.535.535 0 11.001-1.07.535.535 0 01-.001 1.07zm-3.206-4.916l3.74-.83v1.042l-3.74.83v-1.042zm-26.721 7.053h6.413c.59 0 1.069-.48 1.069-1.069v-4.275c0-.59-.48-1.069-1.069-1.069h-1.069v-.534a.534.534 0 00-.534-.535h-3.207a.534.534 0 00-.534.535v.534h-1.069c-.59 0-1.069.48-1.069 1.07v4.274c0 .59.48 1.07 1.07 1.07zm0-5.344h1.603a.534.534 0 00.535-.534v-.535h2.137v.535c0 .295.24.534.535.534h1.603v4.275h-6.413v-4.275zm7.482-10.688v-7.482a.534.534 0 00-.534-.534h-6.948a.534.534 0 00-.534.534v7.482c0 .296.24.534.534.534h6.948a.534.534 0 00.534-.534zm-1.069-.534h-5.878v-6.413h5.878v6.413zm2.193-10.475c.124 1.401 1.337 2.459 2.82 2.459h.266c.75 0 1.457-.276 1.99-.775l.556-.521c.66-.617 1.86-.617 2.519-.001l.557.522c.533.5 1.24.775 1.99.775h.265c1.484 0 2.697-1.058 2.822-2.46l.043-.478a3.073 3.073 0 00-.814-2.368 3.477 3.477 0 00-2.564-1.107h-7.116c-.984 0-1.919.404-2.563 1.107a3.08 3.08 0 00-.814 2.368l.043.479zm1.56-2.125a2.402 2.402 0 011.774-.76h7.116a2.4 2.4 0 011.774.76c.397.434.589.986.538 1.551l-.043.48c-.073.831-.845 1.484-1.756 1.484h-.265c-.47 0-.93-.177-1.259-.486l-.557-.522c-.534-.499-1.24-.773-1.99-.773s-1.456.274-1.99.773l-.557.522c-.33.309-.788.486-1.259.486h-.265c-.911 0-1.683-.653-1.757-1.485l-.043-.479a2.018 2.018 0 01.538-1.55z"/></g></g></svg>