<svg width="200" height="59" viewBox="0 0 200 59" fill="none" xmlns="http://www.w3.org/2000/svg">
<path d="M0.419922 54.9356V47.9336H1.78222V48.981C1.95312 48.6294 2.23144 48.3536 2.61718 48.1534C3.00293 47.9483 3.36914 47.8335 3.71582 47.8091C3.98925 47.7945 4.2456 47.8091 4.48486 47.8531C5.36864 47.9849 5.97904 48.4415 6.31594 49.2227C6.81394 48.2608 7.62204 47.7798 8.74024 47.7798C9.61424 47.7798 10.2832 48.0508 10.747 48.5928C11.2109 49.1348 11.4428 49.899 11.4428 50.8853V54.9356H10.0805V50.9732C10.0805 50.3921 9.93654 49.938 9.64844 49.6109C9.36524 49.2789 8.97214 49.1128 8.46924 49.1128C7.90284 49.108 7.45114 49.2984 7.11424 49.6841C6.77734 50.065 6.60884 50.5557 6.60884 51.1563V54.9356H5.24658V50.9585C5.24658 50.3873 5.10986 49.938 4.83642 49.6109C4.56298 49.2789 4.19433 49.1128 3.73046 49.1128C3.18847 49.1128 2.72705 49.2837 2.34619 49.6255C1.97021 49.9625 1.78222 50.4727 1.78222 51.1563V54.9356H0.419922ZM13.164 51.4273C13.164 50.7046 13.3276 50.0626 13.6547 49.501C13.9819 48.9395 14.414 48.5123 14.9511 48.2193C15.4882 47.9263 16.0791 47.7798 16.7236 47.7798C17.2363 47.7798 17.7172 47.8848 18.1665 48.0948C18.6206 48.2999 18.9575 48.5953 19.1772 48.981V47.9336H20.5322V54.9356H19.1772V53.8589C18.9526 54.2447 18.6132 54.545 18.1591 54.7598C17.7099 54.9747 17.2314 55.0821 16.7236 55.0821C15.7373 55.0821 14.8974 54.7427 14.2041 54.064C13.5107 53.3853 13.164 52.5064 13.164 51.4273ZM14.5629 51.4127C14.5629 52.0914 14.7827 52.6504 15.2221 53.0899C15.6616 53.5294 16.2011 53.7491 16.8408 53.7491C17.4902 53.7491 18.0395 53.5391 18.4887 53.1192C18.9379 52.6993 19.1626 52.1304 19.1626 51.4127C19.1626 50.9341 19.0454 50.5167 18.811 50.1602C18.5766 49.7989 18.2861 49.5352 17.9394 49.3692C17.5976 49.1983 17.2314 49.1128 16.8408 49.1128C16.1962 49.1128 15.6543 49.3252 15.2148 49.7501C14.7802 50.1749 14.5629 50.7291 14.5629 51.4127ZM22.8173 54.9356V47.9336H24.1796V49.5084C24.5166 48.356 25.166 47.7798 26.1279 47.7798C26.3671 47.7798 26.6015 47.8091 26.831 47.8677C27.0654 47.9214 27.2363 47.9825 27.3437 48.0508L27.1313 49.3252C26.8042 49.1641 26.4599 49.0835 26.0986 49.0835C25.664 49.0835 25.3002 49.2325 25.0073 49.5303C24.7143 49.8282 24.5019 50.2188 24.3701 50.7022C24.2431 51.1856 24.1796 51.7471 24.1796 52.3868V54.9356H22.8173ZM28.7353 54.9356V44.1177H30.083V50.3726L32.5 47.9336H34.3603L31.3574 50.9585L35.0781 54.9356H33.2763L30.083 51.5152V54.9356H28.7353ZM35.3564 51.4127C35.3564 50.3287 35.6982 49.4522 36.3818 48.7833C37.0703 48.1143 37.9248 47.7798 38.9453 47.7798C39.956 47.7798 40.7885 48.1119 41.4428 48.7759C42.0971 49.44 42.4243 50.3189 42.4243 51.4127C42.4243 51.6714 42.4194 51.8497 42.4096 51.9473H36.726C36.809 52.5284 37.0581 52.9922 37.4731 53.3389C37.8881 53.6856 38.3935 53.8589 38.9892 53.8589C39.414 53.8589 39.8071 53.7637 40.1684 53.5733C40.5297 53.3829 40.8056 53.1168 40.9961 52.775C41.1328 52.8287 41.3427 52.9117 41.6259 53.024C41.9091 53.1314 42.0898 53.1998 42.1679 53.2291C41.875 53.8248 41.4379 54.2837 40.8569 54.606C40.2807 54.9234 39.6435 55.0821 38.9453 55.0821C37.9296 55.0821 37.0776 54.7427 36.3891 54.064C35.7006 53.3853 35.3564 52.5015 35.3564 51.4127ZM36.726 50.8853H41.0693C40.9863 50.3043 40.7519 49.8477 40.3662 49.5157C39.9853 49.1788 39.5117 49.0103 38.9453 49.0103C38.3593 49.0103 37.8637 49.1788 37.4585 49.5157C37.0532 49.8477 36.809 50.3043 36.726 50.8853ZM43.4204 49.0835V47.9336H44.6801V45.2896H46.0498V47.9336H47.5293V49.0835H46.0498V54.9356H44.6801V49.0835H43.4204ZM49.0893 45.9854C48.9038 45.8145 48.811 45.6021 48.811 45.3482C48.811 45.0943 48.9038 44.8843 49.0893 44.7183C49.2749 44.5474 49.497 44.462 49.7558 44.462C50.0195 44.462 50.2417 44.5474 50.4223 44.7183C50.6079 44.8843 50.7006 45.0943 50.7006 45.3482C50.7006 45.6021 50.6079 45.8145 50.4223 45.9854C50.2417 46.1514 50.0195 46.2344 49.7558 46.2344C49.497 46.2344 49.2749 46.1514 49.0893 45.9854ZM49.082 54.9356V47.9336H50.4296V54.9356H49.082ZM52.7148 54.9356V47.9336H54.0771V48.981C54.2724 48.5904 54.58 48.2925 55 48.0875C55.4199 47.8824 55.8422 47.7798 56.267 47.7798C57.1362 47.7798 57.8027 48.0508 58.2666 48.5928C58.7353 49.1348 58.9697 49.899 58.9697 50.8853V54.9356H57.6001V50.9732C57.6001 50.3873 57.4633 49.9307 57.1899 49.6036C56.9165 49.2764 56.538 49.1128 56.0546 49.1128C55.7959 49.1128 55.5517 49.1519 55.3222 49.23C55.0976 49.3033 54.8901 49.418 54.6997 49.5743C54.5092 49.7305 54.3579 49.9454 54.2456 50.2188C54.1333 50.4874 54.0771 50.7999 54.0771 51.1563V54.9356H52.7148ZM60.6982 51.4566C60.6982 50.7339 60.8618 50.0894 61.1889 49.523C61.5161 48.9566 61.9482 48.5245 62.4853 48.2266C63.0224 47.9288 63.6132 47.7798 64.2578 47.7798C64.7656 47.7798 65.2441 47.8897 65.6933 48.1094C66.1474 48.3292 66.4868 48.6343 66.7114 49.025V47.9336H68.0664V53.8736C68.0664 56.9107 66.7895 58.4293 64.2358 58.4293C63.5815 58.4293 62.9736 58.2657 62.4121 57.9385C61.8505 57.6114 61.4038 57.1451 61.0717 56.5396C61.1401 56.5103 61.3378 56.4078 61.665 56.232C61.9921 56.0562 62.1752 55.9585 62.2143 55.939C62.4145 56.315 62.7002 56.608 63.0712 56.8179C63.4472 57.0328 63.8354 57.1402 64.2358 57.1402C65.896 57.1402 66.726 56.0806 66.726 53.9615C66.726 53.9419 66.7236 53.9151 66.7187 53.8809C66.7138 53.8418 66.7114 53.8126 66.7114 53.793C66.5112 54.1934 66.1792 54.5084 65.7153 54.7378C65.2514 54.9673 64.7656 55.0821 64.2578 55.0821C63.6132 55.0821 63.0224 54.938 62.4853 54.65C61.9482 54.357 61.5161 53.9322 61.1889 53.3755C60.8618 52.814 60.6982 52.1744 60.6982 51.4566ZM62.0971 51.4419C62.0971 52.1402 62.3144 52.6993 62.749 53.1192C63.1835 53.5391 63.7255 53.7491 64.375 53.7491C64.663 53.7491 64.9438 53.6978 65.2172 53.5953C65.4907 53.4927 65.7373 53.3462 65.957 53.1558C66.1816 52.9654 66.3598 52.7212 66.4917 52.4234C66.6284 52.1255 66.6967 51.7984 66.6967 51.4419C66.6967 50.7193 66.4721 50.1504 66.0229 49.7354C65.5786 49.3204 65.0293 49.1128 64.375 49.1128C63.7353 49.1128 63.1958 49.3326 62.7563 49.772C62.3169 50.2115 62.0971 50.7681 62.0971 51.4419ZM74.6308 50.399C74.6308 49.6321 74.906 48.9919 75.4565 48.4786C76.0131 47.959 76.6873 47.6993 77.479 47.6993C78.2583 47.6993 78.9231 47.959 79.4736 48.4786C80.0302 48.9919 80.3085 49.6321 80.3085 50.399C80.3085 51.1783 80.0333 51.8246 79.4829 52.3379C78.9324 52.8513 78.2644 53.108 77.479 53.108C76.6873 53.108 76.0131 52.8513 75.4565 52.3379C74.906 51.8246 74.6308 51.1783 74.6308 50.399ZM86.375 52.8335H87.6201C87.6445 52.9898 87.7055 53.1412 87.8032 53.2877C87.9057 53.4341 88.0351 53.5489 88.1914 53.6319C88.5039 53.8223 88.8725 53.9029 89.2973 53.8736C89.6147 53.8492 89.8711 53.754 90.0664 53.5879C90.2617 53.4219 90.3618 53.212 90.3667 52.9581C90.3715 52.7188 90.2885 52.5284 90.1176 52.3868C89.9467 52.2403 89.7197 52.1353 89.4365 52.0718L88.477 51.8448C87.8081 51.6641 87.3125 51.3956 86.9902 51.0391C86.6728 50.6778 86.5434 50.1871 86.602 49.5669C86.6508 49.0591 86.9121 48.6343 87.3857 48.2925C87.8593 47.9507 88.4086 47.7798 89.0336 47.7798C89.3413 47.7798 89.6294 47.8165 89.8979 47.8897C90.1665 47.9629 90.413 48.0777 90.6377 48.2339C90.8671 48.3853 91.0527 48.5904 91.1943 48.8492C91.3408 49.108 91.4287 49.4107 91.458 49.7574H90.1543C90.1201 49.5035 90.0004 49.3082 89.7954 49.1714C89.5903 49.0347 89.3461 48.9664 89.0629 48.9664C88.8042 48.9664 88.5747 49.025 88.3745 49.1421C88.1792 49.2593 88.0571 49.4107 88.0083 49.5962C87.9497 49.816 87.9545 50.0015 88.0229 50.1529C88.1303 50.3824 88.4062 50.5606 88.8505 50.6876L89.8833 50.9439C91.0942 51.2418 91.6997 51.9229 91.6997 52.9874C91.6997 53.6172 91.436 54.1251 90.9086 54.5108C90.3813 54.8917 89.7392 55.0821 88.9824 55.0821C88.5527 55.0821 88.145 54.9991 87.7592 54.8331C87.3735 54.6622 87.0488 54.4009 86.7851 54.0494C86.5263 53.6978 86.3896 53.2925 86.375 52.8335ZM93.4794 54.9356V47.9336H94.8418V48.981C95.0127 48.6294 95.2913 48.3536 95.6763 48.1534C96.0623 47.9483 96.4283 47.8335 96.7753 47.8091C97.0483 47.7945 97.3053 47.8091 97.5443 47.8531C98.4283 47.9849 99.0383 48.4415 99.3753 49.2227C99.8733 48.2608 100.681 47.7798 101.799 47.7798C102.673 47.7798 103.342 48.0508 103.806 48.5928C104.27 49.1348 104.502 49.899 104.502 50.8853V54.9356H103.14V50.9732C103.14 50.3921 102.996 49.938 102.708 49.6109C102.424 49.2789 102.031 49.1128 101.528 49.1128C100.962 49.108 100.51 49.2984 100.173 49.6841C99.8373 50.065 99.6683 50.5557 99.6683 51.1563V54.9356H98.3063V50.9585C98.3063 50.3873 98.1693 49.938 97.8963 49.6109C97.6223 49.2789 97.2543 49.1128 96.7903 49.1128C96.2483 49.1128 95.7863 49.2837 95.4053 49.6255C95.0297 49.9625 94.8418 50.4727 94.8418 51.1563V54.9356H93.4794ZM106.692 54.9356V47.9336H108.054V48.981C108.225 48.6294 108.504 48.3536 108.889 48.1534C109.275 47.9483 109.641 47.8335 109.988 47.8091C110.261 47.7945 110.518 47.8091 110.757 47.8531C111.641 47.9849 112.251 48.4415 112.588 49.2227C113.086 48.2608 113.894 47.7798 115.012 47.7798C115.886 47.7798 116.555 48.0508 117.019 48.5928C117.483 49.1348 117.715 49.899 117.715 50.8853V54.9356H116.353V50.9732C116.353 50.3921 116.209 49.938 115.921 49.6109C115.637 49.2789 115.244 49.1128 114.741 49.1128C114.175 49.108 113.723 49.2984 113.386 49.6841C113.049 50.065 112.881 50.5557 112.881 51.1563V54.9356H111.519V50.9585C111.519 50.3873 111.382 49.938 111.109 49.6109C110.835 49.2789 110.466 49.1128 110.003 49.1128C109.461 49.1128 108.999 49.2837 108.618 49.6255C108.242 49.9625 108.054 50.4727 108.054 51.1563V54.9356H106.692Z" fill="#222222"/>
<path d="M185.381 7.08C185.381 5.7975 185.687 4.6158 186.298 3.5351C186.917 2.4479 187.76 1.5885 188.828 0.956999C189.902 0.318999 191.077 0 192.353 0C193.31 0 194.222 0.188799 195.088 0.566399C195.953 0.937499 196.696 1.442 197.314 2.08C197.939 2.7115 198.434 3.4635 198.798 4.3359C199.17 5.2083 199.355 6.123 199.355 7.08C199.355 8.3561 199.043 9.5377 198.418 10.625C197.799 11.7057 196.953 12.5618 195.879 13.1933C194.804 13.8183 193.629 14.1308 192.353 14.1308C191.396 14.1308 190.485 13.9453 189.619 13.5742C188.759 13.2031 188.02 12.7018 187.402 12.0703C186.784 11.4388 186.292 10.6901 185.927 9.8242C185.563 8.9518 185.381 8.0371 185.381 7.08ZM187.363 4.1503C186.855 5.0423 186.601 6.0188 186.601 7.08C186.601 8.1412 186.855 9.1178 187.363 10.0097C187.871 10.9016 188.564 11.608 189.443 12.1289C190.328 12.6432 191.298 12.9003 192.353 12.9003C193.147 12.9003 193.899 12.7473 194.609 12.4414C195.325 12.1354 195.937 11.722 196.445 11.2011C196.959 10.6803 197.366 10.0618 197.666 9.3457C197.965 8.6295 198.115 7.8743 198.115 7.08C198.115 6.2858 197.965 5.5306 197.666 4.8144C197.366 4.0917 196.959 3.47 196.445 2.9492C195.937 2.4283 195.325 2.0149 194.609 1.7089C193.893 1.3964 193.141 1.2402 192.353 1.2402C191.298 1.2402 190.328 1.5006 189.443 2.0214C188.564 2.5423 187.871 3.2519 187.363 4.1503ZM189.961 10.6347V3.5742H192.695C193.424 3.5742 193.987 3.8053 194.384 4.2675C194.782 4.7233 194.98 5.2669 194.98 5.8984C194.98 6.4127 194.85 6.875 194.589 7.2851C194.336 7.6888 193.951 7.9589 193.437 8.0957L195.234 10.6347H193.554L191.797 8.1933H191.338V10.6347H189.961ZM191.338 6.8359H192.656C192.949 6.8359 193.18 6.7447 193.349 6.5625C193.525 6.3737 193.613 6.1523 193.613 5.8984C193.613 5.638 193.528 5.4134 193.359 5.2246C193.19 5.0293 192.968 4.9316 192.695 4.9316H191.338V6.8359Z" fill="black"/>
<path d="M0 42.9355V13.9941H5.63084V18.3232C6.33724 16.8701 7.48764 15.7298 9.08204 14.9023C10.6764 14.0546 12.1901 13.5804 13.623 13.4794C14.7532 13.4189 15.8128 13.4794 16.8017 13.6611C20.4547 14.206 22.9775 16.0931 24.3701 19.3222C26.4287 15.3463 29.7688 13.3584 34.3906 13.3584C38.0032 13.3584 40.7682 14.4785 42.6855 16.7187C44.6028 18.9589 45.5615 22.1175 45.5615 26.1943V42.9355H39.9306V26.5576C39.9306 24.1559 39.3352 22.2789 38.1445 20.9267C36.9739 19.5543 35.3492 18.8681 33.2705 18.8681C30.9293 18.8479 29.0625 19.635 27.6699 21.2294C26.2773 22.8037 25.581 24.832 25.581 27.3144V42.9355H19.9502V26.497C19.9502 24.1357 19.385 22.2789 18.2548 20.9267C17.1246 19.5543 15.6009 18.8681 13.6835 18.8681C11.4433 18.8681 9.53614 19.5745 7.96194 20.9873C6.40784 22.3798 5.63084 24.4889 5.63084 27.3144V42.9355H0ZM52.6757 28.4345C52.6757 25.4475 53.3518 22.7936 54.7041 20.4726C56.0563 18.1516 57.8424 16.3857 60.0625 15.1748C62.2825 13.9638 64.7246 13.3584 67.3886 13.3584C69.5078 13.3584 71.4957 13.7923 73.3525 14.6601C75.2294 15.5078 76.622 16.7288 77.5302 18.3232V13.9941H83.1308V42.9355H77.5302V38.4853C76.6018 40.0797 75.1992 41.3209 73.3222 42.2089C71.4655 43.097 69.4876 43.541 67.3886 43.541C63.3118 43.541 59.8405 42.1383 56.9746 39.333C54.1087 36.5276 52.6757 32.8948 52.6757 28.4345ZM58.458 28.374C58.458 31.1793 59.3662 33.4902 61.1826 35.3066C62.999 37.123 65.2291 38.0312 67.873 38.0312C70.5572 38.0312 72.8278 37.1634 74.6845 35.4277C76.5413 33.692 77.4697 31.3408 77.4697 28.374C77.4697 26.3961 76.9853 24.6705 76.0166 23.1972C75.0478 21.7037 73.847 20.6139 72.414 19.9277C71.0013 19.2213 69.4876 18.8681 67.873 18.8681C65.2089 18.8681 62.9687 19.746 61.1523 21.5019C59.3561 23.2578 58.458 25.5485 58.458 28.374ZM88.6103 42.9355L100.053 27.0722L90.6386 13.9941H97.3893L103.353 22.4707L109.378 13.9941L128.277 0.435547L106.653 27.0722L118.096 42.9355H111.406L103.353 31.7041L95.2402 42.9355H88.6103Z" fill="#7DC456"/>
<path d="M123.182 30.7353V13.9941H128.843V30.3417C128.843 32.7636 129.398 34.6507 130.508 36.0029C131.639 37.3551 133.193 38.0312 135.171 38.0312C136.24 38.0312 137.239 37.8798 138.168 37.5771C139.116 37.2744 139.984 36.8102 140.771 36.1845C141.558 35.5387 142.184 34.6608 142.648 33.5507C143.112 32.4205 143.344 31.1087 143.344 29.6152V13.9941H148.975V42.9355H143.344V38.6064C142.537 40.221 141.276 41.4521 139.56 42.2998C137.845 43.1272 136.109 43.541 134.353 43.541C130.741 43.541 127.965 42.4309 126.028 40.2109C124.09 37.9707 123.142 34.8121 123.182 30.7353ZM158.39 57.0126V13.9941H164.021V18.5048C164.95 16.9104 166.342 15.6591 168.199 14.7509C170.076 13.8225 172.054 13.3584 174.132 13.3584C178.189 13.3584 181.62 14.7711 184.425 17.5966C187.231 20.4222 188.633 24.0751 188.633 28.5556C188.633 31.5224 187.967 34.1663 186.635 36.4873C185.324 38.788 183.578 40.5439 181.398 41.7548C179.218 42.9456 176.797 43.541 174.132 43.541C171.993 43.541 169.995 43.1272 168.138 42.2998C166.302 41.4521 164.929 40.221 164.021 38.6064V57.0126H158.39ZM164.082 28.6162C164.082 31.5426 165.03 33.8434 166.927 35.5185C168.825 37.1936 171.034 38.0312 173.557 38.0312C176.221 38.0312 178.451 37.1634 180.248 35.4277C182.044 33.692 182.942 31.4215 182.942 28.6162C182.942 25.7705 182.034 23.4394 180.217 21.623C178.421 19.7864 176.201 18.8681 173.557 18.8681C170.913 18.8681 168.673 19.7561 166.837 21.5322C165 23.288 164.082 25.6494 164.082 28.6162Z" fill="black"/>
</svg>
