<svg width="200" height="59" fill="none" xmlns="http://www.w3.org/2000/svg"><path d="M.42 54.936v-7.002h1.362v1.047c.171-.352.45-.627.835-.828.386-.205.752-.32 1.099-.344.273-.014.53 0 .769.044.884.132 1.494.588 1.83 1.37.499-.962 1.307-1.443 2.425-1.443.874 0 1.543.27 2.007.813.464.542.696 1.306.696 2.292v4.05H10.08v-3.962c0-.58-.144-1.035-.433-1.362-.283-.332-.676-.498-1.179-.498-.566-.005-1.018.185-1.355.571-.337.381-.505.872-.505 1.472v3.78H5.247v-3.977c0-.572-.137-1.021-.41-1.348-.274-.332-.643-.498-1.107-.498-.542 0-1.003.17-1.384.513-.376.337-.564.847-.564 1.53v3.78H.42zm12.744-3.509c0-.722.164-1.364.49-1.926.328-.561.76-.989 1.297-1.282a3.64 3.64 0 011.773-.44c.512 0 .993.106 1.442.316.455.205.791.5 1.011.886v-1.047h1.355v7.002h-1.355v-1.077c-.224.386-.564.686-1.018.9-.45.216-.928.323-1.435.323-.987 0-1.827-.34-2.52-1.018-.693-.679-1.04-1.558-1.04-2.637zm1.399-.014c0 .678.22 1.237.66 1.677.439.44.978.66 1.618.66.65 0 1.198-.21 1.648-.63.449-.42.674-.99.674-1.707 0-.479-.118-.896-.352-1.253a2.138 2.138 0 00-.872-.79 2.423 2.423 0 00-1.098-.257c-.645 0-1.187.212-1.626.637-.435.425-.652.98-.652 1.663zm8.254 3.523v-7.002h1.363v1.574c.337-1.152.986-1.728 1.948-1.728.24 0 .474.03.703.088.234.053.405.114.513.183l-.213 1.274a2.308 2.308 0 00-1.032-.242 1.47 1.47 0 00-1.092.447c-.293.298-.505.689-.637 1.172-.127.484-.19 1.045-.19 1.685v2.549h-1.363zm5.918 0V44.118h1.348v6.255l2.417-2.44h1.86l-3.003 3.026 3.721 3.977h-1.802l-3.193-3.42v3.42h-1.348zm6.621-3.523c0-1.084.342-1.96 1.026-2.63.688-.669 1.543-1.003 2.563-1.003 1.011 0 1.843.332 2.498.996.654.664.981 1.543.981 2.637 0 .258-.005.437-.014.534h-5.684c.083.581.332 1.045.747 1.392s.92.52 1.516.52a2.49 2.49 0 001.18-.286 1.98 1.98 0 00.827-.798l.63.249.542.205a3.108 3.108 0 01-1.311 1.377 3.896 3.896 0 01-1.912.476c-1.015 0-1.867-.34-2.556-1.018-.688-.679-1.033-1.563-1.033-2.651zm1.37-.528h4.343c-.083-.58-.317-1.037-.703-1.37-.38-.336-.854-.505-1.42-.505-.587 0-1.082.169-1.487.506-.406.332-.65.788-.733 1.37zm6.694-1.801v-1.15h1.26V45.29h1.37v2.644h1.48v1.15h-1.48v5.852h-1.37v-5.852h-1.26zm5.67-3.099a.831.831 0 01-.279-.637.81.81 0 01.278-.63.95.95 0 01.667-.256.93.93 0 01.666.256.808.808 0 01.279.63.83.83 0 01-.279.637.948.948 0 01-.666.25.966.966 0 01-.667-.25zm-.008 8.95v-7.001h1.348v7.002h-1.348zm3.633 0v-7.001h1.362v1.047c.195-.39.503-.689.923-.894.42-.205.842-.307 1.267-.307.87 0 1.536.27 2 .813.468.542.703 1.306.703 2.292v4.05H57.6v-3.962c0-.586-.137-1.042-.41-1.37-.273-.327-.652-.49-1.135-.49-.26 0-.503.039-.733.117a1.908 1.908 0 00-.622.344c-.19.157-.342.371-.454.645a2.416 2.416 0 00-.169.937v3.78h-1.362zm7.983-3.478c0-.723.164-1.368.49-1.934.328-.566.76-.998 1.297-1.296a3.594 3.594 0 011.773-.447c.508 0 .986.11 1.435.33.454.22.794.524 1.018.915v-1.091h1.355v5.94c0 3.037-1.276 4.555-3.83 4.555a3.56 3.56 0 01-3.164-1.89c.068-.029.266-.131.593-.307.327-.176.51-.273.55-.293.2.376.485.669.856.879.376.215.764.322 1.165.322 1.66 0 2.49-1.06 2.49-3.178a.602.602 0 00-.007-.081.771.771 0 01-.008-.088c-.2.4-.532.715-.996.945a3.24 3.24 0 01-1.457.344 3.69 3.69 0 01-1.773-.432 3.349 3.349 0 01-1.296-1.274c-.327-.562-.49-1.202-.49-1.92zm1.4-.015c0 .698.216 1.257.651 1.677.434.42.976.63 1.626.63a2.416 2.416 0 001.582-.593c.225-.19.403-.435.535-.733.136-.297.205-.625.205-.981 0-.723-.225-1.292-.674-1.707-.444-.415-.994-.622-1.648-.622a2.2 2.2 0 00-1.619.659c-.44.44-.659.996-.659 1.67zm12.533-1.043c0-.767.275-1.407.826-1.92.556-.52 1.23-.78 2.022-.78.78 0 1.444.26 1.995.78.556.513.834 1.153.834 1.92 0 .78-.275 1.426-.825 1.939-.55.513-1.219.77-2.004.77-.792 0-1.466-.257-2.022-.77-.551-.513-.826-1.16-.826-1.939zm11.744 2.434h1.245a1.095 1.095 0 00.571.798c.313.191.681.272 1.106.243.318-.025.574-.12.77-.286a.813.813 0 00.3-.63.684.684 0 00-.25-.571 1.549 1.549 0 00-.68-.315l-.96-.227c-.669-.18-1.165-.45-1.487-.806-.317-.361-.447-.852-.388-1.472.049-.508.31-.933.784-1.275.473-.341 1.023-.512 1.648-.512.307 0 .595.036.864.11.269.073.515.188.74.344.23.151.415.356.556.615.147.259.235.562.264.908h-1.304a.8.8 0 00-.359-.586 1.29 1.29 0 00-.732-.205c-.259 0-.488.059-.689.176a.753.753 0 00-.366.454c-.058.22-.053.406.015.557.107.23.383.408.828.535l1.032.256c1.211.298 1.817.979 1.817 2.043 0 .63-.264 1.138-.791 1.524-.528.38-1.17.571-1.927.571a3.06 3.06 0 01-1.223-.249 2.44 2.44 0 01-.974-.784 2.115 2.115 0 01-.41-1.215zm7.104 2.103v-7.002h1.363v1.047c.17-.352.45-.627.834-.828.386-.205.752-.32 1.1-.344.272-.014.53 0 .768.044.884.132 1.494.588 1.831 1.37.498-.962 1.306-1.443 2.424-1.443.874 0 1.543.27 2.007.813.464.542.696 1.306.696 2.292v4.05h-1.362v-3.962c0-.58-.144-1.035-.432-1.362-.284-.332-.677-.498-1.18-.498-.566-.005-1.018.185-1.355.571-.336.381-.505.872-.505 1.472v3.78h-1.362v-3.977c0-.572-.137-1.021-.41-1.348-.274-.332-.642-.498-1.106-.498-.542 0-1.004.17-1.385.513-.375.337-.563.847-.563 1.53v3.78h-1.363zm13.213 0v-7.002h1.362v1.047c.171-.352.45-.627.835-.828.386-.205.752-.32 1.099-.344.273-.014.53 0 .769.044.884.132 1.494.588 1.831 1.37.498-.962 1.306-1.443 2.424-1.443.874 0 1.543.27 2.007.813.464.542.696 1.306.696 2.292v4.05h-1.362v-3.962c0-.58-.144-1.035-.432-1.362-.284-.332-.677-.498-1.18-.498-.566-.005-1.018.185-1.355.571-.337.381-.505.872-.505 1.472v3.78h-1.362v-3.977c0-.572-.137-1.021-.41-1.348-.274-.332-.643-.498-1.106-.498-.542 0-1.004.17-1.385.513-.376.337-.564.847-.564 1.53v3.78h-1.362z" fill="#222"/><path d="M185.381 7.08a7.08 7.08 0 01.917-3.545 6.92 6.92 0 012.53-2.578A6.776 6.776 0 01192.353 0a6.78 6.78 0 012.735.566 6.783 6.783 0 012.226 1.514 7 7 0 011.484 2.256c.372.872.557 1.787.557 2.744a6.99 6.99 0 01-.937 3.545 6.92 6.92 0 01-6.065 3.506 6.868 6.868 0 01-2.734-.557 6.873 6.873 0 01-2.217-1.504 7.138 7.138 0 01-1.475-2.246 7.056 7.056 0 01-.546-2.744zm1.982-2.93a5.817 5.817 0 00-.762 2.93 5.82 5.82 0 00.762 2.93 5.7 5.7 0 002.08 2.119 5.688 5.688 0 002.91.771 5.64 5.64 0 002.256-.459 5.61 5.61 0 001.836-1.24 5.8 5.8 0 001.221-1.855 5.822 5.822 0 00.449-2.266c0-.794-.15-1.55-.449-2.266a5.772 5.772 0 00-1.221-1.865 5.61 5.61 0 00-1.836-1.24 5.58 5.58 0 00-2.256-.469c-1.055 0-2.025.26-2.91.781a5.68 5.68 0 00-2.08 2.13zm2.598 6.485v-7.06h2.734c.729 0 1.292.23 1.689.692.398.456.596 1 .596 1.631 0 .515-.13.977-.391 1.387-.253.404-.638.674-1.152.81l1.797 2.54h-1.68l-1.757-2.442h-.459v2.442h-1.377zm1.377-3.8h1.318c.293 0 .524-.09.693-.272a.943.943 0 00.264-.665.977.977 0 00-.254-.673.837.837 0 00-.664-.293h-1.357v1.904z" fill="#000"/><path d="M0 42.935v-28.94h5.63v4.328c.707-1.453 1.858-2.593 3.452-3.42 1.594-.848 3.108-1.323 4.541-1.424 1.13-.06 2.19 0 3.179.182 3.653.545 6.175 2.432 7.568 5.661 2.059-3.976 5.399-5.964 10.02-5.964 3.613 0 6.378 1.12 8.295 3.36 1.918 2.24 2.877 5.4 2.877 9.476v16.741H39.93V26.558c0-2.402-.596-4.28-1.786-5.631-1.171-1.373-2.796-2.059-4.875-2.059-2.34-.02-4.208.767-5.6 2.361-1.393 1.575-2.089 3.603-2.089 6.085v15.621h-5.63V26.497c0-2.361-.566-4.218-1.696-5.57-1.13-1.373-2.654-2.059-4.571-2.059-2.24 0-4.148.707-5.722 2.12-1.554 1.392-2.331 3.5-2.331 6.326v15.621H0zm52.676-14.5c0-2.987.676-5.641 2.028-7.962 1.352-2.321 3.138-4.087 5.358-5.298 2.22-1.211 4.663-1.817 7.327-1.817 2.119 0 4.107.434 5.964 1.302 1.876.848 3.269 2.069 4.177 3.663v-4.329h5.6v28.941h-5.6v-4.45c-.928 1.595-2.33 2.836-4.208 3.724a13.577 13.577 0 01-5.933 1.332c-4.077 0-7.548-1.403-10.414-4.208-2.866-2.805-4.3-6.438-4.3-10.898zm5.782-.061c0 2.805.908 5.116 2.725 6.933 1.816 1.816 4.046 2.724 6.69 2.724 2.684 0 4.955-.868 6.811-2.603 1.857-1.736 2.786-4.087 2.786-7.054 0-1.978-.485-3.703-1.453-5.177-.97-1.493-2.17-2.583-3.603-3.27a10.014 10.014 0 00-4.541-1.059c-2.664 0-4.904.878-6.72 2.634-1.797 1.756-2.695 4.047-2.695 6.872zM88.61 42.935l11.443-15.863-9.414-13.078h6.75l5.964 8.477 6.025-8.477L128.277.436l-21.624 26.636 11.443 15.863h-6.69l-8.053-11.23-8.113 11.23h-6.63z" fill="#7DC456"/><path d="M123.182 30.735v-16.74h5.661v16.347c0 2.422.555 4.309 1.665 5.66 1.131 1.353 2.685 2.03 4.663 2.03a9.618 9.618 0 002.997-.455 8.12 8.12 0 002.603-1.392c.787-.646 1.413-1.524 1.877-2.634.464-1.13.696-2.442.696-3.936v-15.62h5.631v28.94h-5.631v-4.329c-.807 1.615-2.068 2.846-3.784 3.694-1.715.827-3.451 1.241-5.207 1.241-3.612 0-6.388-1.11-8.325-3.33-1.938-2.24-2.886-5.399-2.846-9.476zm35.208 26.278V13.994h5.631v4.51c.929-1.594 2.321-2.845 4.178-3.753a13.213 13.213 0 015.933-1.393c4.057 0 7.488 1.413 10.293 4.239 2.806 2.825 4.208 6.478 4.208 10.959 0 2.966-.666 5.61-1.998 7.931-1.311 2.301-3.057 4.057-5.237 5.268-2.18 1.19-4.601 1.786-7.266 1.786-2.139 0-4.137-.414-5.994-1.241-1.836-.848-3.209-2.079-4.117-3.694v18.407h-5.631zm5.692-28.397c0 2.927.948 5.227 2.845 6.903 1.898 1.675 4.107 2.512 6.63 2.512 2.664 0 4.894-.868 6.691-2.603 1.796-1.736 2.694-4.006 2.694-6.812 0-2.846-.908-5.177-2.725-6.993-1.796-1.837-4.016-2.755-6.66-2.755s-4.884.888-6.72 2.664c-1.837 1.756-2.755 4.117-2.755 7.084z" fill="#000"/></svg>