<?xml version="1.0" encoding="utf-8"?>
<!-- Generator: Adobe Illustrator 23.0.6, SVG Export Plug-In . SVG Version: 6.00 Build 0)  -->
<svg version="1.0" id="Направляющие" xmlns="http://www.w3.org/2000/svg" xmlns:xlink="http://www.w3.org/1999/xlink"
	 x="0px" y="0px" viewBox="0 0 60 85" enable-background="new 0 0 60 85" xml:space="preserve">
<linearGradient id="cian_1_" gradientUnits="userSpaceOnUse" x1="30" y1="6.962" x2="30" y2="77.6742">
	<stop  offset="0" style="stop-color:#EAEAEA"/>
	<stop  offset="1" style="stop-color:#F9F9F9"/>
</linearGradient>
<rect id="cian" fill="url(#cian_1_)" width="60" height="85"/>
<g id="logo_cian">
	<g>
		<path fill="#13334B" d="M39.9,41.8L39.9,41.8l-3.3,6.1h1.7l0.4-0.9h2.5l0.4,0.9h1.7C42.2,45.8,41.1,43.7,39.9,41.8z M39.2,45.8
			l0.7-1.5l0.7,1.5H39.2z"/>
		<polygon fill="#13334B" points="28.9,49.3 27.5,49.3 27.5,47.8 26.6,47.8 26.4,47.8 24,47.8 23.5,47.8 22.4,47.8 22.4,41.9 
			24,41.9 24,46.5 26.4,46.5 26.4,41.9 27.9,41.9 27.9,46.5 28.9,46.5 		"/>
		<polygon fill="#13334B" points="35.6,47.8 34.1,47.8 34.1,44.6 30.2,48 30.2,48 30.2,41.9 31.7,41.9 31.7,45.1 35.5,41.8 
			35.6,41.8 		"/>
		<polygon fill="#13334B" points="48.1,47.8 48.1,45.6 45.7,45.6 45.7,47.8 44.2,47.8 44.2,41.9 45.7,41.9 45.7,44.3 48.1,44.3 
			48.1,41.9 49.6,41.9 49.6,47.8 		"/>
	</g>
	<g>
		
			<linearGradient id="SVGID_1_" gradientUnits="userSpaceOnUse" x1="17.024" y1="48.7171" x2="17.024" y2="36.1559" gradientTransform="matrix(1 0 0 -1 0 84.1102)">
			<stop  offset="0" style="stop-color:#72CBDC"/>
			<stop  offset="1" style="stop-color:#5594CB"/>
		</linearGradient>
		<path fill="url(#SVGID_1_)" d="M15.2,38.2L15.2,38.2C15.2,38.2,15.2,38.2,15.2,38.2l1.8,3.2l1.8-3.2c0,0,0,0,0,0l0,0l0,0
			c0.1-0.3,0.2-0.6,0.2-1c0-1.2-0.9-2.1-2.1-2.1s-2.1,0.9-2.1,2.1C14.9,37.5,15,37.9,15.2,38.2L15.2,38.2z M17,36.3
			c0.5,0,0.9,0.4,0.9,0.9c0,0.5-0.4,0.9-0.9,0.9c-0.5,0-0.9-0.4-0.9-0.9S16.5,36.3,17,36.3z"/>
		
			<linearGradient id="SVGID_2_" gradientUnits="userSpaceOnUse" x1="14.5777" y1="48.7171" x2="14.5777" y2="36.1559" gradientTransform="matrix(1 0 0 -1 0 84.1102)">
			<stop  offset="0" style="stop-color:#72CBDC"/>
			<stop  offset="1" style="stop-color:#5594CB"/>
		</linearGradient>
		<polygon fill="url(#SVGID_2_)" points="17.8,45 17.8,41.9 16.2,41.9 16.2,43.4 14.6,41.8 10,46.3 11.6,48 14.6,45 17.5,48 
			19.2,46.3 		"/>
	</g>
</g>
</svg>
