<?xml version="1.0" encoding="utf-8"?>
<!-- Generator: Adobe Illustrator 25.0.0, SVG Export Plug-In . SVG Version: 6.00 Build 0)  -->
<svg version="1.0" xmlns="http://www.w3.org/2000/svg" xmlns:xlink="http://www.w3.org/1999/xlink" x="0px" y="0px"
	 viewBox="0 0 60 85" enable-background="new 0 0 60 85" xml:space="preserve">
<g id="фоны">
	<radialGradient id="MRPOPULAR_3_" cx="30" cy="42.5" r="36.7848473" gradientUnits="userSpaceOnUse">
		<stop  offset="0.5591389" style="stop-color:#000000"/>
		<stop  offset="0.5618649" style="stop-color:#080808"/>
		<stop  offset="0.5678421" style="stop-color:#151515"/>
	</radialGradient>
	<rect id="MRPOPULAR_2_" fill="url(#MRPOPULAR_3_)" stroke="#000000" stroke-width="0.094" width="60" height="85"/>
</g>
<g id="лого">
	<g id="MRPOPULAR_1_">
		<g id="_x31_">
			<linearGradient id="SVGID_1_" gradientUnits="userSpaceOnUse" x1="14.0526991" y1="26.0078239" x2="46.3366051" y2="58.291729">
				<stop  offset="0" style="stop-color:#30000F"/>
				<stop  offset="1" style="stop-color:#9B0E27"/>
			</linearGradient>
			<polygon fill="url(#SVGID_1_)" points="15.8073759,27.7625008 19.0823765,29.3999996 22.3573761,27.7625008 22.3573761,26.125 
				23.9948769,26.125 23.9948769,35.9500008 22.3573761,35.9500008 22.3573761,29.3999996 19.0823765,31.0375004 
				15.8073759,29.3999996 15.8073759,35.9500008 14.1698761,35.9500008 14.1698761,26.125 15.8073759,26.125 			"/>
			<linearGradient id="SVGID_2_" gradientUnits="userSpaceOnUse" x1="25.5151997" y1="14.5453234" x2="57.7991066" y2="46.8292274">
				<stop  offset="0" style="stop-color:#30000F"/>
				<stop  offset="1" style="stop-color:#9B0E27"/>
			</linearGradient>
			<polyline fill="url(#SVGID_2_)" points="37.0948753,26.125 37.0948753,35.9500008 38.7323761,35.9500008 38.7323761,32.6749992 
				46.9198761,32.6749992 46.9198761,26.125 45.2823753,26.125 45.2823753,31.0375004 38.7323761,31.0375004 38.7323761,27.7625008 
				45.2823753,27.7625008 45.2823753,26.125 37.0948753,26.125 			"/>
			<linearGradient id="SVGID_3_" gradientUnits="userSpaceOnUse" x1="8.3214493" y1="31.7390728" x2="40.6053543" y2="64.0229797">
				<stop  offset="0" style="stop-color:#30000F"/>
				<stop  offset="1" style="stop-color:#9B0E27"/>
			</linearGradient>
			<polygon fill="url(#SVGID_3_)" points="14.1698761,37.5875015 14.1698761,47.4124985 23.9948769,47.4124985 
				23.9948769,37.5875015 22.3573761,37.5875015 22.3573761,45.7750015 15.8073759,45.7750015 15.8073759,39.2249985 
				22.3573761,39.2249985 22.3573761,37.5875015 			"/>
			<linearGradient id="SVGID_4_" gradientUnits="userSpaceOnUse" x1="14.0526991" y1="26.0078239" x2="46.3366051" y2="58.291729">
				<stop  offset="0" style="stop-color:#30000F"/>
				<stop  offset="1" style="stop-color:#9B0E27"/>
			</linearGradient>
			<polygon fill="url(#SVGID_4_)" points="25.6323757,37.5875015 25.6323757,47.4124985 27.2698765,47.4124985 
				27.2698765,44.1375008 35.4573746,44.1375008 35.4573746,37.5875015 33.8198776,37.5875015 33.8198776,42.5 27.2698765,42.5 
				27.2698765,39.2249985 33.8198776,39.2249985 33.8198776,37.5875015 			"/>
			<linearGradient id="SVGID_5_" gradientUnits="userSpaceOnUse" x1="19.7839489" y1="20.2765732" x2="52.0678558" y2="52.5604782">
				<stop  offset="0" style="stop-color:#30000F"/>
				<stop  offset="1" style="stop-color:#9B0E27"/>
			</linearGradient>
			<polygon fill="url(#SVGID_5_)" points="37.0948753,37.5875015 37.0948753,47.4124985 46.9198761,47.4124985 
				46.9198761,37.5875015 45.2823753,37.5875015 45.2823753,45.7750015 38.7323761,45.7750015 38.7323761,37.5875015 			"/>
			<linearGradient id="SVGID_6_" gradientUnits="userSpaceOnUse" x1="0.5433242" y1="39.5171967" x2="32.8272285" y2="71.8011017">
				<stop  offset="0" style="stop-color:#30000F"/>
				<stop  offset="1" style="stop-color:#9B0E27"/>
			</linearGradient>
			<polygon fill="url(#SVGID_6_)" points="14.1698761,49.0499992 14.1698761,58.875 23.9948769,58.875 23.9948769,57.2374992 
				15.8073759,57.2374992 15.8073759,49.0499992 			"/>
			<linearGradient id="SVGID_7_" gradientUnits="userSpaceOnUse" x1="8.3214493" y1="31.7390728" x2="40.6053543" y2="64.0229797">
				<stop  offset="0" style="stop-color:#30000F"/>
				<stop  offset="1" style="stop-color:#9B0E27"/>
			</linearGradient>
			<polygon fill="url(#SVGID_7_)" points="25.6323757,58.875 25.6323757,49.0499992 35.4573746,49.0499992 35.4573746,58.875 
				33.8198776,58.875 33.8198776,50.6875 27.2698765,50.6875 27.2698765,53.9625015 33.8198776,53.9625015 33.8198776,55.5999985 
				27.2698765,55.5999985 27.2698765,58.875 			"/>
			<linearGradient id="SVGID_8_" gradientUnits="userSpaceOnUse" x1="14.0526991" y1="26.0078239" x2="46.3366051" y2="58.291729">
				<stop  offset="0" style="stop-color:#30000F"/>
				<stop  offset="1" style="stop-color:#9B0E27"/>
			</linearGradient>
			<polygon fill="url(#SVGID_8_)" points="37.0948753,58.875 37.0948753,49.0499992 46.9198761,49.0499992 46.9198761,53.9625015 
				45.2823753,53.9625015 45.2823753,50.6875 38.7323761,50.6875 38.7323761,53.9625015 45.2823753,53.9625015 
				45.2823753,55.5999985 46.9198761,55.5999985 46.9198761,58.875 45.2823753,58.875 45.2823753,55.5999985 38.7323761,55.5999985 
				38.7323761,58.875 			"/>
			<linearGradient id="SVGID_9_" gradientUnits="userSpaceOnUse" x1="19.7839489" y1="20.2765732" x2="52.0678558" y2="52.5604782">
				<stop  offset="0" style="stop-color:#30000F"/>
				<stop  offset="1" style="stop-color:#9B0E27"/>
			</linearGradient>
			<polygon fill="url(#SVGID_9_)" points="25.6323757,35.9500008 25.6323757,26.125 35.4573746,26.125 35.4573746,31.0375004 
				33.8198776,31.0375004 33.8198776,27.7625008 27.2698765,27.7625008 27.2698765,31.0375004 33.8198776,31.0375004 
				33.8198776,32.6749992 35.4573746,32.6749992 35.4573746,35.9500008 33.8198776,35.9500008 33.8198776,32.6749992 
				27.2698765,32.6749992 27.2698765,35.9500008 			"/>
		</g>
		<g id="_x32_">
			<linearGradient id="SVGID_10_" gradientUnits="userSpaceOnUse" x1="34.9424286" y1="14.4935474" x2="2.7947407" y2="46.9136734">
				<stop  offset="0" style="stop-color:#30000F"/>
				<stop  offset="1" style="stop-color:#9B0E27"/>
			</linearGradient>
			<polygon fill="url(#SVGID_10_)" points="15.2624998,27.7625008 18.5375004,29.3999996 21.8125,27.7625008 21.8125,26.125 
				23.4500008,26.125 23.4500008,35.9500008 21.8125,35.9500008 21.8125,29.3999996 18.5375004,31.0375004 15.2624998,29.3999996 
				15.2624998,35.9500008 13.625,35.9500008 13.625,26.125 15.2624998,26.125 			"/>
			
				<linearGradient id="SVGID_11_" gradientUnits="userSpaceOnUse" x1="45.6829338" y1="25.1437988" x2="13.5352478" y2="57.5639229">
				<stop  offset="0" style="stop-color:#30000F"/>
				<stop  offset="1" style="stop-color:#9B0E27"/>
			</linearGradient>
			<polyline fill="url(#SVGID_11_)" points="36.5499992,26.125 36.5499992,35.9500008 38.1875,35.9500008 38.1875,32.6749992 
				46.375,32.6749992 46.375,26.125 44.7374992,26.125 44.7374992,31.0375004 38.1875,31.0375004 38.1875,27.7625008 
				44.7374992,27.7625008 44.7374992,26.125 36.5499992,26.125 			"/>
			<linearGradient id="SVGID_12_" gradientUnits="userSpaceOnUse" x1="40.6734734" y1="20.1764336" x2="8.5257864" y2="52.5965576">
				<stop  offset="0" style="stop-color:#30000F"/>
				<stop  offset="1" style="stop-color:#9B0E27"/>
			</linearGradient>
			<polygon fill="url(#SVGID_12_)" points="13.625,37.5875015 13.625,47.4124985 23.4500008,47.4124985 23.4500008,37.5875015 
				21.8125,37.5875015 21.8125,45.7750015 15.2624998,45.7750015 15.2624998,39.2249985 21.8125,39.2249985 21.8125,37.5875015 			
				"/>
			<linearGradient id="SVGID_13_" gradientUnits="userSpaceOnUse" x1="45.6343651" y1="25.0956383" x2="13.48668" y2="57.5157623">
				<stop  offset="0" style="stop-color:#30000F"/>
				<stop  offset="1" style="stop-color:#9B0E27"/>
			</linearGradient>
			<polygon fill="url(#SVGID_13_)" points="25.0874996,37.5875015 25.0874996,47.4124985 26.7250004,47.4124985 
				26.7250004,44.1375008 34.9124985,44.1375008 34.9124985,37.5875015 33.2750015,37.5875015 33.2750015,42.5 26.7250004,42.5 
				26.7250004,39.2249985 33.2750015,39.2249985 33.2750015,37.5875015 			"/>
			<linearGradient id="SVGID_14_" gradientUnits="userSpaceOnUse" x1="52.2327003" y1="31.638525" x2="20.0850143" y2="64.0586472">
				<stop  offset="0" style="stop-color:#30000F"/>
				<stop  offset="1" style="stop-color:#9B0E27"/>
			</linearGradient>
			<polygon fill="url(#SVGID_14_)" points="36.5499992,37.5875015 36.5499992,47.4124985 46.375,47.4124985 46.375,37.5875015 
				44.7374992,37.5875015 44.7374992,45.7750015 38.1875,45.7750015 38.1875,37.5875015 			"/>
			
				<linearGradient id="SVGID_15_" gradientUnits="userSpaceOnUse" x1="46.4045181" y1="25.8593197" x2="14.2568321" y2="58.2794456">
				<stop  offset="0" style="stop-color:#30000F"/>
				<stop  offset="1" style="stop-color:#9B0E27"/>
			</linearGradient>
			<polygon fill="url(#SVGID_15_)" points="13.625,49.0499992 13.625,58.875 23.4500008,58.875 23.4500008,57.2374992 
				15.2624998,57.2374992 15.2624998,49.0499992 			"/>
			
				<linearGradient id="SVGID_16_" gradientUnits="userSpaceOnUse" x1="52.1841354" y1="31.5903645" x2="20.0364456" y2="64.0104904">
				<stop  offset="0" style="stop-color:#30000F"/>
				<stop  offset="1" style="stop-color:#9B0E27"/>
			</linearGradient>
			<polygon fill="url(#SVGID_16_)" points="25.0874996,58.875 25.0874996,49.0499992 34.9124985,49.0499992 34.9124985,58.875 
				33.2750015,58.875 33.2750015,50.6875 26.7250004,50.6875 26.7250004,53.9625015 33.2750015,53.9625015 33.2750015,55.5999985 
				26.7250004,55.5999985 26.7250004,58.875 			"/>
			<linearGradient id="SVGID_17_" gradientUnits="userSpaceOnUse" x1="57.9637489" y1="37.3214111" x2="25.816061" y2="69.741539">
				<stop  offset="0" style="stop-color:#30000F"/>
				<stop  offset="1" style="stop-color:#9B0E27"/>
			</linearGradient>
			<polygon fill="url(#SVGID_17_)" points="36.5499992,58.875 36.5499992,49.0499992 46.375,49.0499992 46.375,53.9625015 
				44.7374992,53.9625015 44.7374992,50.6875 38.1875,50.6875 38.1875,53.9625015 44.7374992,53.9625015 44.7374992,55.5999985 
				46.375,55.5999985 46.375,58.875 44.7374992,58.875 44.7374992,55.5999985 38.1875,55.5999985 38.1875,58.875 			"/>
			<linearGradient id="SVGID_18_" gradientUnits="userSpaceOnUse" x1="40.7220421" y1="20.2245941" x2="8.5743551" y2="52.6447182">
				<stop  offset="0" style="stop-color:#30000F"/>
				<stop  offset="1" style="stop-color:#9B0E27"/>
			</linearGradient>
			<polygon fill="url(#SVGID_18_)" points="25.0874996,35.9500008 25.0874996,26.125 34.9124985,26.125 34.9124985,31.0375004 
				33.2750015,31.0375004 33.2750015,27.7625008 26.7250004,27.7625008 26.7250004,31.0375004 33.2750015,31.0375004 
				33.2750015,32.6749992 34.9124985,32.6749992 34.9124985,35.9500008 33.2750015,35.9500008 33.2750015,32.6749992 
				26.7250004,32.6749992 26.7250004,35.9500008 			"/>
		</g>
	</g>
</g>
</svg>
