<?xml version="1.0" encoding="utf-8"?>
<!-- Generator: Adobe Illustrator 23.0.6, SVG Export Plug-In . SVG Version: 6.00 Build 0)  -->
<svg version="1.0" id="Направляющие" xmlns="http://www.w3.org/2000/svg" xmlns:xlink="http://www.w3.org/1999/xlink"
	 x="0px" y="0px" viewBox="0 0 60 85" enable-background="new 0 0 60 85" xml:space="preserve">
<g id="dzen_1_">
	<rect id="dzen" fill="#13254D" width="60" height="85"/>
	<circle display="none" fill="#FF102F" cx="29.9" cy="42.6" r="16.3"/>
	<g id="Слой_6" display="none">
		<polygon display="inline" fill="#FFFFFF" points="24,36.1 24,32.3 35.7,36.4 35.7,40 		"/>
	</g>
	<g id="Слой_7" display="none">
		<polygon display="inline" fill="#FFFFFF" points="24,45.4 24,49.1 35.7,53 35.7,49.4 		"/>
	</g>
	<g id="Слой_8" display="none">
		<polygon display="inline" fill="#CDD0CF" points="31.8,38.7 24,45.4 27.9,46.8 35.7,40 		"/>
	</g>
</g>
<g id="traffic_1_">
	<path fill="#FFFFFF" d="M30,26.1c-9,0-16.4,7.3-16.4,16.4S21,58.9,30,58.9s16.4-7.3,16.4-16.4S39,26.1,30,26.1z M31,56.9v-2.6h-2
		v2.6c-7.2-0.5-12.9-6.2-13.4-13.4h2.6v-2h-2.6c0.5-7.2,6.2-12.9,13.4-13.4v2.6h2v-2.6c7.2,0.5,12.9,6.2,13.4,13.4h-2.6v2h2.6
		C43.9,50.6,38.1,56.4,31,56.9z"/>
	<path fill="#FFFFFF" d="M23.1,45.6c1-0.7,2.1-1.1,3.2-1.4c0.2-0.1,0.3-0.1,0.5-0.2l0,0c0.2-0.1,0.4-0.2,0.6-0.3c0,0,0-0.1,0-0.1
		c-0.9-1.3-1.5-3.3-1.5-5.1c0-1.5,0.5-2.6,1.3-3.2c-0.4-0.2-0.8-0.3-1.3-0.3c-1.3,0-2.4,0.5-2.4,2.4c0,1.2,0.5,2.8,1.2,3.6
		c0,0.1,0,0.1,0,0.2c0,0.2-0.1,0.4-0.3,0.5c-0.2,0.1-0.4,0.2-0.6,0.3c-0.9,0.3-1.8,0.6-2.6,1.1c-0.4,0.3-0.7,0.8-0.9,1.3
		c-0.2,0.5-0.2,1-0.2,1.6h2.5C22.8,45.8,23,45.7,23.1,45.6z"/>
	<path fill="#FFFFFF" d="M38.8,43.2c-0.8-0.5-1.7-0.8-2.6-1.1c-0.2-0.1-0.4-0.2-0.6-0.3c-0.2-0.1-0.2-0.3-0.3-0.5c0-0.1,0-0.2,0-0.3
		c0.7-0.9,1.1-2.4,1.1-3.6c0-1.9-1.1-2.4-2.4-2.4c-0.5,0-1,0.1-1.3,0.3c0.9,0.7,1.3,1.7,1.3,3.2c0,1.7-0.6,3.6-1.4,4.9c0,0,0,0,0,0
		c0,0.1,0,0.2,0.1,0.2c0.2,0.1,0.4,0.2,0.7,0.3l0.4,0.1c1.1,0.4,2.3,0.8,3.3,1.5c0.2,0.1,0.3,0.1,0.5,0.5h2.5c0-0.7-0.1-1.1-0.2-1.6
		C39.5,44,39.2,43.5,38.8,43.2z"/>
	<path fill="#FFFFFF" d="M36.4,46.2c-1.1-0.7-2.3-1.1-3.5-1.5c-0.3-0.1-0.6-0.2-0.9-0.4c-0.2-0.1-0.3-0.4-0.4-0.7c0-0.1,0-0.3,0-0.4
		c0.9-1.2,1.5-3.1,1.5-4.7c0-2.5-1.4-3.2-3.1-3.2c-1.7,0-3.1,0.7-3.1,3.2c0,1.7,0.6,3.7,1.5,4.9c0,0.1,0,0.2,0,0.3
		c-0.1,0.3-0.1,0.5-0.4,0.7c-0.3,0.2-0.6,0.3-0.9,0.4c-1.2,0.4-2.4,0.8-3.5,1.5c-0.6,0.4-0.9,1.1-1.1,1.7c-0.2,0.6-0.3,1.5-0.3,2.1
		H30h7.9c0-0.7-0.1-1.5-0.3-2.1C37.4,47.3,37,46.6,36.4,46.2z"/>
</g>
</svg>
