<svg id="Направляющие" xmlns="http://www.w3.org/2000/svg" viewBox="0 0 60 85"><title>рекламная сеть facebook</title><rect id="facebook" width="60" height="85" style="fill:#3a5ba2"/><g id="Слой_9" data-name="Слой 9"><polygon points="15.36 57.72 42.76 57.72 43.54 57.11 43.71 56.71 43.91 56.27 14.38 56.27 14.62 56.99 15.02 57.45 15.36 57.72"/><path d="M18,50.51h-.91l-.44.47-2.26,5.29H43.91l-2.12-5-.71-.74-.64-.14.67-.57.2-.47.07-.41-.17-14.59-.4-.58-.74-.4-22.42.13a4.39,4.39,0,0,0-.61.61c0,.08-.2.78-.2.78L16.91,49l.37.81.51.37Z" style="fill:#aaaaa7"/><line x1="14.38" y1="56.27" x2="43.91" y2="56.27" style="fill:none;stroke:#5b5b5b;stroke-miterlimit:10;stroke-width:0.2px"/><path d="M26.42,55.43,26,55.16V53.84a6.77,6.77,0,0,1,.44-.84h6.2a4,4,0,0,0,.34.57,4,4,0,0,1,.13.88v.71l-.34.27Z" style="fill:#201600"/><path d="M19.47,48.79l-.64-.27-.3-.51.23-11.43a5.12,5.12,0,0,1,.71-.84,5.71,5.71,0,0,0,.57-.2H38.35l.84.37.37.51.24.77V48l-.31.78h-20Z" style="fill:#dadada;stroke:#201600;stroke-miterlimit:10;stroke-width:0.2px"/><rect x="21.33" y="43.22" width="6.09" height="3.57" style="fill:#fff"/><path d="M15,45.72l4.17-1.32v-.53h1.49s3.32-1.12,3.4-1.12,2-.59,2-.59l.4-.62.17-.78-.24-.37L26,40.26l.4-.57V39l-.4-.34.17-.57.13-.5-.3-.34.2-.61a1.48,1.48,0,0,0,0-.47,5.2,5.2,0,0,0-.6-.78H25l-3.27.88,0-1.62s-.59-1.09-.67-1.18-.81-1.21-.81-1.21h-.78l-.94.44.23,1a6.81,6.81,0,0,1,.44.7c0,.12-.15,1.33-.13,1.52a11.06,11.06,0,0,1-.34,1.18c0,.13-.2.88-.2.88l-.51.6-.54.24-.6-.47-3.25,1.08-.36.4,1.31,5.56Z" style="fill:#fff;stroke:#64656b;stroke-miterlimit:10;stroke-width:0.5px"/><polygon points="15.19 45.01 18.53 44.07 17.21 39.52 13.91 40.6 15.19 45.01" style="fill:#698fb6"/><polygon points="13.91 40.6 13.91 39.95 16.74 39.18 17.21 39.52 13.91 40.6" style="fill:#5a84b3"/><rect x="31.75" y="36.95" width="6.97" height="10.86" style="fill:#fff"/><path d="M19.13,43.06l-.6-2.33L18.06,39l-.37.36s.8,3.35.91,3.47l.1.12Z" style="fill:#e0e7f0"/><path d="M23.89,42.16l1.82-.52L26,41s-.19-.45-.27-.43-.24-.24-.24-.24l.37-.47-.06-.71h-.41l-.1-.34.44-.47a1.92,1.92,0,0,0,0-.54,2.09,2.09,0,0,0-.44-.27l-.14-.3s.29-.3.38-.37a2.82,2.82,0,0,0,.13-.74l-.57-.31-.88.2-1,.34-1.89.27V35.17l-.41-1L20.18,33l-.67-.18.23.65a4.63,4.63,0,0,1,.3.68c0,.12,0,.92,0,1s-.13,1.25-.13,1.25a2.73,2.73,0,0,1,0,.64c-.05,0,.51.23.51.23l1.28-.44,1.92-.33.2.47s-.24.42-.3.51l-.24.26.34.27s.3.1.3.24-.07.57-.07.57l-.33.34a3.67,3.67,0,0,0,.27.34c.1.1.27.22.3.37a2.64,2.64,0,0,1,0,.5l-.37.41.34.23s.11.37.13.48A2.83,2.83,0,0,1,23.89,42.16Z" style="fill:#e0e7f0"/><path d="M26.74,35.92h8.59v2.16H26.74Z" style="fill:#3a66a5"/><path d="M27.79,36.16v.24h-.14a.1.1,0,0,0-.12.1v.19h.26l0,.26h-.23v.73h-.29V37H27v-.26h.21v-.22a.24.24,0,0,1,.08-.22.37.37,0,0,1,.25-.09h.21m.7.53v.14a.36.36,0,0,0-.29-.16c-.23,0-.41.2-.41.52s.18.53.41.53a.39.39,0,0,0,.3-.16v.12h.29v-1h-.29m0,.6a.2.2,0,0,1-.19.19.19.19,0,0,1-.19-.19V37.1a.19.19,0,0,1,.19-.19.2.2,0,0,1,.19.19v.19m2.6.4v-.13a.38.38,0,0,0,.3.16c.23,0,.41-.2.41-.53s-.18-.52-.41-.52a.38.38,0,0,0-.3.16v-.66l-.29,0v1.48h.29m0-.6a.2.2,0,0,1,.19-.19.2.2,0,0,1,.19.19v.19a.2.2,0,0,1-.19.2.21.21,0,0,1-.19-.2v-.19m-1.69.39s-.22,0-.22-.28v0c0-.29.22-.28.22-.28.16,0,.21.05.21.05l.07-.22a.66.66,0,0,0-.66.05.57.57,0,0,0-.14.41.56.56,0,0,0,.14.4.66.66,0,0,0,.66,0l-.07-.22s-.05.06-.21.06" style="fill:#fff"/><path d="M30.67,37.3s.12-.62-.45-.63a.47.47,0,0,0-.49.56c0,.35.17.44.44.48a.94.94,0,0,0,.48-.07l-.06-.2a1.47,1.47,0,0,1-.39.05.19.19,0,0,1-.16-.2h.63ZM30,37.1s0-.22.19-.22.18.22.18.22H30m2.35-.42c-.37,0-.49.22-.49.52a.46.46,0,0,0,.49.52.48.48,0,0,0,.49-.52.46.46,0,0,0-.49-.52m.19.6a.2.2,0,1,1-.39,0v-.19a.2.2,0,0,1,.39,0v.19m.9-.6c-.37,0-.49.22-.49.52a.46.46,0,0,0,.49.52A.48.48,0,0,0,34,37.2a.46.46,0,0,0-.49-.52m.19.6a.2.2,0,1,1-.39,0v-.19a.2.2,0,0,1,.39,0v.19m1.34.41-.33-.5.31-.5h-.31l-.31.45v-1l-.29,0v1.49h.29v-.51l.33.51Z" style="fill:#fff"/><rect x="30.4" y="41.44" width="5.59" height="3.57" style="fill:#698fb6"/><path d="M32.68,44.12h-.32l-.25-.65h-.9l-.24.65h-.3L31.5,42h.31ZM32,43.25l-.38-1-.36,1Z" style="fill:#fff"/><path d="M33.87,43.94a.56.56,0,0,1-.45.22.55.55,0,0,1-.47-.22.93.93,0,0,1-.17-.58.92.92,0,0,1,.19-.6.6.6,0,0,1,.47-.23.65.65,0,0,1,.43.16V42h.27v2.14h-.27Zm0-.26v-.74a.54.54,0,0,0-.41-.19.35.35,0,0,0-.29.15.85.85,0,0,0-.1.46.72.72,0,0,0,.1.43.32.32,0,0,0,.28.15A.52.52,0,0,0,33.87,43.68Z" style="fill:#fff"/><path d="M35.11,44.16c-.43,0-.65-.17-.67-.5h.28c0,.19.13.28.38.28a.38.38,0,0,0,.26-.07.2.2,0,0,0,.09-.17.16.16,0,0,0-.08-.15,2.25,2.25,0,0,0-.37-.12,1.2,1.2,0,0,1-.4-.15.35.35,0,0,1-.12-.3.41.41,0,0,1,.15-.32.7.7,0,0,1,.42-.13c.41,0,.62.15.63.44H35.4c0-.15-.12-.22-.33-.22a.52.52,0,0,0-.23,0,.18.18,0,0,0-.09.16.14.14,0,0,0,.07.13,2.1,2.1,0,0,0,.35.11,1.05,1.05,0,0,1,.42.16.34.34,0,0,1,.14.31.44.44,0,0,1-.17.35A.69.69,0,0,1,35.11,44.16Z" style="fill:#fff"/><rect x="22.2" y="43.93" width="5.59" height="3.57" style="fill:#698fb6"/><path d="M24.48,46.62h-.32L23.91,46H23l-.24.66h-.3l.83-2.15h.3Zm-.65-.88-.38-1-.36,1Z" style="fill:#fff"/><path d="M25.66,46.43a.55.55,0,0,1-.44.23.57.57,0,0,1-.47-.22,1,1,0,0,1-.17-.59.94.94,0,0,1,.19-.6.57.57,0,0,1,.47-.22.6.6,0,0,1,.42.15v-.71h.28v2.15h-.28Zm0-.26v-.74a.54.54,0,0,0-.4-.19.35.35,0,0,0-.29.16.79.79,0,0,0-.1.45.78.78,0,0,0,.1.44.31.31,0,0,0,.27.15A.51.51,0,0,0,25.66,46.17Z" style="fill:#fff"/><path d="M26.9,46.66q-.63,0-.66-.51h.27c0,.19.14.29.39.29a.38.38,0,0,0,.26-.07.23.23,0,0,0,.09-.18.16.16,0,0,0-.09-.15,1.56,1.56,0,0,0-.36-.11,1.31,1.31,0,0,1-.4-.16.32.32,0,0,1-.13-.29.4.4,0,0,1,.16-.32.64.64,0,0,1,.42-.13c.41,0,.62.14.63.43H27.2c0-.14-.12-.22-.33-.22a.41.41,0,0,0-.23.06.16.16,0,0,0-.09.15.13.13,0,0,0,.07.13,1.81,1.81,0,0,0,.35.11,1.47,1.47,0,0,1,.42.16.34.34,0,0,1,.14.31.44.44,0,0,1-.17.35A.67.67,0,0,1,26.9,46.66Z" style="fill:#fff"/><path d="M17.69,54.52h6.68s.38-.32.46-.31.3-.54.3-.54l.21-.91.37-.5h7.56l.39.23,1.18,2.11H41l.33-.52a1.51,1.51,0,0,0,.14-.51c0-.11-.88-1.6-.91-1.82s-.51-.54-.51-.54H18.41l-.72.71-.61,1.62v.67Z" style="fill:#003993"/></g></svg>