<?xml version="1.0" encoding="utf-8"?>
<!-- Generator: Adobe Illustrator 23.0.6, SVG Export Plug-In . SVG Version: 6.00 Build 0)  -->
<svg version="1.0" id="Направляющие" xmlns="http://www.w3.org/2000/svg" xmlns:xlink="http://www.w3.org/1999/xlink"
	 x="0px" y="0px" viewBox="0 0 60 85" enable-background="new 0 0 60 85" xml:space="preserve">
<linearGradient id="cian_1_" gradientUnits="userSpaceOnUse" x1="30" y1="6.962" x2="30" y2="77.6742">
	<stop  offset="0" style="stop-color:#EAEAEA"/>
	<stop  offset="1" style="stop-color:#F9F9F9"/>
</linearGradient>
<rect id="cian" fill="url(#cian_1_)" width="60" height="85"/>
<g id="отзывы_о_доме">
	<path fill="#1D85AA" d="M35.2,46.9l0-0.1l-9.7-9.6l0,0l0,0l-9.9,9.8v12h7.9V51H27v7.9h8.2V46.9z M33.8,57.5h-5.4v-7.9h-6.3v7.9H17
		v-9.9l8.5-8.5l8.3,8.4V57.5z"/>
	<g id="комменты_1_">
		<g>
			<path fill="#1D85AA" d="M35,41.2l-1-2.4l-4.8-2l4.1-10.1l13.1,5.4l-4.1,10.1l-4.8-2L35,41.2z M30.6,36.2l4.2,1.7l0.8,1.8l1.8-0.8
				l4.2,1.7l3.3-8.1l-11.1-4.5L30.6,36.2z"/>
		</g>
		<g>
			
				<rect x="38" y="28.6" transform="matrix(0.3797 -0.9251 0.9251 0.3797 -6.0692 55.8142)" fill="#1D85AA" width="1.1" height="7.6"/>
		</g>
		<g>
			
				<rect x="37.2" y="30.6" transform="matrix(0.3797 -0.9251 0.9251 0.3797 -8.4442 56.2988)" fill="#1D85AA" width="1.1" height="7.6"/>
		</g>
		<g>
			
				<rect x="35.4" y="33.3" transform="matrix(0.3797 -0.9251 0.9251 0.3797 -11.0658 55.5967)" fill="#1D85AA" width="1.1" height="5.4"/>
		</g>
	</g>
</g>
</svg>
