<?xml version="1.0" encoding="utf-8"?>
<!-- Generator: Adobe Illustrator 25.0.0, SVG Export Plug-In . SVG Version: 6.00 Build 0)  -->
<svg version="1.2" baseProfile="tiny" xmlns="http://www.w3.org/2000/svg" xmlns:xlink="http://www.w3.org/1999/xlink" x="0px"
	 y="0px" viewBox="0 0 60 85" overflow="visible" xml:space="preserve">
<g id="фоны">
	<g id="vk">
		<rect id="canvas_background_2_" fill="#4C75A3" width="60" height="85"/>
	</g>
</g>
<g id="иконки">
	<g id="thumb_up_2_">
		<path fill="#FFFFFF" d="M46.0080528,40.2974892c-0.5160789-1.0402565-1.5876236-1.6877823-2.7485466-1.660923
			c-2.810791,0-5.624855,0-8.4389229,0h-0.3734627c0.6338806-0.5062752,1.2417984-1.04422,1.8214455-1.6117821
			c2.5323334-2.54216,3.2759819-5.5691624,2.3816376-9.0023899c-0.1181374-0.5124893-0.3561554-0.9896488-0.6945076-1.3922901
			c-0.3236389-0.4357414-0.9392395-0.5266171-1.3749809-0.2029781c-0.0014076,0.0010452-0.0028076,0.0020924-0.0042076,0.0031433
			c-0.1470222,0.0967579-0.2851562,0.2063885-0.4127731,0.3275986c-0.40522,0.3969631-0.7746506,0.8288803-1.1040077,1.2907352
			c-0.4520836,0.5929527-0.8681335,1.2121124-1.3398743,1.7919598l-0.1900063,0.2620792
			c-0.1375923,0.1834545-0.2882881,0.3701859-0.4422569,0.563467c-0.4917679,0.6209641-1.0144005,1.2168503-1.565918,1.7854099
			c-0.6342888,0.7047653-1.3197384,1.3617477-2.0507622,1.9655876c-0.3505306,0.3275986-0.7174397,0.6551971-1.0941772,0.9434814
			c-0.7585907,0.6651802-1.6011524,1.2279892-2.5061245,1.6740265c-0.4527779,0.2660408-0.9313259,0.4855614-1.4283276,0.6551933
			l-0.2358704,0.1081085c-0.5003548,0.2690315-1.0317307,0.4758606-1.5822983,0.6158867l-0.0818996,0.0393105
			c-0.0851746,0.0425873-0.2063866,0.0556908-0.2031097,0.1932831c0.0032749,0.1375923,0,0.2096634,0,0.3275986v15.7410774
			c-0.0600319,0.8074532,0.5260639,1.5191422,1.3300457,1.6150551c1.3103924,0.2194901,2.6535435,0.4291534,3.9803143,0.6551971
			c2.7911358,0.4455338,5.5855465,0.8714104,8.3734035,1.3398743c3.0086098,0.5311661,5.9384956-1.2737923,6.8173141-4.1998062
			c0.7753181-2.570549,1.539711-5.1454697,2.2931862-7.7247581c0.1998329-0.6846809,0.4357071-1.3595314,0.5863991-2.0605888
			c0.0087357-0.0116501,0.0087357-0.0276642,0-0.0393143c0.2393608-0.6407127,0.4331245-1.2975464,0.5798492-1.9655876
			C46.4629135,41.6434631,46.3587685,40.9156189,46.0080528,40.2974892z"/>
		<path fill="#FFFFFF" d="M18.0803318,37.8077431H13.625v19.2856865h4.4553318
			c1.1274929-0.0035973,2.0406132-0.9167175,2.0442104-2.0442085V39.8552284
			C20.1227455,38.7264557,19.2091007,37.811348,18.0803318,37.8077431z"/>
	</g>
</g>
</svg>
